M48
; DRILL file {KiCad (5.99.0-8961-g580ad8b18e)} date Saturday, March 06, 2021 at 10:18:31 AM
; FORMAT={-:-/ absolute / inch / decimal}
; #@! TF.CreationDate,2021-03-06T10:18:31-08:00
; #@! TF.GenerationSoftware,Kicad,Pcbnew,(5.99.0-8961-g580ad8b18e)
FMAT,2
INCH
T1C0.0276
T2C0.0295
T3C0.0512
%
G90
G05
T1
X4.42Y-3.44
X4.42Y-3.74
X4.52Y-3.44
X4.52Y-3.74
X4.62Y-3.44
X4.62Y-3.74
X4.78Y-3.44
X4.78Y-3.74
X4.88Y-3.44
X4.88Y-3.74
X4.98Y-3.44
X4.98Y-3.74
X5.14Y-3.44
X5.14Y-3.74
X5.24Y-3.44
X5.24Y-3.74
X5.34Y-3.44
X5.34Y-3.74
T2
X4.1765Y-3.5506
X4.1765Y-3.6294
T3
X4.1111Y-3.0421
X4.1133Y-4.1579
X4.2489Y-3.0421
X4.2511Y-4.1579
X4.4711Y-3.0421
X4.4733Y-4.1579
X4.6089Y-3.0421
X4.6111Y-4.1579
X4.8311Y-3.0421
X4.8333Y-4.1579
X4.9689Y-3.0421
X4.9711Y-4.1579
X5.19Y-3.0421
X5.1922Y-4.1579
X5.3278Y-3.0421
X5.33Y-4.1579
X5.6417Y-4.0711
X5.6417Y-4.2089
X5.6419Y-3.7116
X5.6419Y-3.8494
X5.6429Y-2.9922
X5.6429Y-3.13
X5.6429Y-3.3522
X5.6429Y-3.49
T0
M30
