%TF.GenerationSoftware,KiCad,Pcbnew,(5.99.0-9607-gdb88c0fa61)*%
%TF.CreationDate,2021-05-11T21:43:53-07:00*%
%TF.ProjectId,hugo_board,6875676f-5f62-46f6-9172-642e6b696361,rev?*%
%TF.SameCoordinates,Original*%
%TF.FileFunction,Copper,L1,Top*%
%TF.FilePolarity,Positive*%
%FSLAX46Y46*%
G04 Gerber Fmt 4.6, Leading zero omitted, Abs format (unit mm)*
G04 Created by KiCad (PCBNEW (5.99.0-9607-gdb88c0fa61)) date 2021-05-11 21:43:53*
%MOMM*%
%LPD*%
G01*
G04 APERTURE LIST*
G04 Aperture macros list*
%AMRoundRect*
0 Rectangle with rounded corners*
0 $1 Rounding radius*
0 $2 $3 $4 $5 $6 $7 $8 $9 X,Y pos of 4 corners*
0 Add a 4 corners polygon primitive as box body*
4,1,4,$2,$3,$4,$5,$6,$7,$8,$9,$2,$3,0*
0 Add four circle primitives for the rounded corners*
1,1,$1+$1,$2,$3*
1,1,$1+$1,$4,$5*
1,1,$1+$1,$6,$7*
1,1,$1+$1,$8,$9*
0 Add four rect primitives between the rounded corners*
20,1,$1+$1,$2,$3,$4,$5,0*
20,1,$1+$1,$4,$5,$6,$7,0*
20,1,$1+$1,$6,$7,$8,$9,0*
20,1,$1+$1,$8,$9,$2,$3,0*%
G04 Aperture macros list end*
%TA.AperFunction,EtchedComponent*%
%ADD10C,0.010000*%
%TD*%
%TA.AperFunction,ComponentPad*%
%ADD11R,1.800000X1.800000*%
%TD*%
%TA.AperFunction,ComponentPad*%
%ADD12C,1.800000*%
%TD*%
%TA.AperFunction,ComponentPad*%
%ADD13C,1.400000*%
%TD*%
%TA.AperFunction,ComponentPad*%
%ADD14O,1.400000X1.400000*%
%TD*%
%TA.AperFunction,ComponentPad*%
%ADD15R,2.400000X2.400000*%
%TD*%
%TA.AperFunction,ComponentPad*%
%ADD16C,2.400000*%
%TD*%
%TA.AperFunction,ComponentPad*%
%ADD17RoundRect,0.250000X0.350000X0.625000X-0.350000X0.625000X-0.350000X-0.625000X0.350000X-0.625000X0*%
%TD*%
%TA.AperFunction,ComponentPad*%
%ADD18O,1.200000X1.750000*%
%TD*%
%TA.AperFunction,Conductor*%
%ADD19C,0.250000*%
%TD*%
G04 APERTURE END LIST*
D10*
%TO.C,Ref\u002A\u002A*%
X162008147Y-93740510D02*
X162178178Y-93798847D01*
X162178178Y-93798847D02*
X162329499Y-93887063D01*
X162329499Y-93887063D02*
X162384814Y-93932195D01*
X162384814Y-93932195D02*
X162472232Y-94011172D01*
X162472232Y-94011172D02*
X162559650Y-93932195D01*
X162559650Y-93932195D02*
X162699995Y-93832347D01*
X162699995Y-93832347D02*
X162863470Y-93761126D01*
X162863470Y-93761126D02*
X163039522Y-93721519D01*
X163039522Y-93721519D02*
X163217597Y-93716513D01*
X163217597Y-93716513D02*
X163290285Y-93725418D01*
X163290285Y-93725418D02*
X163481957Y-93778565D01*
X163481957Y-93778565D02*
X163654066Y-93866671D01*
X163654066Y-93866671D02*
X163803634Y-93985744D01*
X163803634Y-93985744D02*
X163927680Y-94131791D01*
X163927680Y-94131791D02*
X164023225Y-94300822D01*
X164023225Y-94300822D02*
X164087289Y-94488843D01*
X164087289Y-94488843D02*
X164116891Y-94691864D01*
X164116891Y-94691864D02*
X164116129Y-94831746D01*
X164116129Y-94831746D02*
X164083987Y-95048959D01*
X164083987Y-95048959D02*
X164017306Y-95242946D01*
X164017306Y-95242946D02*
X163945495Y-95371496D01*
X163945495Y-95371496D02*
X163920750Y-95402991D01*
X163920750Y-95402991D02*
X163871741Y-95460586D01*
X163871741Y-95460586D02*
X163801778Y-95540647D01*
X163801778Y-95540647D02*
X163714170Y-95639538D01*
X163714170Y-95639538D02*
X163612229Y-95753626D01*
X163612229Y-95753626D02*
X163499263Y-95879276D01*
X163499263Y-95879276D02*
X163378582Y-96012851D01*
X163378582Y-96012851D02*
X163253497Y-96150719D01*
X163253497Y-96150719D02*
X163127317Y-96289244D01*
X163127317Y-96289244D02*
X163003353Y-96424791D01*
X163003353Y-96424791D02*
X162884914Y-96553726D01*
X162884914Y-96553726D02*
X162775310Y-96672414D01*
X162775310Y-96672414D02*
X162677852Y-96777219D01*
X162677852Y-96777219D02*
X162595848Y-96864508D01*
X162595848Y-96864508D02*
X162532609Y-96930646D01*
X162532609Y-96930646D02*
X162491445Y-96971997D01*
X162491445Y-96971997D02*
X162476224Y-96984963D01*
X162476224Y-96984963D02*
X162459475Y-96970791D01*
X162459475Y-96970791D02*
X162416982Y-96928304D01*
X162416982Y-96928304D02*
X162351533Y-96860462D01*
X162351533Y-96860462D02*
X162265918Y-96770223D01*
X162265918Y-96770223D02*
X162162925Y-96660545D01*
X162162925Y-96660545D02*
X162045344Y-96534387D01*
X162045344Y-96534387D02*
X161915964Y-96394707D01*
X161915964Y-96394707D02*
X161777572Y-96244464D01*
X161777572Y-96244464D02*
X161754937Y-96219814D01*
X161754937Y-96219814D02*
X161612910Y-96064454D01*
X161612910Y-96064454D02*
X161477975Y-95915658D01*
X161477975Y-95915658D02*
X161353199Y-95776889D01*
X161353199Y-95776889D02*
X161241650Y-95651616D01*
X161241650Y-95651616D02*
X161146395Y-95543302D01*
X161146395Y-95543302D02*
X161070502Y-95455415D01*
X161070502Y-95455415D02*
X161017036Y-95391421D01*
X161017036Y-95391421D02*
X160989067Y-95354785D01*
X160989067Y-95354785D02*
X160988181Y-95353395D01*
X160988181Y-95353395D02*
X160911729Y-95209018D01*
X160911729Y-95209018D02*
X160862785Y-95060842D01*
X160862785Y-95060842D02*
X160837954Y-94896054D01*
X160837954Y-94896054D02*
X160833110Y-94768246D01*
X160833110Y-94768246D02*
X160835065Y-94648528D01*
X160835065Y-94648528D02*
X160843106Y-94555957D01*
X160843106Y-94555957D02*
X160859192Y-94475549D01*
X160859192Y-94475549D02*
X160880468Y-94406115D01*
X160880468Y-94406115D02*
X160967087Y-94212864D01*
X160967087Y-94212864D02*
X161083332Y-94047107D01*
X161083332Y-94047107D02*
X161226229Y-93911460D01*
X161226229Y-93911460D02*
X161392801Y-93808540D01*
X161392801Y-93808540D02*
X161580075Y-93740966D01*
X161580075Y-93740966D02*
X161654179Y-93725418D01*
X161654179Y-93725418D02*
X161829963Y-93715038D01*
X161829963Y-93715038D02*
X162008147Y-93740510D01*
X162008147Y-93740510D02*
X162008147Y-93740510D01*
G36*
X162008147Y-93740510D02*
G01*
X162178178Y-93798847D01*
X162329499Y-93887063D01*
X162384814Y-93932195D01*
X162472232Y-94011172D01*
X162559650Y-93932195D01*
X162699995Y-93832347D01*
X162863470Y-93761126D01*
X163039522Y-93721519D01*
X163217597Y-93716513D01*
X163290285Y-93725418D01*
X163481957Y-93778565D01*
X163654066Y-93866671D01*
X163803634Y-93985744D01*
X163927680Y-94131791D01*
X164023225Y-94300822D01*
X164087289Y-94488843D01*
X164116891Y-94691864D01*
X164116129Y-94831746D01*
X164083987Y-95048959D01*
X164017306Y-95242946D01*
X163945495Y-95371496D01*
X163920750Y-95402991D01*
X163871741Y-95460586D01*
X163801778Y-95540647D01*
X163714170Y-95639538D01*
X163612229Y-95753626D01*
X163499263Y-95879276D01*
X163378582Y-96012851D01*
X163253497Y-96150719D01*
X163127317Y-96289244D01*
X163003353Y-96424791D01*
X162884914Y-96553726D01*
X162775310Y-96672414D01*
X162677852Y-96777219D01*
X162595848Y-96864508D01*
X162532609Y-96930646D01*
X162491445Y-96971997D01*
X162476224Y-96984963D01*
X162459475Y-96970791D01*
X162416982Y-96928304D01*
X162351533Y-96860462D01*
X162265918Y-96770223D01*
X162162925Y-96660545D01*
X162045344Y-96534387D01*
X161915964Y-96394707D01*
X161777572Y-96244464D01*
X161754937Y-96219814D01*
X161612910Y-96064454D01*
X161477975Y-95915658D01*
X161353199Y-95776889D01*
X161241650Y-95651616D01*
X161146395Y-95543302D01*
X161070502Y-95455415D01*
X161017036Y-95391421D01*
X160989067Y-95354785D01*
X160988181Y-95353395D01*
X160911729Y-95209018D01*
X160862785Y-95060842D01*
X160837954Y-94896054D01*
X160833110Y-94768246D01*
X160835065Y-94648528D01*
X160843106Y-94555957D01*
X160859192Y-94475549D01*
X160880468Y-94406115D01*
X160967087Y-94212864D01*
X161083332Y-94047107D01*
X161226229Y-93911460D01*
X161392801Y-93808540D01*
X161580075Y-93740966D01*
X161654179Y-93725418D01*
X161829963Y-93715038D01*
X162008147Y-93740510D01*
G37*
X162008147Y-93740510D02*
X162178178Y-93798847D01*
X162329499Y-93887063D01*
X162384814Y-93932195D01*
X162472232Y-94011172D01*
X162559650Y-93932195D01*
X162699995Y-93832347D01*
X162863470Y-93761126D01*
X163039522Y-93721519D01*
X163217597Y-93716513D01*
X163290285Y-93725418D01*
X163481957Y-93778565D01*
X163654066Y-93866671D01*
X163803634Y-93985744D01*
X163927680Y-94131791D01*
X164023225Y-94300822D01*
X164087289Y-94488843D01*
X164116891Y-94691864D01*
X164116129Y-94831746D01*
X164083987Y-95048959D01*
X164017306Y-95242946D01*
X163945495Y-95371496D01*
X163920750Y-95402991D01*
X163871741Y-95460586D01*
X163801778Y-95540647D01*
X163714170Y-95639538D01*
X163612229Y-95753626D01*
X163499263Y-95879276D01*
X163378582Y-96012851D01*
X163253497Y-96150719D01*
X163127317Y-96289244D01*
X163003353Y-96424791D01*
X162884914Y-96553726D01*
X162775310Y-96672414D01*
X162677852Y-96777219D01*
X162595848Y-96864508D01*
X162532609Y-96930646D01*
X162491445Y-96971997D01*
X162476224Y-96984963D01*
X162459475Y-96970791D01*
X162416982Y-96928304D01*
X162351533Y-96860462D01*
X162265918Y-96770223D01*
X162162925Y-96660545D01*
X162045344Y-96534387D01*
X161915964Y-96394707D01*
X161777572Y-96244464D01*
X161754937Y-96219814D01*
X161612910Y-96064454D01*
X161477975Y-95915658D01*
X161353199Y-95776889D01*
X161241650Y-95651616D01*
X161146395Y-95543302D01*
X161070502Y-95455415D01*
X161017036Y-95391421D01*
X160989067Y-95354785D01*
X160988181Y-95353395D01*
X160911729Y-95209018D01*
X160862785Y-95060842D01*
X160837954Y-94896054D01*
X160833110Y-94768246D01*
X160835065Y-94648528D01*
X160843106Y-94555957D01*
X160859192Y-94475549D01*
X160880468Y-94406115D01*
X160967087Y-94212864D01*
X161083332Y-94047107D01*
X161226229Y-93911460D01*
X161392801Y-93808540D01*
X161580075Y-93740966D01*
X161654179Y-93725418D01*
X161829963Y-93715038D01*
X162008147Y-93740510D01*
X142008147Y-93740510D02*
X142178178Y-93798847D01*
X142178178Y-93798847D02*
X142329499Y-93887063D01*
X142329499Y-93887063D02*
X142384814Y-93932195D01*
X142384814Y-93932195D02*
X142472232Y-94011172D01*
X142472232Y-94011172D02*
X142559650Y-93932195D01*
X142559650Y-93932195D02*
X142699995Y-93832347D01*
X142699995Y-93832347D02*
X142863470Y-93761126D01*
X142863470Y-93761126D02*
X143039522Y-93721519D01*
X143039522Y-93721519D02*
X143217597Y-93716513D01*
X143217597Y-93716513D02*
X143290285Y-93725418D01*
X143290285Y-93725418D02*
X143481957Y-93778565D01*
X143481957Y-93778565D02*
X143654066Y-93866671D01*
X143654066Y-93866671D02*
X143803634Y-93985744D01*
X143803634Y-93985744D02*
X143927680Y-94131791D01*
X143927680Y-94131791D02*
X144023225Y-94300822D01*
X144023225Y-94300822D02*
X144087289Y-94488843D01*
X144087289Y-94488843D02*
X144116891Y-94691864D01*
X144116891Y-94691864D02*
X144116129Y-94831746D01*
X144116129Y-94831746D02*
X144083987Y-95048959D01*
X144083987Y-95048959D02*
X144017306Y-95242946D01*
X144017306Y-95242946D02*
X143945495Y-95371496D01*
X143945495Y-95371496D02*
X143920750Y-95402991D01*
X143920750Y-95402991D02*
X143871741Y-95460586D01*
X143871741Y-95460586D02*
X143801778Y-95540647D01*
X143801778Y-95540647D02*
X143714170Y-95639538D01*
X143714170Y-95639538D02*
X143612229Y-95753626D01*
X143612229Y-95753626D02*
X143499263Y-95879276D01*
X143499263Y-95879276D02*
X143378582Y-96012851D01*
X143378582Y-96012851D02*
X143253497Y-96150719D01*
X143253497Y-96150719D02*
X143127317Y-96289244D01*
X143127317Y-96289244D02*
X143003353Y-96424791D01*
X143003353Y-96424791D02*
X142884914Y-96553726D01*
X142884914Y-96553726D02*
X142775310Y-96672414D01*
X142775310Y-96672414D02*
X142677852Y-96777219D01*
X142677852Y-96777219D02*
X142595848Y-96864508D01*
X142595848Y-96864508D02*
X142532609Y-96930646D01*
X142532609Y-96930646D02*
X142491445Y-96971997D01*
X142491445Y-96971997D02*
X142476224Y-96984963D01*
X142476224Y-96984963D02*
X142459475Y-96970791D01*
X142459475Y-96970791D02*
X142416982Y-96928304D01*
X142416982Y-96928304D02*
X142351533Y-96860462D01*
X142351533Y-96860462D02*
X142265918Y-96770223D01*
X142265918Y-96770223D02*
X142162925Y-96660545D01*
X142162925Y-96660545D02*
X142045344Y-96534387D01*
X142045344Y-96534387D02*
X141915964Y-96394707D01*
X141915964Y-96394707D02*
X141777572Y-96244464D01*
X141777572Y-96244464D02*
X141754937Y-96219814D01*
X141754937Y-96219814D02*
X141612910Y-96064454D01*
X141612910Y-96064454D02*
X141477975Y-95915658D01*
X141477975Y-95915658D02*
X141353199Y-95776889D01*
X141353199Y-95776889D02*
X141241650Y-95651616D01*
X141241650Y-95651616D02*
X141146395Y-95543302D01*
X141146395Y-95543302D02*
X141070502Y-95455415D01*
X141070502Y-95455415D02*
X141017036Y-95391421D01*
X141017036Y-95391421D02*
X140989067Y-95354785D01*
X140989067Y-95354785D02*
X140988181Y-95353395D01*
X140988181Y-95353395D02*
X140911729Y-95209018D01*
X140911729Y-95209018D02*
X140862785Y-95060842D01*
X140862785Y-95060842D02*
X140837954Y-94896054D01*
X140837954Y-94896054D02*
X140833110Y-94768246D01*
X140833110Y-94768246D02*
X140835065Y-94648528D01*
X140835065Y-94648528D02*
X140843106Y-94555957D01*
X140843106Y-94555957D02*
X140859192Y-94475549D01*
X140859192Y-94475549D02*
X140880468Y-94406115D01*
X140880468Y-94406115D02*
X140967087Y-94212864D01*
X140967087Y-94212864D02*
X141083332Y-94047107D01*
X141083332Y-94047107D02*
X141226229Y-93911460D01*
X141226229Y-93911460D02*
X141392801Y-93808540D01*
X141392801Y-93808540D02*
X141580075Y-93740966D01*
X141580075Y-93740966D02*
X141654179Y-93725418D01*
X141654179Y-93725418D02*
X141829963Y-93715038D01*
X141829963Y-93715038D02*
X142008147Y-93740510D01*
X142008147Y-93740510D02*
X142008147Y-93740510D01*
G36*
X142008147Y-93740510D02*
G01*
X142178178Y-93798847D01*
X142329499Y-93887063D01*
X142384814Y-93932195D01*
X142472232Y-94011172D01*
X142559650Y-93932195D01*
X142699995Y-93832347D01*
X142863470Y-93761126D01*
X143039522Y-93721519D01*
X143217597Y-93716513D01*
X143290285Y-93725418D01*
X143481957Y-93778565D01*
X143654066Y-93866671D01*
X143803634Y-93985744D01*
X143927680Y-94131791D01*
X144023225Y-94300822D01*
X144087289Y-94488843D01*
X144116891Y-94691864D01*
X144116129Y-94831746D01*
X144083987Y-95048959D01*
X144017306Y-95242946D01*
X143945495Y-95371496D01*
X143920750Y-95402991D01*
X143871741Y-95460586D01*
X143801778Y-95540647D01*
X143714170Y-95639538D01*
X143612229Y-95753626D01*
X143499263Y-95879276D01*
X143378582Y-96012851D01*
X143253497Y-96150719D01*
X143127317Y-96289244D01*
X143003353Y-96424791D01*
X142884914Y-96553726D01*
X142775310Y-96672414D01*
X142677852Y-96777219D01*
X142595848Y-96864508D01*
X142532609Y-96930646D01*
X142491445Y-96971997D01*
X142476224Y-96984963D01*
X142459475Y-96970791D01*
X142416982Y-96928304D01*
X142351533Y-96860462D01*
X142265918Y-96770223D01*
X142162925Y-96660545D01*
X142045344Y-96534387D01*
X141915964Y-96394707D01*
X141777572Y-96244464D01*
X141754937Y-96219814D01*
X141612910Y-96064454D01*
X141477975Y-95915658D01*
X141353199Y-95776889D01*
X141241650Y-95651616D01*
X141146395Y-95543302D01*
X141070502Y-95455415D01*
X141017036Y-95391421D01*
X140989067Y-95354785D01*
X140988181Y-95353395D01*
X140911729Y-95209018D01*
X140862785Y-95060842D01*
X140837954Y-94896054D01*
X140833110Y-94768246D01*
X140835065Y-94648528D01*
X140843106Y-94555957D01*
X140859192Y-94475549D01*
X140880468Y-94406115D01*
X140967087Y-94212864D01*
X141083332Y-94047107D01*
X141226229Y-93911460D01*
X141392801Y-93808540D01*
X141580075Y-93740966D01*
X141654179Y-93725418D01*
X141829963Y-93715038D01*
X142008147Y-93740510D01*
G37*
X142008147Y-93740510D02*
X142178178Y-93798847D01*
X142329499Y-93887063D01*
X142384814Y-93932195D01*
X142472232Y-94011172D01*
X142559650Y-93932195D01*
X142699995Y-93832347D01*
X142863470Y-93761126D01*
X143039522Y-93721519D01*
X143217597Y-93716513D01*
X143290285Y-93725418D01*
X143481957Y-93778565D01*
X143654066Y-93866671D01*
X143803634Y-93985744D01*
X143927680Y-94131791D01*
X144023225Y-94300822D01*
X144087289Y-94488843D01*
X144116891Y-94691864D01*
X144116129Y-94831746D01*
X144083987Y-95048959D01*
X144017306Y-95242946D01*
X143945495Y-95371496D01*
X143920750Y-95402991D01*
X143871741Y-95460586D01*
X143801778Y-95540647D01*
X143714170Y-95639538D01*
X143612229Y-95753626D01*
X143499263Y-95879276D01*
X143378582Y-96012851D01*
X143253497Y-96150719D01*
X143127317Y-96289244D01*
X143003353Y-96424791D01*
X142884914Y-96553726D01*
X142775310Y-96672414D01*
X142677852Y-96777219D01*
X142595848Y-96864508D01*
X142532609Y-96930646D01*
X142491445Y-96971997D01*
X142476224Y-96984963D01*
X142459475Y-96970791D01*
X142416982Y-96928304D01*
X142351533Y-96860462D01*
X142265918Y-96770223D01*
X142162925Y-96660545D01*
X142045344Y-96534387D01*
X141915964Y-96394707D01*
X141777572Y-96244464D01*
X141754937Y-96219814D01*
X141612910Y-96064454D01*
X141477975Y-95915658D01*
X141353199Y-95776889D01*
X141241650Y-95651616D01*
X141146395Y-95543302D01*
X141070502Y-95455415D01*
X141017036Y-95391421D01*
X140989067Y-95354785D01*
X140988181Y-95353395D01*
X140911729Y-95209018D01*
X140862785Y-95060842D01*
X140837954Y-94896054D01*
X140833110Y-94768246D01*
X140835065Y-94648528D01*
X140843106Y-94555957D01*
X140859192Y-94475549D01*
X140880468Y-94406115D01*
X140967087Y-94212864D01*
X141083332Y-94047107D01*
X141226229Y-93911460D01*
X141392801Y-93808540D01*
X141580075Y-93740966D01*
X141654179Y-93725418D01*
X141829963Y-93715038D01*
X142008147Y-93740510D01*
X162008147Y-73740510D02*
X162178178Y-73798847D01*
X162178178Y-73798847D02*
X162329499Y-73887063D01*
X162329499Y-73887063D02*
X162384814Y-73932195D01*
X162384814Y-73932195D02*
X162472232Y-74011172D01*
X162472232Y-74011172D02*
X162559650Y-73932195D01*
X162559650Y-73932195D02*
X162699995Y-73832347D01*
X162699995Y-73832347D02*
X162863470Y-73761126D01*
X162863470Y-73761126D02*
X163039522Y-73721519D01*
X163039522Y-73721519D02*
X163217597Y-73716513D01*
X163217597Y-73716513D02*
X163290285Y-73725418D01*
X163290285Y-73725418D02*
X163481957Y-73778565D01*
X163481957Y-73778565D02*
X163654066Y-73866671D01*
X163654066Y-73866671D02*
X163803634Y-73985744D01*
X163803634Y-73985744D02*
X163927680Y-74131791D01*
X163927680Y-74131791D02*
X164023225Y-74300822D01*
X164023225Y-74300822D02*
X164087289Y-74488843D01*
X164087289Y-74488843D02*
X164116891Y-74691864D01*
X164116891Y-74691864D02*
X164116129Y-74831746D01*
X164116129Y-74831746D02*
X164083987Y-75048959D01*
X164083987Y-75048959D02*
X164017306Y-75242946D01*
X164017306Y-75242946D02*
X163945495Y-75371496D01*
X163945495Y-75371496D02*
X163920750Y-75402991D01*
X163920750Y-75402991D02*
X163871741Y-75460586D01*
X163871741Y-75460586D02*
X163801778Y-75540647D01*
X163801778Y-75540647D02*
X163714170Y-75639538D01*
X163714170Y-75639538D02*
X163612229Y-75753626D01*
X163612229Y-75753626D02*
X163499263Y-75879276D01*
X163499263Y-75879276D02*
X163378582Y-76012851D01*
X163378582Y-76012851D02*
X163253497Y-76150719D01*
X163253497Y-76150719D02*
X163127317Y-76289244D01*
X163127317Y-76289244D02*
X163003353Y-76424791D01*
X163003353Y-76424791D02*
X162884914Y-76553726D01*
X162884914Y-76553726D02*
X162775310Y-76672414D01*
X162775310Y-76672414D02*
X162677852Y-76777219D01*
X162677852Y-76777219D02*
X162595848Y-76864508D01*
X162595848Y-76864508D02*
X162532609Y-76930646D01*
X162532609Y-76930646D02*
X162491445Y-76971997D01*
X162491445Y-76971997D02*
X162476224Y-76984963D01*
X162476224Y-76984963D02*
X162459475Y-76970791D01*
X162459475Y-76970791D02*
X162416982Y-76928304D01*
X162416982Y-76928304D02*
X162351533Y-76860462D01*
X162351533Y-76860462D02*
X162265918Y-76770223D01*
X162265918Y-76770223D02*
X162162925Y-76660545D01*
X162162925Y-76660545D02*
X162045344Y-76534387D01*
X162045344Y-76534387D02*
X161915964Y-76394707D01*
X161915964Y-76394707D02*
X161777572Y-76244464D01*
X161777572Y-76244464D02*
X161754937Y-76219814D01*
X161754937Y-76219814D02*
X161612910Y-76064454D01*
X161612910Y-76064454D02*
X161477975Y-75915658D01*
X161477975Y-75915658D02*
X161353199Y-75776889D01*
X161353199Y-75776889D02*
X161241650Y-75651616D01*
X161241650Y-75651616D02*
X161146395Y-75543302D01*
X161146395Y-75543302D02*
X161070502Y-75455415D01*
X161070502Y-75455415D02*
X161017036Y-75391421D01*
X161017036Y-75391421D02*
X160989067Y-75354785D01*
X160989067Y-75354785D02*
X160988181Y-75353395D01*
X160988181Y-75353395D02*
X160911729Y-75209018D01*
X160911729Y-75209018D02*
X160862785Y-75060842D01*
X160862785Y-75060842D02*
X160837954Y-74896054D01*
X160837954Y-74896054D02*
X160833110Y-74768246D01*
X160833110Y-74768246D02*
X160835065Y-74648528D01*
X160835065Y-74648528D02*
X160843106Y-74555957D01*
X160843106Y-74555957D02*
X160859192Y-74475549D01*
X160859192Y-74475549D02*
X160880468Y-74406115D01*
X160880468Y-74406115D02*
X160967087Y-74212864D01*
X160967087Y-74212864D02*
X161083332Y-74047107D01*
X161083332Y-74047107D02*
X161226229Y-73911460D01*
X161226229Y-73911460D02*
X161392801Y-73808540D01*
X161392801Y-73808540D02*
X161580075Y-73740966D01*
X161580075Y-73740966D02*
X161654179Y-73725418D01*
X161654179Y-73725418D02*
X161829963Y-73715038D01*
X161829963Y-73715038D02*
X162008147Y-73740510D01*
X162008147Y-73740510D02*
X162008147Y-73740510D01*
G36*
X162008147Y-73740510D02*
G01*
X162178178Y-73798847D01*
X162329499Y-73887063D01*
X162384814Y-73932195D01*
X162472232Y-74011172D01*
X162559650Y-73932195D01*
X162699995Y-73832347D01*
X162863470Y-73761126D01*
X163039522Y-73721519D01*
X163217597Y-73716513D01*
X163290285Y-73725418D01*
X163481957Y-73778565D01*
X163654066Y-73866671D01*
X163803634Y-73985744D01*
X163927680Y-74131791D01*
X164023225Y-74300822D01*
X164087289Y-74488843D01*
X164116891Y-74691864D01*
X164116129Y-74831746D01*
X164083987Y-75048959D01*
X164017306Y-75242946D01*
X163945495Y-75371496D01*
X163920750Y-75402991D01*
X163871741Y-75460586D01*
X163801778Y-75540647D01*
X163714170Y-75639538D01*
X163612229Y-75753626D01*
X163499263Y-75879276D01*
X163378582Y-76012851D01*
X163253497Y-76150719D01*
X163127317Y-76289244D01*
X163003353Y-76424791D01*
X162884914Y-76553726D01*
X162775310Y-76672414D01*
X162677852Y-76777219D01*
X162595848Y-76864508D01*
X162532609Y-76930646D01*
X162491445Y-76971997D01*
X162476224Y-76984963D01*
X162459475Y-76970791D01*
X162416982Y-76928304D01*
X162351533Y-76860462D01*
X162265918Y-76770223D01*
X162162925Y-76660545D01*
X162045344Y-76534387D01*
X161915964Y-76394707D01*
X161777572Y-76244464D01*
X161754937Y-76219814D01*
X161612910Y-76064454D01*
X161477975Y-75915658D01*
X161353199Y-75776889D01*
X161241650Y-75651616D01*
X161146395Y-75543302D01*
X161070502Y-75455415D01*
X161017036Y-75391421D01*
X160989067Y-75354785D01*
X160988181Y-75353395D01*
X160911729Y-75209018D01*
X160862785Y-75060842D01*
X160837954Y-74896054D01*
X160833110Y-74768246D01*
X160835065Y-74648528D01*
X160843106Y-74555957D01*
X160859192Y-74475549D01*
X160880468Y-74406115D01*
X160967087Y-74212864D01*
X161083332Y-74047107D01*
X161226229Y-73911460D01*
X161392801Y-73808540D01*
X161580075Y-73740966D01*
X161654179Y-73725418D01*
X161829963Y-73715038D01*
X162008147Y-73740510D01*
G37*
X162008147Y-73740510D02*
X162178178Y-73798847D01*
X162329499Y-73887063D01*
X162384814Y-73932195D01*
X162472232Y-74011172D01*
X162559650Y-73932195D01*
X162699995Y-73832347D01*
X162863470Y-73761126D01*
X163039522Y-73721519D01*
X163217597Y-73716513D01*
X163290285Y-73725418D01*
X163481957Y-73778565D01*
X163654066Y-73866671D01*
X163803634Y-73985744D01*
X163927680Y-74131791D01*
X164023225Y-74300822D01*
X164087289Y-74488843D01*
X164116891Y-74691864D01*
X164116129Y-74831746D01*
X164083987Y-75048959D01*
X164017306Y-75242946D01*
X163945495Y-75371496D01*
X163920750Y-75402991D01*
X163871741Y-75460586D01*
X163801778Y-75540647D01*
X163714170Y-75639538D01*
X163612229Y-75753626D01*
X163499263Y-75879276D01*
X163378582Y-76012851D01*
X163253497Y-76150719D01*
X163127317Y-76289244D01*
X163003353Y-76424791D01*
X162884914Y-76553726D01*
X162775310Y-76672414D01*
X162677852Y-76777219D01*
X162595848Y-76864508D01*
X162532609Y-76930646D01*
X162491445Y-76971997D01*
X162476224Y-76984963D01*
X162459475Y-76970791D01*
X162416982Y-76928304D01*
X162351533Y-76860462D01*
X162265918Y-76770223D01*
X162162925Y-76660545D01*
X162045344Y-76534387D01*
X161915964Y-76394707D01*
X161777572Y-76244464D01*
X161754937Y-76219814D01*
X161612910Y-76064454D01*
X161477975Y-75915658D01*
X161353199Y-75776889D01*
X161241650Y-75651616D01*
X161146395Y-75543302D01*
X161070502Y-75455415D01*
X161017036Y-75391421D01*
X160989067Y-75354785D01*
X160988181Y-75353395D01*
X160911729Y-75209018D01*
X160862785Y-75060842D01*
X160837954Y-74896054D01*
X160833110Y-74768246D01*
X160835065Y-74648528D01*
X160843106Y-74555957D01*
X160859192Y-74475549D01*
X160880468Y-74406115D01*
X160967087Y-74212864D01*
X161083332Y-74047107D01*
X161226229Y-73911460D01*
X161392801Y-73808540D01*
X161580075Y-73740966D01*
X161654179Y-73725418D01*
X161829963Y-73715038D01*
X162008147Y-73740510D01*
X142008147Y-73740510D02*
X142178178Y-73798847D01*
X142178178Y-73798847D02*
X142329499Y-73887063D01*
X142329499Y-73887063D02*
X142384814Y-73932195D01*
X142384814Y-73932195D02*
X142472232Y-74011172D01*
X142472232Y-74011172D02*
X142559650Y-73932195D01*
X142559650Y-73932195D02*
X142699995Y-73832347D01*
X142699995Y-73832347D02*
X142863470Y-73761126D01*
X142863470Y-73761126D02*
X143039522Y-73721519D01*
X143039522Y-73721519D02*
X143217597Y-73716513D01*
X143217597Y-73716513D02*
X143290285Y-73725418D01*
X143290285Y-73725418D02*
X143481957Y-73778565D01*
X143481957Y-73778565D02*
X143654066Y-73866671D01*
X143654066Y-73866671D02*
X143803634Y-73985744D01*
X143803634Y-73985744D02*
X143927680Y-74131791D01*
X143927680Y-74131791D02*
X144023225Y-74300822D01*
X144023225Y-74300822D02*
X144087289Y-74488843D01*
X144087289Y-74488843D02*
X144116891Y-74691864D01*
X144116891Y-74691864D02*
X144116129Y-74831746D01*
X144116129Y-74831746D02*
X144083987Y-75048959D01*
X144083987Y-75048959D02*
X144017306Y-75242946D01*
X144017306Y-75242946D02*
X143945495Y-75371496D01*
X143945495Y-75371496D02*
X143920750Y-75402991D01*
X143920750Y-75402991D02*
X143871741Y-75460586D01*
X143871741Y-75460586D02*
X143801778Y-75540647D01*
X143801778Y-75540647D02*
X143714170Y-75639538D01*
X143714170Y-75639538D02*
X143612229Y-75753626D01*
X143612229Y-75753626D02*
X143499263Y-75879276D01*
X143499263Y-75879276D02*
X143378582Y-76012851D01*
X143378582Y-76012851D02*
X143253497Y-76150719D01*
X143253497Y-76150719D02*
X143127317Y-76289244D01*
X143127317Y-76289244D02*
X143003353Y-76424791D01*
X143003353Y-76424791D02*
X142884914Y-76553726D01*
X142884914Y-76553726D02*
X142775310Y-76672414D01*
X142775310Y-76672414D02*
X142677852Y-76777219D01*
X142677852Y-76777219D02*
X142595848Y-76864508D01*
X142595848Y-76864508D02*
X142532609Y-76930646D01*
X142532609Y-76930646D02*
X142491445Y-76971997D01*
X142491445Y-76971997D02*
X142476224Y-76984963D01*
X142476224Y-76984963D02*
X142459475Y-76970791D01*
X142459475Y-76970791D02*
X142416982Y-76928304D01*
X142416982Y-76928304D02*
X142351533Y-76860462D01*
X142351533Y-76860462D02*
X142265918Y-76770223D01*
X142265918Y-76770223D02*
X142162925Y-76660545D01*
X142162925Y-76660545D02*
X142045344Y-76534387D01*
X142045344Y-76534387D02*
X141915964Y-76394707D01*
X141915964Y-76394707D02*
X141777572Y-76244464D01*
X141777572Y-76244464D02*
X141754937Y-76219814D01*
X141754937Y-76219814D02*
X141612910Y-76064454D01*
X141612910Y-76064454D02*
X141477975Y-75915658D01*
X141477975Y-75915658D02*
X141353199Y-75776889D01*
X141353199Y-75776889D02*
X141241650Y-75651616D01*
X141241650Y-75651616D02*
X141146395Y-75543302D01*
X141146395Y-75543302D02*
X141070502Y-75455415D01*
X141070502Y-75455415D02*
X141017036Y-75391421D01*
X141017036Y-75391421D02*
X140989067Y-75354785D01*
X140989067Y-75354785D02*
X140988181Y-75353395D01*
X140988181Y-75353395D02*
X140911729Y-75209018D01*
X140911729Y-75209018D02*
X140862785Y-75060842D01*
X140862785Y-75060842D02*
X140837954Y-74896054D01*
X140837954Y-74896054D02*
X140833110Y-74768246D01*
X140833110Y-74768246D02*
X140835065Y-74648528D01*
X140835065Y-74648528D02*
X140843106Y-74555957D01*
X140843106Y-74555957D02*
X140859192Y-74475549D01*
X140859192Y-74475549D02*
X140880468Y-74406115D01*
X140880468Y-74406115D02*
X140967087Y-74212864D01*
X140967087Y-74212864D02*
X141083332Y-74047107D01*
X141083332Y-74047107D02*
X141226229Y-73911460D01*
X141226229Y-73911460D02*
X141392801Y-73808540D01*
X141392801Y-73808540D02*
X141580075Y-73740966D01*
X141580075Y-73740966D02*
X141654179Y-73725418D01*
X141654179Y-73725418D02*
X141829963Y-73715038D01*
X141829963Y-73715038D02*
X142008147Y-73740510D01*
X142008147Y-73740510D02*
X142008147Y-73740510D01*
G36*
X142008147Y-73740510D02*
G01*
X142178178Y-73798847D01*
X142329499Y-73887063D01*
X142384814Y-73932195D01*
X142472232Y-74011172D01*
X142559650Y-73932195D01*
X142699995Y-73832347D01*
X142863470Y-73761126D01*
X143039522Y-73721519D01*
X143217597Y-73716513D01*
X143290285Y-73725418D01*
X143481957Y-73778565D01*
X143654066Y-73866671D01*
X143803634Y-73985744D01*
X143927680Y-74131791D01*
X144023225Y-74300822D01*
X144087289Y-74488843D01*
X144116891Y-74691864D01*
X144116129Y-74831746D01*
X144083987Y-75048959D01*
X144017306Y-75242946D01*
X143945495Y-75371496D01*
X143920750Y-75402991D01*
X143871741Y-75460586D01*
X143801778Y-75540647D01*
X143714170Y-75639538D01*
X143612229Y-75753626D01*
X143499263Y-75879276D01*
X143378582Y-76012851D01*
X143253497Y-76150719D01*
X143127317Y-76289244D01*
X143003353Y-76424791D01*
X142884914Y-76553726D01*
X142775310Y-76672414D01*
X142677852Y-76777219D01*
X142595848Y-76864508D01*
X142532609Y-76930646D01*
X142491445Y-76971997D01*
X142476224Y-76984963D01*
X142459475Y-76970791D01*
X142416982Y-76928304D01*
X142351533Y-76860462D01*
X142265918Y-76770223D01*
X142162925Y-76660545D01*
X142045344Y-76534387D01*
X141915964Y-76394707D01*
X141777572Y-76244464D01*
X141754937Y-76219814D01*
X141612910Y-76064454D01*
X141477975Y-75915658D01*
X141353199Y-75776889D01*
X141241650Y-75651616D01*
X141146395Y-75543302D01*
X141070502Y-75455415D01*
X141017036Y-75391421D01*
X140989067Y-75354785D01*
X140988181Y-75353395D01*
X140911729Y-75209018D01*
X140862785Y-75060842D01*
X140837954Y-74896054D01*
X140833110Y-74768246D01*
X140835065Y-74648528D01*
X140843106Y-74555957D01*
X140859192Y-74475549D01*
X140880468Y-74406115D01*
X140967087Y-74212864D01*
X141083332Y-74047107D01*
X141226229Y-73911460D01*
X141392801Y-73808540D01*
X141580075Y-73740966D01*
X141654179Y-73725418D01*
X141829963Y-73715038D01*
X142008147Y-73740510D01*
G37*
X142008147Y-73740510D02*
X142178178Y-73798847D01*
X142329499Y-73887063D01*
X142384814Y-73932195D01*
X142472232Y-74011172D01*
X142559650Y-73932195D01*
X142699995Y-73832347D01*
X142863470Y-73761126D01*
X143039522Y-73721519D01*
X143217597Y-73716513D01*
X143290285Y-73725418D01*
X143481957Y-73778565D01*
X143654066Y-73866671D01*
X143803634Y-73985744D01*
X143927680Y-74131791D01*
X144023225Y-74300822D01*
X144087289Y-74488843D01*
X144116891Y-74691864D01*
X144116129Y-74831746D01*
X144083987Y-75048959D01*
X144017306Y-75242946D01*
X143945495Y-75371496D01*
X143920750Y-75402991D01*
X143871741Y-75460586D01*
X143801778Y-75540647D01*
X143714170Y-75639538D01*
X143612229Y-75753626D01*
X143499263Y-75879276D01*
X143378582Y-76012851D01*
X143253497Y-76150719D01*
X143127317Y-76289244D01*
X143003353Y-76424791D01*
X142884914Y-76553726D01*
X142775310Y-76672414D01*
X142677852Y-76777219D01*
X142595848Y-76864508D01*
X142532609Y-76930646D01*
X142491445Y-76971997D01*
X142476224Y-76984963D01*
X142459475Y-76970791D01*
X142416982Y-76928304D01*
X142351533Y-76860462D01*
X142265918Y-76770223D01*
X142162925Y-76660545D01*
X142045344Y-76534387D01*
X141915964Y-76394707D01*
X141777572Y-76244464D01*
X141754937Y-76219814D01*
X141612910Y-76064454D01*
X141477975Y-75915658D01*
X141353199Y-75776889D01*
X141241650Y-75651616D01*
X141146395Y-75543302D01*
X141070502Y-75455415D01*
X141017036Y-75391421D01*
X140989067Y-75354785D01*
X140988181Y-75353395D01*
X140911729Y-75209018D01*
X140862785Y-75060842D01*
X140837954Y-74896054D01*
X140833110Y-74768246D01*
X140835065Y-74648528D01*
X140843106Y-74555957D01*
X140859192Y-74475549D01*
X140880468Y-74406115D01*
X140967087Y-74212864D01*
X141083332Y-74047107D01*
X141226229Y-73911460D01*
X141392801Y-73808540D01*
X141580075Y-73740966D01*
X141654179Y-73725418D01*
X141829963Y-73715038D01*
X142008147Y-73740510D01*
%TD*%
D11*
%TO.P,GREEN1,1,K*%
%TO.N,+BATT*%
X153610000Y-64887500D03*
D12*
%TO.P,GREEN1,2,A*%
%TO.N,Net-(GREEN1-Pad2)*%
X151070000Y-64887500D03*
%TD*%
D13*
%TO.P,R7,1*%
%TO.N,Net-(GREEN1-Pad2)*%
X156260000Y-71887500D03*
D14*
%TO.P,R7,2*%
%TO.N,Net-(R7-Pad2)*%
X148640000Y-71887500D03*
%TD*%
D15*
%TO.P,SW1,1,1*%
%TO.N,Net-(R1-Pad2)*%
X121165000Y-87418750D03*
D16*
%TO.P,SW1,2,2*%
%TO.N,GND*%
X121165000Y-83918750D03*
%TD*%
D13*
%TO.P,R4,1*%
%TO.N,Net-(R4-Pad1)*%
X176260000Y-71887500D03*
D14*
%TO.P,R4,2*%
%TO.N,Net-(R4-Pad2)*%
X168640000Y-71887500D03*
%TD*%
D13*
%TO.P,R5,1*%
%TO.N,Net-(R5-Pad1)*%
X176260000Y-91887500D03*
D14*
%TO.P,R5,2*%
%TO.N,Net-(R4-Pad2)*%
X168640000Y-91887500D03*
%TD*%
D15*
%TO.P,SW2,1,1*%
%TO.N,Net-(R4-Pad2)*%
X183505000Y-84050000D03*
D16*
%TO.P,SW2,2,2*%
%TO.N,GND*%
X183505000Y-87550000D03*
%TD*%
D13*
%TO.P,R1,1*%
%TO.N,Net-(BLUE1-Pad2)*%
X136260000Y-71887500D03*
D14*
%TO.P,R1,2*%
%TO.N,Net-(R1-Pad2)*%
X128640000Y-71887500D03*
%TD*%
D11*
%TO.P,BLUE2,1,K*%
%TO.N,+BATT*%
X133610000Y-84887500D03*
D12*
%TO.P,BLUE2,2,A*%
%TO.N,Net-(BLUE2-Pad2)*%
X131070000Y-84887500D03*
%TD*%
D11*
%TO.P,BLUE3,1,K*%
%TO.N,+BATT*%
X133610000Y-104887500D03*
D12*
%TO.P,BLUE3,2,A*%
%TO.N,Net-(BLUE3-Pad2)*%
X131070000Y-104887500D03*
%TD*%
D13*
%TO.P,R9,1*%
%TO.N,Net-(GREEN3-Pad2)*%
X156260000Y-111887500D03*
D14*
%TO.P,R9,2*%
%TO.N,Net-(R7-Pad2)*%
X148640000Y-111887500D03*
%TD*%
D11*
%TO.P,RED2,1,K*%
%TO.N,+BATT*%
X173610000Y-84887500D03*
D12*
%TO.P,RED2,2,A*%
%TO.N,Net-(R5-Pad1)*%
X171070000Y-84887500D03*
%TD*%
D13*
%TO.P,R8,1*%
%TO.N,Net-(GREEN2-Pad2)*%
X156260000Y-91887500D03*
D14*
%TO.P,R8,2*%
%TO.N,Net-(R7-Pad2)*%
X148640000Y-91887500D03*
%TD*%
D11*
%TO.P,GREEN2,1,K*%
%TO.N,+BATT*%
X153610000Y-84887500D03*
D12*
%TO.P,GREEN2,2,A*%
%TO.N,Net-(GREEN2-Pad2)*%
X151070000Y-84887500D03*
%TD*%
D11*
%TO.P,GREEN3,1,K*%
%TO.N,+BATT*%
X153610000Y-104887500D03*
D12*
%TO.P,GREEN3,2,A*%
%TO.N,Net-(GREEN3-Pad2)*%
X151070000Y-104887500D03*
%TD*%
D17*
%TO.P,J1,1,Pin_1*%
%TO.N,+BATT*%
X153270000Y-55230000D03*
D18*
%TO.P,J1,2,Pin_2*%
%TO.N,GND*%
X151270000Y-55230000D03*
%TD*%
D11*
%TO.P,BLUE1,1,K*%
%TO.N,+BATT*%
X133610000Y-64887500D03*
D12*
%TO.P,BLUE1,2,A*%
%TO.N,Net-(BLUE1-Pad2)*%
X131070000Y-64887500D03*
%TD*%
D11*
%TO.P,RED3,1,K*%
%TO.N,+BATT*%
X173610000Y-104887500D03*
D12*
%TO.P,RED3,2,A*%
%TO.N,Net-(R6-Pad1)*%
X171070000Y-104887500D03*
%TD*%
D13*
%TO.P,R2,1*%
%TO.N,Net-(BLUE2-Pad2)*%
X136260000Y-91887500D03*
D14*
%TO.P,R2,2*%
%TO.N,Net-(R1-Pad2)*%
X128640000Y-91887500D03*
%TD*%
D15*
%TO.P,SW3,1,1*%
%TO.N,Net-(R7-Pad2)*%
X154050000Y-118760000D03*
D16*
%TO.P,SW3,2,2*%
%TO.N,GND*%
X150550000Y-118760000D03*
%TD*%
D13*
%TO.P,R3,1*%
%TO.N,Net-(BLUE3-Pad2)*%
X136260000Y-111887500D03*
D14*
%TO.P,R3,2*%
%TO.N,Net-(R1-Pad2)*%
X128640000Y-111887500D03*
%TD*%
D11*
%TO.P,RED1,1,K*%
%TO.N,+BATT*%
X173610000Y-64887500D03*
D12*
%TO.P,RED1,2,A*%
%TO.N,Net-(R4-Pad1)*%
X171070000Y-64887500D03*
%TD*%
D13*
%TO.P,R6,1*%
%TO.N,Net-(R6-Pad1)*%
X176260000Y-111887500D03*
D14*
%TO.P,R6,2*%
%TO.N,Net-(R4-Pad2)*%
X168640000Y-111887500D03*
%TD*%
D19*
%TO.N,Net-(R4-Pad2)*%
X183505000Y-84050000D02*
X181979989Y-85575011D01*
X181979989Y-107684528D02*
X176752006Y-112912511D01*
X181979989Y-85575011D02*
X181979989Y-107684528D01*
X176752006Y-112912511D02*
X169665011Y-112912511D01*
X169665011Y-112912511D02*
X168640000Y-111887500D01*
%TO.N,Net-(R7-Pad2)*%
X154050000Y-118760000D02*
X154050000Y-117297500D01*
X154050000Y-117297500D02*
X148640000Y-111887500D01*
%TO.N,+BATT*%
X133610000Y-84887500D02*
X133610000Y-86635000D01*
X133610000Y-86635000D02*
X137300000Y-90325000D01*
X137300000Y-90325000D02*
X137300000Y-101197500D01*
X137300000Y-101197500D02*
X133610000Y-104887500D01*
X137285011Y-81212489D02*
X133610000Y-84887500D01*
X133610000Y-66335000D02*
X137285011Y-70010011D01*
X133610000Y-64887500D02*
X133610000Y-66335000D01*
X137285011Y-70010011D02*
X137285011Y-81212489D01*
X177285011Y-90285011D02*
X177285011Y-101212489D01*
X173610000Y-84887500D02*
X173610000Y-86610000D01*
X173610000Y-86610000D02*
X177285011Y-90285011D01*
X177285011Y-101212489D02*
X173610000Y-104887500D01*
X157285011Y-101212489D02*
X153610000Y-104887500D01*
X153610000Y-84887500D02*
X153610000Y-86485000D01*
X153610000Y-86485000D02*
X157285011Y-90160011D01*
X157285011Y-90160011D02*
X157285011Y-101212489D01*
X153610000Y-64887500D02*
X153610000Y-66660000D01*
X153610000Y-66660000D02*
X157500000Y-70550000D01*
X157500000Y-70550000D02*
X157500000Y-80997500D01*
X157500000Y-80997500D02*
X153610000Y-84887500D01*
X177285011Y-81212489D02*
X173610000Y-84887500D01*
X173610000Y-64887500D02*
X173610000Y-66235000D01*
X173610000Y-66235000D02*
X177285011Y-69910011D01*
X177285011Y-69910011D02*
X177285011Y-81212489D01*
X133610000Y-64887500D02*
X134835011Y-63662489D01*
X134835011Y-63662489D02*
X152384989Y-63662489D01*
X152384989Y-63662489D02*
X153610000Y-64887500D01*
X153610000Y-64887500D02*
X154835011Y-63662489D01*
X154835011Y-63662489D02*
X172384989Y-63662489D01*
X172384989Y-63662489D02*
X173610000Y-64887500D01*
%TO.N,Net-(R1-Pad2)*%
X121165000Y-87418750D02*
X124171250Y-87418750D01*
X124171250Y-87418750D02*
X128640000Y-91887500D01*
%TO.N,Net-(R6-Pad1)*%
X176260000Y-111887500D02*
X176260000Y-110077500D01*
X176260000Y-110077500D02*
X171070000Y-104887500D01*
%TO.N,Net-(R5-Pad1)*%
X176260000Y-91887500D02*
X176260000Y-90077500D01*
X176260000Y-90077500D02*
X171070000Y-84887500D01*
%TO.N,+BATT*%
X153610000Y-64887500D02*
X153610000Y-55570000D01*
X153610000Y-55570000D02*
X153270000Y-55230000D01*
%TO.N,Net-(R4-Pad1)*%
X176260000Y-71887500D02*
X176260000Y-70077500D01*
X176260000Y-70077500D02*
X171070000Y-64887500D01*
%TO.N,Net-(GREEN3-Pad2)*%
X156260000Y-111887500D02*
X156260000Y-110077500D01*
X156260000Y-110077500D02*
X151070000Y-104887500D01*
%TO.N,Net-(GREEN2-Pad2)*%
X156260000Y-91887500D02*
X156260000Y-90077500D01*
X156260000Y-90077500D02*
X151070000Y-84887500D01*
%TO.N,Net-(GREEN1-Pad2)*%
X156260000Y-71887500D02*
X156260000Y-70077500D01*
X156260000Y-70077500D02*
X151070000Y-64887500D01*
%TO.N,Net-(BLUE3-Pad2)*%
X136260000Y-111887500D02*
X136260000Y-110077500D01*
X136260000Y-110077500D02*
X131070000Y-104887500D01*
%TO.N,Net-(BLUE2-Pad2)*%
X136260000Y-91887500D02*
X136260000Y-90077500D01*
X136260000Y-90077500D02*
X131070000Y-84887500D01*
%TO.N,Net-(BLUE1-Pad2)*%
X136260000Y-71887500D02*
X136260000Y-70077500D01*
X136260000Y-70077500D02*
X131070000Y-64887500D01*
%TO.N,Net-(R1-Pad2)*%
X128640000Y-91887500D02*
X128640000Y-111887500D01*
X128640000Y-71887500D02*
X128640000Y-91887500D01*
%TO.N,Net-(R7-Pad2)*%
X148640000Y-91887500D02*
X148640000Y-111887500D01*
X148640000Y-71887500D02*
X148640000Y-91887500D01*
%TO.N,Net-(R4-Pad2)*%
X168640000Y-91887500D02*
X168640000Y-111887500D01*
X168640000Y-71887500D02*
X168640000Y-91887500D01*
X169000000Y-112247500D02*
X168640000Y-111887500D01*
%TD*%
M02*
