M48
; DRILL file {KiCad (5.99.0-9607-gdb88c0fa61)} date Tuesday, May 11, 2021 at 09:43:58 PM
; FORMAT={-:-/ absolute / inch / decimal}
; #@! TF.CreationDate,2021-05-11T21:43:58-07:00
; #@! TF.GenerationSoftware,Kicad,Pcbnew,(5.99.0-9607-gdb88c0fa61)
FMAT,2
INCH
T1C0.0276
T2C0.0295
T3C0.0354
T4C0.0472
%
G90
G05
T1
X5.0646Y-2.8302
X5.0646Y-3.6176
X5.0646Y-4.405
X5.3646Y-2.8302
X5.3646Y-3.6176
X5.3646Y-4.405
X5.852Y-2.8302
X5.852Y-3.6176
X5.852Y-4.405
X6.152Y-2.8302
X6.152Y-3.6176
X6.152Y-4.405
X6.6394Y-2.8302
X6.6394Y-3.6176
X6.6394Y-4.405
X6.9394Y-2.8302
X6.9394Y-3.6176
X6.9394Y-4.405
T2
X5.9555Y-2.1744
X6.0343Y-2.1744
T3
X5.1602Y-2.5546
X5.1602Y-3.342
X5.1602Y-4.1294
X5.2602Y-2.5546
X5.2602Y-3.342
X5.2602Y-4.1294
X5.9476Y-2.5546
X5.9476Y-3.342
X5.9476Y-4.1294
X6.0476Y-2.5546
X6.0476Y-3.342
X6.0476Y-4.1294
X6.735Y-2.5546
X6.735Y-3.342
X6.735Y-4.1294
X6.835Y-2.5546
X6.835Y-3.342
X6.835Y-4.1294
T4
X4.7703Y-3.3039
X4.7703Y-3.4417
X5.9272Y-4.6756
X6.065Y-4.6756
X7.2246Y-3.3091
X7.2246Y-3.4469
T0
M30
