%TF.GenerationSoftware,KiCad,Pcbnew,(5.99.0-8961-g580ad8b18e)*%
%TF.CreationDate,2021-03-06T10:17:55-08:00*%
%TF.ProjectId,hugo_board,6875676f-5f62-46f6-9172-642e6b696361,rev?*%
%TF.SameCoordinates,Original*%
%TF.FileFunction,Copper,L2,Bot*%
%TF.FilePolarity,Positive*%
%FSLAX46Y46*%
G04 Gerber Fmt 4.6, Leading zero omitted, Abs format (unit mm)*
G04 Created by KiCad (PCBNEW (5.99.0-8961-g580ad8b18e)) date 2021-03-06 10:17:55*
%MOMM*%
%LPD*%
G01*
G04 APERTURE LIST*
G04 Aperture macros list*
%AMRoundRect*
0 Rectangle with rounded corners*
0 $1 Rounding radius*
0 $2 $3 $4 $5 $6 $7 $8 $9 X,Y pos of 4 corners*
0 Add a 4 corners polygon primitive as box body*
4,1,4,$2,$3,$4,$5,$6,$7,$8,$9,$2,$3,0*
0 Add four circle primitives for the rounded corners*
1,1,$1+$1,$2,$3*
1,1,$1+$1,$4,$5*
1,1,$1+$1,$6,$7*
1,1,$1+$1,$8,$9*
0 Add four rect primitives between the rounded corners*
20,1,$1+$1,$2,$3,$4,$5,0*
20,1,$1+$1,$4,$5,$6,$7,0*
20,1,$1+$1,$6,$7,$8,$9,0*
20,1,$1+$1,$8,$9,$2,$3,0*%
G04 Aperture macros list end*
%TA.AperFunction,ComponentPad*%
%ADD10O,1.750000X1.200000*%
%TD*%
%TA.AperFunction,ComponentPad*%
%ADD11RoundRect,0.250000X-0.625000X0.350000X-0.625000X-0.350000X0.625000X-0.350000X0.625000X0.350000X0*%
%TD*%
%TA.AperFunction,ComponentPad*%
%ADD12C,2.600000*%
%TD*%
%TA.AperFunction,ComponentPad*%
%ADD13R,2.600000X2.600000*%
%TD*%
%TA.AperFunction,ComponentPad*%
%ADD14O,1.400000X1.400000*%
%TD*%
%TA.AperFunction,ComponentPad*%
%ADD15C,1.400000*%
%TD*%
G04 APERTURE END LIST*
D10*
%TO.P,J7,2,Pin_2*%
%TO.N,GND*%
X106082000Y-92186000D03*
D11*
%TO.P,J7,1,Pin_1*%
%TO.N,+BATT*%
X106082000Y-90186000D03*
%TD*%
D12*
%TO.P,SW3,2,2*%
%TO.N,GND*%
X107922000Y-77269000D03*
D13*
%TO.P,SW3,1,1*%
%TO.N,Net-(R7-Pad2)*%
X104422000Y-77269000D03*
%TD*%
D12*
%TO.P,SW2,2,2*%
%TO.N,GND*%
X143330000Y-79502000D03*
D13*
%TO.P,SW2,1,1*%
%TO.N,Net-(R4-Pad2)*%
X143330000Y-76002000D03*
%TD*%
D12*
%TO.P,SW1,2,2*%
%TO.N,GND*%
X104478000Y-105611000D03*
D13*
%TO.P,SW1,1,1*%
%TO.N,Net-(R1-Pad2)*%
X107978000Y-105611000D03*
%TD*%
D12*
%TO.P,J10,2,Pin_2*%
%TO.N,Net-(J10-Pad2)*%
X135326000Y-77269000D03*
D13*
%TO.P,J10,1,Pin_1*%
%TO.N,+BATT*%
X131826000Y-77269000D03*
%TD*%
D12*
%TO.P,J9,2,Pin_2*%
%TO.N,Net-(J9-Pad2)*%
X126210000Y-77269000D03*
D13*
%TO.P,J9,1,Pin_1*%
%TO.N,+BATT*%
X122710000Y-77269000D03*
%TD*%
D12*
%TO.P,J8,2,Pin_2*%
%TO.N,Net-(J8-Pad2)*%
X117066000Y-77269000D03*
D13*
%TO.P,J8,1,Pin_1*%
%TO.N,+BATT*%
X113566000Y-77269000D03*
%TD*%
D12*
%TO.P,J6,2,Pin_2*%
%TO.N,Net-(J6-Pad2)*%
X143300000Y-106906000D03*
D13*
%TO.P,J6,1,Pin_1*%
%TO.N,+BATT*%
X143300000Y-103406000D03*
%TD*%
D12*
%TO.P,J5,2,Pin_2*%
%TO.N,Net-(J5-Pad2)*%
X143305000Y-97775000D03*
D13*
%TO.P,J5,1,Pin_1*%
%TO.N,+BATT*%
X143305000Y-94275000D03*
%TD*%
D12*
%TO.P,J4,2,Pin_2*%
%TO.N,Net-(J4-Pad2)*%
X143330000Y-88646000D03*
D13*
%TO.P,J4,1,Pin_1*%
%TO.N,+BATT*%
X143330000Y-85146000D03*
%TD*%
D12*
%TO.P,J3,2,Pin_2*%
%TO.N,Net-(J3-Pad2)*%
X131882000Y-105611000D03*
D13*
%TO.P,J3,1,Pin_1*%
%TO.N,+BATT*%
X135382000Y-105611000D03*
%TD*%
D12*
%TO.P,J2,2,Pin_2*%
%TO.N,Net-(J2-Pad2)*%
X122766000Y-105611000D03*
D13*
%TO.P,J2,1,Pin_1*%
%TO.N,+BATT*%
X126266000Y-105611000D03*
%TD*%
D12*
%TO.P,J1,2,Pin_2*%
%TO.N,Net-(J1-Pad2)*%
X113622000Y-105611000D03*
D13*
%TO.P,J1,1,Pin_1*%
%TO.N,+BATT*%
X117122000Y-105611000D03*
%TD*%
D14*
%TO.P,R9,2*%
%TO.N,Net-(R7-Pad2)*%
X126492000Y-87376000D03*
D15*
%TO.P,R9,1*%
%TO.N,Net-(J10-Pad2)*%
X126492000Y-94996000D03*
%TD*%
D14*
%TO.P,R8,2*%
%TO.N,Net-(R7-Pad2)*%
X123952000Y-87376000D03*
D15*
%TO.P,R8,1*%
%TO.N,Net-(J9-Pad2)*%
X123952000Y-94996000D03*
%TD*%
D14*
%TO.P,R7,2*%
%TO.N,Net-(R7-Pad2)*%
X121412000Y-87376000D03*
D15*
%TO.P,R7,1*%
%TO.N,Net-(J8-Pad2)*%
X121412000Y-94996000D03*
%TD*%
D14*
%TO.P,R6,2*%
%TO.N,Net-(R4-Pad2)*%
X135636000Y-87376000D03*
D15*
%TO.P,R6,1*%
%TO.N,Net-(J6-Pad2)*%
X135636000Y-94996000D03*
%TD*%
D14*
%TO.P,R5,2*%
%TO.N,Net-(R4-Pad2)*%
X133096000Y-87376000D03*
D15*
%TO.P,R5,1*%
%TO.N,Net-(J5-Pad2)*%
X133096000Y-94996000D03*
%TD*%
D14*
%TO.P,R4,2*%
%TO.N,Net-(R4-Pad2)*%
X130556000Y-87376000D03*
D15*
%TO.P,R4,1*%
%TO.N,Net-(J4-Pad2)*%
X130556000Y-94996000D03*
%TD*%
D14*
%TO.P,R3,2*%
%TO.N,Net-(R1-Pad2)*%
X117348000Y-87376000D03*
D15*
%TO.P,R3,1*%
%TO.N,Net-(J3-Pad2)*%
X117348000Y-94996000D03*
%TD*%
D14*
%TO.P,R2,2*%
%TO.N,Net-(R1-Pad2)*%
X114808000Y-87376000D03*
D15*
%TO.P,R2,1*%
%TO.N,Net-(J2-Pad2)*%
X114808000Y-94996000D03*
%TD*%
D14*
%TO.P,R1,2*%
%TO.N,Net-(R1-Pad2)*%
X112268000Y-87376000D03*
D15*
%TO.P,R1,1*%
%TO.N,Net-(J1-Pad2)*%
X112268000Y-94996000D03*
%TD*%
%TA.AperFunction,Conductor*%
%TO.N,GND*%
G36*
X147513013Y-71883878D02*
G01*
X147526368Y-71886210D01*
X147531225Y-71886299D01*
X147531231Y-71886300D01*
X147595320Y-71887480D01*
X147628576Y-71888092D01*
X147636119Y-71888458D01*
X147656140Y-71890034D01*
X147665937Y-71891193D01*
X147741137Y-71903104D01*
X147797686Y-71912061D01*
X147807375Y-71913988D01*
X147808415Y-71914238D01*
X147812792Y-71915289D01*
X147822301Y-71917970D01*
X147949166Y-71959191D01*
X147958420Y-71962605D01*
X147963596Y-71964748D01*
X147972562Y-71968882D01*
X148001320Y-71983535D01*
X148091405Y-72029437D01*
X148100027Y-72034265D01*
X148104757Y-72037163D01*
X148112991Y-72042664D01*
X148220894Y-72121059D01*
X148228663Y-72127184D01*
X148232918Y-72130818D01*
X148240184Y-72137535D01*
X148334464Y-72231815D01*
X148341177Y-72239075D01*
X148344814Y-72243333D01*
X148350939Y-72251104D01*
X148429337Y-72359010D01*
X148434817Y-72367212D01*
X148437735Y-72371973D01*
X148442558Y-72380584D01*
X148465041Y-72424709D01*
X148503110Y-72499424D01*
X148507251Y-72508407D01*
X148509393Y-72513578D01*
X148512818Y-72522861D01*
X148554021Y-72649669D01*
X148556709Y-72659200D01*
X148558018Y-72664654D01*
X148559946Y-72674349D01*
X148580802Y-72806029D01*
X148581964Y-72815849D01*
X148583542Y-72835904D01*
X148583908Y-72843422D01*
X148585730Y-72942354D01*
X148586448Y-72946782D01*
X148588377Y-72958687D01*
X148590000Y-72978844D01*
X148590000Y-109899339D01*
X148588122Y-109921013D01*
X148585790Y-109934368D01*
X148585701Y-109939225D01*
X148585700Y-109939231D01*
X148583908Y-110036568D01*
X148583542Y-110044119D01*
X148581966Y-110064140D01*
X148580807Y-110073937D01*
X148568896Y-110149137D01*
X148559939Y-110205686D01*
X148558012Y-110215375D01*
X148556711Y-110220792D01*
X148554030Y-110230301D01*
X148531134Y-110300769D01*
X148512812Y-110357158D01*
X148509395Y-110366420D01*
X148507252Y-110371596D01*
X148503118Y-110380562D01*
X148482407Y-110421210D01*
X148442563Y-110499405D01*
X148437735Y-110508027D01*
X148434837Y-110512757D01*
X148429336Y-110520991D01*
X148350941Y-110628894D01*
X148344816Y-110636663D01*
X148341182Y-110640918D01*
X148334465Y-110648184D01*
X148240185Y-110742464D01*
X148232927Y-110749175D01*
X148228660Y-110752820D01*
X148220896Y-110758939D01*
X148112990Y-110837337D01*
X148104788Y-110842817D01*
X148100027Y-110845735D01*
X148091416Y-110850558D01*
X147972564Y-110911116D01*
X147963592Y-110915252D01*
X147959245Y-110917053D01*
X147958431Y-110917390D01*
X147949156Y-110920812D01*
X147822312Y-110962027D01*
X147812816Y-110964705D01*
X147807345Y-110966018D01*
X147797675Y-110967942D01*
X147687421Y-110985405D01*
X147665970Y-110988802D01*
X147656151Y-110989964D01*
X147636096Y-110991542D01*
X147628578Y-110991908D01*
X147568509Y-110993014D01*
X147534127Y-110993647D01*
X147534121Y-110993648D01*
X147529646Y-110993730D01*
X147513313Y-110996377D01*
X147493156Y-110998000D01*
X100667096Y-110998000D01*
X100645088Y-110996063D01*
X100637805Y-110994771D01*
X100637804Y-110994771D01*
X100633013Y-110993921D01*
X100628151Y-110993818D01*
X100628148Y-110993818D01*
X100589012Y-110992992D01*
X100540321Y-110991963D01*
X100532016Y-110991512D01*
X100519254Y-110990396D01*
X100508358Y-110988962D01*
X100469134Y-110982046D01*
X100398784Y-110969641D01*
X100377575Y-110963958D01*
X100320657Y-110943242D01*
X100274207Y-110926335D01*
X100254302Y-110917053D01*
X100206672Y-110889554D01*
X100159039Y-110862053D01*
X100141054Y-110849460D01*
X100056776Y-110778743D01*
X100041255Y-110763222D01*
X99970542Y-110678948D01*
X99957947Y-110660960D01*
X99902949Y-110565700D01*
X99893667Y-110545795D01*
X99856043Y-110442425D01*
X99850358Y-110421210D01*
X99831042Y-110311666D01*
X99829608Y-110300769D01*
X99828488Y-110287969D01*
X99828036Y-110279646D01*
X99826244Y-110194746D01*
X99826244Y-110194741D01*
X99826149Y-110190264D01*
X99823678Y-110175273D01*
X99822000Y-110154781D01*
X99822000Y-107055856D01*
X103397889Y-107055856D01*
X103406603Y-107067376D01*
X103513482Y-107145744D01*
X103521401Y-107150692D01*
X103750918Y-107271447D01*
X103759492Y-107275175D01*
X104004345Y-107360682D01*
X104013354Y-107363096D01*
X104268174Y-107411475D01*
X104277431Y-107412529D01*
X104536605Y-107422713D01*
X104545918Y-107422387D01*
X104803752Y-107394149D01*
X104812906Y-107392453D01*
X105063732Y-107326416D01*
X105072552Y-107323379D01*
X105310856Y-107220996D01*
X105319128Y-107216689D01*
X105539678Y-107080209D01*
X105547222Y-107074729D01*
X105552511Y-107070251D01*
X105560948Y-107057450D01*
X105554883Y-107047093D01*
X104490812Y-105983022D01*
X104476868Y-105975408D01*
X104475035Y-105975539D01*
X104468420Y-105979790D01*
X103404547Y-107043663D01*
X103397889Y-107055856D01*
X99822000Y-107055856D01*
X99822000Y-105568212D01*
X102665845Y-105568212D01*
X102678290Y-105827277D01*
X102679427Y-105836537D01*
X102730025Y-106090915D01*
X102732519Y-106099908D01*
X102820159Y-106344005D01*
X102823959Y-106352540D01*
X102946717Y-106581004D01*
X102951725Y-106588866D01*
X103021770Y-106682666D01*
X103033029Y-106691115D01*
X103045447Y-106684343D01*
X104105978Y-105623812D01*
X104112356Y-105612132D01*
X104842408Y-105612132D01*
X104842539Y-105613965D01*
X104846790Y-105620580D01*
X105914044Y-106687834D01*
X105926424Y-106694594D01*
X105947902Y-106678516D01*
X105986201Y-106645355D01*
X106056479Y-106635277D01*
X106121049Y-106664795D01*
X106159410Y-106724536D01*
X106164500Y-106759988D01*
X106164500Y-106911000D01*
X106169727Y-106984079D01*
X106210904Y-107124316D01*
X106215775Y-107131895D01*
X106285051Y-107239691D01*
X106285053Y-107239694D01*
X106289923Y-107247271D01*
X106296733Y-107253172D01*
X106393569Y-107337082D01*
X106393572Y-107337084D01*
X106400381Y-107342984D01*
X106408579Y-107346728D01*
X106508703Y-107392453D01*
X106533330Y-107403700D01*
X106542245Y-107404982D01*
X106542246Y-107404982D01*
X106673552Y-107423861D01*
X106673559Y-107423862D01*
X106678000Y-107424500D01*
X109278000Y-107424500D01*
X109351079Y-107419273D01*
X109448605Y-107390637D01*
X109482670Y-107380635D01*
X109482672Y-107380634D01*
X109491316Y-107378096D01*
X109555135Y-107337082D01*
X109606691Y-107303949D01*
X109606694Y-107303947D01*
X109614271Y-107299077D01*
X109634588Y-107275630D01*
X109704082Y-107195431D01*
X109704084Y-107195428D01*
X109709984Y-107188619D01*
X109729369Y-107146173D01*
X109766958Y-107063864D01*
X109766958Y-107063863D01*
X109770700Y-107055670D01*
X109779027Y-106997754D01*
X109790861Y-106915448D01*
X109790862Y-106915441D01*
X109791500Y-106911000D01*
X109791500Y-105563528D01*
X111809121Y-105563528D01*
X111809345Y-105568194D01*
X111809345Y-105568200D01*
X111812017Y-105623812D01*
X111822018Y-105832010D01*
X111822931Y-105836600D01*
X111873517Y-106090915D01*
X111874456Y-106095637D01*
X111876035Y-106100035D01*
X111876037Y-106100042D01*
X111937202Y-106270398D01*
X111965285Y-106348617D01*
X112092510Y-106585393D01*
X112095301Y-106589130D01*
X112095305Y-106589137D01*
X112151802Y-106664795D01*
X112253334Y-106800763D01*
X112256643Y-106804043D01*
X112256648Y-106804049D01*
X112362681Y-106909160D01*
X112444226Y-106989996D01*
X112447988Y-106992754D01*
X112447991Y-106992757D01*
X112567809Y-107080611D01*
X112660991Y-107148935D01*
X112665122Y-107151109D01*
X112665123Y-107151109D01*
X112894734Y-107271913D01*
X112894740Y-107271915D01*
X112898869Y-107274088D01*
X112903276Y-107275627D01*
X112903283Y-107275630D01*
X113146836Y-107360682D01*
X113152632Y-107362706D01*
X113416706Y-107412843D01*
X113544198Y-107417852D01*
X113680622Y-107423212D01*
X113680627Y-107423212D01*
X113685290Y-107423395D01*
X113769656Y-107414156D01*
X113947831Y-107394643D01*
X113947837Y-107394642D01*
X113952484Y-107394133D01*
X114132541Y-107346728D01*
X114207895Y-107326889D01*
X114207897Y-107326888D01*
X114212418Y-107325698D01*
X114330013Y-107275175D01*
X114455087Y-107221439D01*
X114455089Y-107221438D01*
X114459381Y-107219594D01*
X114578028Y-107146173D01*
X114683976Y-107080611D01*
X114683980Y-107080608D01*
X114687949Y-107078152D01*
X114880143Y-106915448D01*
X114889532Y-106907500D01*
X114889534Y-106907498D01*
X114893099Y-106904480D01*
X115070325Y-106702392D01*
X115076530Y-106692746D01*
X115130204Y-106646275D01*
X115200482Y-106636200D01*
X115265051Y-106665719D01*
X115303411Y-106725461D01*
X115308500Y-106760910D01*
X115308500Y-106911000D01*
X115313727Y-106984079D01*
X115354904Y-107124316D01*
X115359775Y-107131895D01*
X115429051Y-107239691D01*
X115429053Y-107239694D01*
X115433923Y-107247271D01*
X115440733Y-107253172D01*
X115537569Y-107337082D01*
X115537572Y-107337084D01*
X115544381Y-107342984D01*
X115552579Y-107346728D01*
X115652703Y-107392453D01*
X115677330Y-107403700D01*
X115686245Y-107404982D01*
X115686246Y-107404982D01*
X115817552Y-107423861D01*
X115817559Y-107423862D01*
X115822000Y-107424500D01*
X118422000Y-107424500D01*
X118495079Y-107419273D01*
X118592605Y-107390637D01*
X118626670Y-107380635D01*
X118626672Y-107380634D01*
X118635316Y-107378096D01*
X118699135Y-107337082D01*
X118750691Y-107303949D01*
X118750694Y-107303947D01*
X118758271Y-107299077D01*
X118778588Y-107275630D01*
X118848082Y-107195431D01*
X118848084Y-107195428D01*
X118853984Y-107188619D01*
X118873369Y-107146173D01*
X118910958Y-107063864D01*
X118910958Y-107063863D01*
X118914700Y-107055670D01*
X118923027Y-106997754D01*
X118934861Y-106915448D01*
X118934862Y-106915441D01*
X118935500Y-106911000D01*
X118935500Y-105563528D01*
X120953121Y-105563528D01*
X120953345Y-105568194D01*
X120953345Y-105568200D01*
X120956017Y-105623812D01*
X120966018Y-105832010D01*
X120966931Y-105836600D01*
X121017517Y-106090915D01*
X121018456Y-106095637D01*
X121020035Y-106100035D01*
X121020037Y-106100042D01*
X121081202Y-106270398D01*
X121109285Y-106348617D01*
X121236510Y-106585393D01*
X121239301Y-106589130D01*
X121239305Y-106589137D01*
X121295802Y-106664795D01*
X121397334Y-106800763D01*
X121400643Y-106804043D01*
X121400648Y-106804049D01*
X121506681Y-106909160D01*
X121588226Y-106989996D01*
X121591988Y-106992754D01*
X121591991Y-106992757D01*
X121711809Y-107080611D01*
X121804991Y-107148935D01*
X121809122Y-107151109D01*
X121809123Y-107151109D01*
X122038734Y-107271913D01*
X122038740Y-107271915D01*
X122042869Y-107274088D01*
X122047276Y-107275627D01*
X122047283Y-107275630D01*
X122290836Y-107360682D01*
X122296632Y-107362706D01*
X122560706Y-107412843D01*
X122688198Y-107417852D01*
X122824622Y-107423212D01*
X122824627Y-107423212D01*
X122829290Y-107423395D01*
X122913656Y-107414156D01*
X123091831Y-107394643D01*
X123091837Y-107394642D01*
X123096484Y-107394133D01*
X123276541Y-107346728D01*
X123351895Y-107326889D01*
X123351897Y-107326888D01*
X123356418Y-107325698D01*
X123474013Y-107275175D01*
X123599087Y-107221439D01*
X123599089Y-107221438D01*
X123603381Y-107219594D01*
X123722028Y-107146173D01*
X123827976Y-107080611D01*
X123827980Y-107080608D01*
X123831949Y-107078152D01*
X124024143Y-106915448D01*
X124033532Y-106907500D01*
X124033534Y-106907498D01*
X124037099Y-106904480D01*
X124214325Y-106702392D01*
X124220530Y-106692746D01*
X124274204Y-106646275D01*
X124344482Y-106636200D01*
X124409051Y-106665719D01*
X124447411Y-106725461D01*
X124452500Y-106760910D01*
X124452500Y-106911000D01*
X124457727Y-106984079D01*
X124498904Y-107124316D01*
X124503775Y-107131895D01*
X124573051Y-107239691D01*
X124573053Y-107239694D01*
X124577923Y-107247271D01*
X124584733Y-107253172D01*
X124681569Y-107337082D01*
X124681572Y-107337084D01*
X124688381Y-107342984D01*
X124696579Y-107346728D01*
X124796703Y-107392453D01*
X124821330Y-107403700D01*
X124830245Y-107404982D01*
X124830246Y-107404982D01*
X124961552Y-107423861D01*
X124961559Y-107423862D01*
X124966000Y-107424500D01*
X127566000Y-107424500D01*
X127639079Y-107419273D01*
X127736605Y-107390637D01*
X127770670Y-107380635D01*
X127770672Y-107380634D01*
X127779316Y-107378096D01*
X127843135Y-107337082D01*
X127894691Y-107303949D01*
X127894694Y-107303947D01*
X127902271Y-107299077D01*
X127922588Y-107275630D01*
X127992082Y-107195431D01*
X127992084Y-107195428D01*
X127997984Y-107188619D01*
X128017369Y-107146173D01*
X128054958Y-107063864D01*
X128054958Y-107063863D01*
X128058700Y-107055670D01*
X128067027Y-106997754D01*
X128078861Y-106915448D01*
X128078862Y-106915441D01*
X128079500Y-106911000D01*
X128079500Y-105563528D01*
X130069121Y-105563528D01*
X130069345Y-105568194D01*
X130069345Y-105568200D01*
X130072017Y-105623812D01*
X130082018Y-105832010D01*
X130082931Y-105836600D01*
X130133517Y-106090915D01*
X130134456Y-106095637D01*
X130136035Y-106100035D01*
X130136037Y-106100042D01*
X130197202Y-106270398D01*
X130225285Y-106348617D01*
X130352510Y-106585393D01*
X130355301Y-106589130D01*
X130355305Y-106589137D01*
X130411802Y-106664795D01*
X130513334Y-106800763D01*
X130516643Y-106804043D01*
X130516648Y-106804049D01*
X130622681Y-106909160D01*
X130704226Y-106989996D01*
X130707988Y-106992754D01*
X130707991Y-106992757D01*
X130827809Y-107080611D01*
X130920991Y-107148935D01*
X130925122Y-107151109D01*
X130925123Y-107151109D01*
X131154734Y-107271913D01*
X131154740Y-107271915D01*
X131158869Y-107274088D01*
X131163276Y-107275627D01*
X131163283Y-107275630D01*
X131406836Y-107360682D01*
X131412632Y-107362706D01*
X131676706Y-107412843D01*
X131804198Y-107417852D01*
X131940622Y-107423212D01*
X131940627Y-107423212D01*
X131945290Y-107423395D01*
X132029656Y-107414156D01*
X132207831Y-107394643D01*
X132207837Y-107394642D01*
X132212484Y-107394133D01*
X132392541Y-107346728D01*
X132467895Y-107326889D01*
X132467897Y-107326888D01*
X132472418Y-107325698D01*
X132590013Y-107275175D01*
X132715087Y-107221439D01*
X132715089Y-107221438D01*
X132719381Y-107219594D01*
X132838028Y-107146173D01*
X132943976Y-107080611D01*
X132943980Y-107080608D01*
X132947949Y-107078152D01*
X133140143Y-106915448D01*
X133149532Y-106907500D01*
X133149534Y-106907498D01*
X133153099Y-106904480D01*
X133330325Y-106702392D01*
X133336530Y-106692746D01*
X133390204Y-106646275D01*
X133460482Y-106636200D01*
X133525051Y-106665719D01*
X133563411Y-106725461D01*
X133568500Y-106760910D01*
X133568500Y-106911000D01*
X133573727Y-106984079D01*
X133614904Y-107124316D01*
X133619775Y-107131895D01*
X133689051Y-107239691D01*
X133689053Y-107239694D01*
X133693923Y-107247271D01*
X133700733Y-107253172D01*
X133797569Y-107337082D01*
X133797572Y-107337084D01*
X133804381Y-107342984D01*
X133812579Y-107346728D01*
X133912703Y-107392453D01*
X133937330Y-107403700D01*
X133946245Y-107404982D01*
X133946246Y-107404982D01*
X134077552Y-107423861D01*
X134077559Y-107423862D01*
X134082000Y-107424500D01*
X136682000Y-107424500D01*
X136755079Y-107419273D01*
X136852605Y-107390637D01*
X136886670Y-107380635D01*
X136886672Y-107380634D01*
X136895316Y-107378096D01*
X136959135Y-107337082D01*
X137010691Y-107303949D01*
X137010694Y-107303947D01*
X137018271Y-107299077D01*
X137038588Y-107275630D01*
X137108082Y-107195431D01*
X137108084Y-107195428D01*
X137113984Y-107188619D01*
X137133369Y-107146173D01*
X137170958Y-107063864D01*
X137170958Y-107063863D01*
X137174700Y-107055670D01*
X137183027Y-106997754D01*
X137194861Y-106915448D01*
X137194862Y-106915441D01*
X137195500Y-106911000D01*
X137195500Y-104311000D01*
X137190273Y-104237921D01*
X137149096Y-104097684D01*
X137124574Y-104059528D01*
X137074949Y-103982309D01*
X137074947Y-103982306D01*
X137070077Y-103974729D01*
X137020859Y-103932081D01*
X136966431Y-103884918D01*
X136966428Y-103884916D01*
X136959619Y-103879016D01*
X136826670Y-103818300D01*
X136817755Y-103817018D01*
X136817754Y-103817018D01*
X136686448Y-103798139D01*
X136686441Y-103798138D01*
X136682000Y-103797500D01*
X134082000Y-103797500D01*
X134008921Y-103802727D01*
X133955884Y-103818300D01*
X133877330Y-103841365D01*
X133877328Y-103841366D01*
X133868684Y-103843904D01*
X133861105Y-103848775D01*
X133753309Y-103918051D01*
X133753306Y-103918053D01*
X133745729Y-103922923D01*
X133739828Y-103929733D01*
X133655918Y-104026569D01*
X133655916Y-104026572D01*
X133650016Y-104033381D01*
X133589300Y-104166330D01*
X133588018Y-104175245D01*
X133588018Y-104175246D01*
X133569139Y-104306552D01*
X133569138Y-104306559D01*
X133568500Y-104311000D01*
X133568500Y-104465736D01*
X133548498Y-104533857D01*
X133494842Y-104580350D01*
X133424568Y-104590454D01*
X133359988Y-104560960D01*
X133343550Y-104543742D01*
X133337507Y-104536076D01*
X133219052Y-104385817D01*
X133023273Y-104201646D01*
X132802421Y-104048436D01*
X132640993Y-103968828D01*
X132565535Y-103931616D01*
X132565531Y-103931615D01*
X132561349Y-103929552D01*
X132305353Y-103847607D01*
X132148377Y-103822042D01*
X132044669Y-103805152D01*
X132044668Y-103805152D01*
X132040057Y-103804401D01*
X131905673Y-103802642D01*
X131775965Y-103800944D01*
X131775962Y-103800944D01*
X131771288Y-103800883D01*
X131504952Y-103837129D01*
X131500462Y-103838438D01*
X131500456Y-103838439D01*
X131390555Y-103870473D01*
X131246899Y-103912345D01*
X131242652Y-103914303D01*
X131242649Y-103914304D01*
X131211654Y-103928593D01*
X131002798Y-104024877D01*
X130966865Y-104048436D01*
X130781924Y-104169688D01*
X130781919Y-104169692D01*
X130778011Y-104172254D01*
X130748067Y-104198980D01*
X130617522Y-104315496D01*
X130577477Y-104351237D01*
X130405602Y-104557895D01*
X130266160Y-104787688D01*
X130264351Y-104792002D01*
X130264350Y-104792004D01*
X130181143Y-104990431D01*
X130162215Y-105035568D01*
X130161064Y-105040100D01*
X130161063Y-105040103D01*
X130136205Y-105137984D01*
X130096051Y-105296089D01*
X130069121Y-105563528D01*
X128079500Y-105563528D01*
X128079500Y-104311000D01*
X128074273Y-104237921D01*
X128033096Y-104097684D01*
X128008574Y-104059528D01*
X127958949Y-103982309D01*
X127958947Y-103982306D01*
X127954077Y-103974729D01*
X127904859Y-103932081D01*
X127850431Y-103884918D01*
X127850428Y-103884916D01*
X127843619Y-103879016D01*
X127710670Y-103818300D01*
X127701755Y-103817018D01*
X127701754Y-103817018D01*
X127570448Y-103798139D01*
X127570441Y-103798138D01*
X127566000Y-103797500D01*
X124966000Y-103797500D01*
X124892921Y-103802727D01*
X124839884Y-103818300D01*
X124761330Y-103841365D01*
X124761328Y-103841366D01*
X124752684Y-103843904D01*
X124745105Y-103848775D01*
X124637309Y-103918051D01*
X124637306Y-103918053D01*
X124629729Y-103922923D01*
X124623828Y-103929733D01*
X124539918Y-104026569D01*
X124539916Y-104026572D01*
X124534016Y-104033381D01*
X124473300Y-104166330D01*
X124472018Y-104175245D01*
X124472018Y-104175246D01*
X124453139Y-104306552D01*
X124453138Y-104306559D01*
X124452500Y-104311000D01*
X124452500Y-104465736D01*
X124432498Y-104533857D01*
X124378842Y-104580350D01*
X124308568Y-104590454D01*
X124243988Y-104560960D01*
X124227550Y-104543742D01*
X124221507Y-104536076D01*
X124103052Y-104385817D01*
X123907273Y-104201646D01*
X123686421Y-104048436D01*
X123524993Y-103968828D01*
X123449535Y-103931616D01*
X123449531Y-103931615D01*
X123445349Y-103929552D01*
X123189353Y-103847607D01*
X123032377Y-103822042D01*
X122928669Y-103805152D01*
X122928668Y-103805152D01*
X122924057Y-103804401D01*
X122789673Y-103802642D01*
X122659965Y-103800944D01*
X122659962Y-103800944D01*
X122655288Y-103800883D01*
X122388952Y-103837129D01*
X122384462Y-103838438D01*
X122384456Y-103838439D01*
X122274555Y-103870473D01*
X122130899Y-103912345D01*
X122126652Y-103914303D01*
X122126649Y-103914304D01*
X122095654Y-103928593D01*
X121886798Y-104024877D01*
X121850865Y-104048436D01*
X121665924Y-104169688D01*
X121665919Y-104169692D01*
X121662011Y-104172254D01*
X121632067Y-104198980D01*
X121501522Y-104315496D01*
X121461477Y-104351237D01*
X121289602Y-104557895D01*
X121150160Y-104787688D01*
X121148351Y-104792002D01*
X121148350Y-104792004D01*
X121065143Y-104990431D01*
X121046215Y-105035568D01*
X121045064Y-105040100D01*
X121045063Y-105040103D01*
X121020205Y-105137984D01*
X120980051Y-105296089D01*
X120953121Y-105563528D01*
X118935500Y-105563528D01*
X118935500Y-104311000D01*
X118930273Y-104237921D01*
X118889096Y-104097684D01*
X118864574Y-104059528D01*
X118814949Y-103982309D01*
X118814947Y-103982306D01*
X118810077Y-103974729D01*
X118760859Y-103932081D01*
X118706431Y-103884918D01*
X118706428Y-103884916D01*
X118699619Y-103879016D01*
X118566670Y-103818300D01*
X118557755Y-103817018D01*
X118557754Y-103817018D01*
X118426448Y-103798139D01*
X118426441Y-103798138D01*
X118422000Y-103797500D01*
X115822000Y-103797500D01*
X115748921Y-103802727D01*
X115695884Y-103818300D01*
X115617330Y-103841365D01*
X115617328Y-103841366D01*
X115608684Y-103843904D01*
X115601105Y-103848775D01*
X115493309Y-103918051D01*
X115493306Y-103918053D01*
X115485729Y-103922923D01*
X115479828Y-103929733D01*
X115395918Y-104026569D01*
X115395916Y-104026572D01*
X115390016Y-104033381D01*
X115329300Y-104166330D01*
X115328018Y-104175245D01*
X115328018Y-104175246D01*
X115309139Y-104306552D01*
X115309138Y-104306559D01*
X115308500Y-104311000D01*
X115308500Y-104465736D01*
X115288498Y-104533857D01*
X115234842Y-104580350D01*
X115164568Y-104590454D01*
X115099988Y-104560960D01*
X115083550Y-104543742D01*
X115077507Y-104536076D01*
X114959052Y-104385817D01*
X114763273Y-104201646D01*
X114542421Y-104048436D01*
X114380993Y-103968828D01*
X114305535Y-103931616D01*
X114305531Y-103931615D01*
X114301349Y-103929552D01*
X114045353Y-103847607D01*
X113888377Y-103822042D01*
X113784669Y-103805152D01*
X113784668Y-103805152D01*
X113780057Y-103804401D01*
X113645673Y-103802642D01*
X113515965Y-103800944D01*
X113515962Y-103800944D01*
X113511288Y-103800883D01*
X113244952Y-103837129D01*
X113240462Y-103838438D01*
X113240456Y-103838439D01*
X113130555Y-103870473D01*
X112986899Y-103912345D01*
X112982652Y-103914303D01*
X112982649Y-103914304D01*
X112951654Y-103928593D01*
X112742798Y-104024877D01*
X112706865Y-104048436D01*
X112521924Y-104169688D01*
X112521919Y-104169692D01*
X112518011Y-104172254D01*
X112488067Y-104198980D01*
X112357522Y-104315496D01*
X112317477Y-104351237D01*
X112145602Y-104557895D01*
X112006160Y-104787688D01*
X112004351Y-104792002D01*
X112004350Y-104792004D01*
X111921143Y-104990431D01*
X111902215Y-105035568D01*
X111901064Y-105040100D01*
X111901063Y-105040103D01*
X111876205Y-105137984D01*
X111836051Y-105296089D01*
X111809121Y-105563528D01*
X109791500Y-105563528D01*
X109791500Y-104311000D01*
X109786273Y-104237921D01*
X109745096Y-104097684D01*
X109720574Y-104059528D01*
X109670949Y-103982309D01*
X109670947Y-103982306D01*
X109666077Y-103974729D01*
X109616859Y-103932081D01*
X109562431Y-103884918D01*
X109562428Y-103884916D01*
X109555619Y-103879016D01*
X109422670Y-103818300D01*
X109413755Y-103817018D01*
X109413754Y-103817018D01*
X109282448Y-103798139D01*
X109282441Y-103798138D01*
X109278000Y-103797500D01*
X106678000Y-103797500D01*
X106604921Y-103802727D01*
X106551884Y-103818300D01*
X106473330Y-103841365D01*
X106473328Y-103841366D01*
X106464684Y-103843904D01*
X106457105Y-103848775D01*
X106349309Y-103918051D01*
X106349306Y-103918053D01*
X106341729Y-103922923D01*
X106335828Y-103929733D01*
X106251918Y-104026569D01*
X106251916Y-104026572D01*
X106246016Y-104033381D01*
X106185300Y-104166330D01*
X106184018Y-104175245D01*
X106184018Y-104175246D01*
X106165139Y-104306552D01*
X106165138Y-104306559D01*
X106164500Y-104311000D01*
X106164500Y-104466541D01*
X106144498Y-104534662D01*
X106090842Y-104581155D01*
X106020568Y-104591259D01*
X105955988Y-104561765D01*
X105939551Y-104544548D01*
X105934946Y-104538707D01*
X105923020Y-104530236D01*
X105911488Y-104536722D01*
X104850022Y-105598188D01*
X104842408Y-105612132D01*
X104112356Y-105612132D01*
X104113592Y-105609868D01*
X104113461Y-105608035D01*
X104109210Y-105601420D01*
X103043866Y-104536076D01*
X103030558Y-104528809D01*
X103020519Y-104535931D01*
X103004998Y-104554593D01*
X102999587Y-104562177D01*
X102865027Y-104783924D01*
X102860798Y-104792224D01*
X102760498Y-105031412D01*
X102757537Y-105040262D01*
X102693697Y-105291637D01*
X102692075Y-105300834D01*
X102666090Y-105558887D01*
X102665845Y-105568212D01*
X99822000Y-105568212D01*
X99822000Y-104163739D01*
X103395154Y-104163739D01*
X103399729Y-104173519D01*
X104465188Y-105238978D01*
X104479132Y-105246592D01*
X104480965Y-105246461D01*
X104487580Y-105242210D01*
X105552299Y-104177491D01*
X105558683Y-104165801D01*
X105549272Y-104153691D01*
X105402003Y-104051527D01*
X105393976Y-104046799D01*
X105161350Y-103932081D01*
X105152717Y-103928593D01*
X104905681Y-103849516D01*
X104896630Y-103847343D01*
X104640625Y-103805650D01*
X104631336Y-103804838D01*
X104371996Y-103801443D01*
X104362684Y-103802013D01*
X104105696Y-103836987D01*
X104096560Y-103838928D01*
X103847567Y-103911504D01*
X103838824Y-103914772D01*
X103603286Y-104023357D01*
X103595131Y-104027877D01*
X103404290Y-104152999D01*
X103395154Y-104163739D01*
X99822000Y-104163739D01*
X99822000Y-102106000D01*
X141486500Y-102106000D01*
X141486500Y-104706000D01*
X141491727Y-104779079D01*
X141532904Y-104919316D01*
X141537775Y-104926895D01*
X141607051Y-105034691D01*
X141607053Y-105034694D01*
X141611923Y-105042271D01*
X141618733Y-105048172D01*
X141715569Y-105132082D01*
X141715572Y-105132084D01*
X141722381Y-105137984D01*
X141855330Y-105198700D01*
X141864245Y-105199982D01*
X141864246Y-105199982D01*
X141995552Y-105218861D01*
X141995559Y-105218862D01*
X142000000Y-105219500D01*
X142151913Y-105219500D01*
X142220034Y-105239502D01*
X142266527Y-105293158D01*
X142276631Y-105363432D01*
X142247137Y-105428012D01*
X142220997Y-105450872D01*
X142199930Y-105464684D01*
X142199925Y-105464688D01*
X142196011Y-105467254D01*
X142163080Y-105496646D01*
X142033689Y-105612132D01*
X141995477Y-105646237D01*
X141823602Y-105852895D01*
X141684160Y-106082688D01*
X141682351Y-106087002D01*
X141682350Y-106087004D01*
X141666305Y-106125268D01*
X141580215Y-106330568D01*
X141579064Y-106335100D01*
X141579063Y-106335103D01*
X141567574Y-106380341D01*
X141514051Y-106591089D01*
X141487121Y-106858528D01*
X141487345Y-106863194D01*
X141487345Y-106863200D01*
X141489855Y-106915448D01*
X141500018Y-107127010D01*
X141500931Y-107131600D01*
X141550467Y-107380635D01*
X141552456Y-107390637D01*
X141554035Y-107395035D01*
X141554037Y-107395042D01*
X141601147Y-107526254D01*
X141643285Y-107643617D01*
X141770510Y-107880393D01*
X141773301Y-107884130D01*
X141773305Y-107884137D01*
X141854944Y-107993464D01*
X141931334Y-108095763D01*
X141934643Y-108099043D01*
X141934648Y-108099049D01*
X142118909Y-108281708D01*
X142122226Y-108284996D01*
X142125988Y-108287754D01*
X142125991Y-108287757D01*
X142238339Y-108370134D01*
X142338991Y-108443935D01*
X142343122Y-108446109D01*
X142343123Y-108446109D01*
X142572734Y-108566913D01*
X142572740Y-108566915D01*
X142576869Y-108569088D01*
X142581276Y-108570627D01*
X142581283Y-108570630D01*
X142826216Y-108656164D01*
X142830632Y-108657706D01*
X143094706Y-108707843D01*
X143222198Y-108712852D01*
X143358622Y-108718212D01*
X143358627Y-108718212D01*
X143363290Y-108718395D01*
X143447656Y-108709156D01*
X143625831Y-108689643D01*
X143625837Y-108689642D01*
X143630484Y-108689133D01*
X143755709Y-108656164D01*
X143885895Y-108621889D01*
X143885897Y-108621888D01*
X143890418Y-108620698D01*
X144006954Y-108570630D01*
X144133087Y-108516439D01*
X144133089Y-108516438D01*
X144137381Y-108514594D01*
X144256028Y-108441173D01*
X144361976Y-108375611D01*
X144361980Y-108375608D01*
X144365949Y-108373152D01*
X144571099Y-108199480D01*
X144748325Y-107997392D01*
X144893735Y-107771327D01*
X145004133Y-107526254D01*
X145033011Y-107423861D01*
X145060695Y-107325698D01*
X145077093Y-107267554D01*
X145095567Y-107122337D01*
X145110617Y-107004041D01*
X145110617Y-107004037D01*
X145111015Y-107000911D01*
X145111229Y-106992757D01*
X145112408Y-106947712D01*
X145113500Y-106906000D01*
X145105924Y-106804049D01*
X145093926Y-106642600D01*
X145093925Y-106642596D01*
X145093580Y-106637948D01*
X145034259Y-106375784D01*
X144936838Y-106125268D01*
X144917204Y-106090915D01*
X144805779Y-105895961D01*
X144805777Y-105895959D01*
X144803460Y-105891904D01*
X144637052Y-105680817D01*
X144441273Y-105496646D01*
X144437435Y-105493984D01*
X144437427Y-105493977D01*
X144372631Y-105449027D01*
X144328061Y-105393764D01*
X144320444Y-105323177D01*
X144352198Y-105259678D01*
X144413242Y-105223426D01*
X144444451Y-105219500D01*
X144600000Y-105219500D01*
X144673079Y-105214273D01*
X144751165Y-105191345D01*
X144804670Y-105175635D01*
X144804672Y-105175634D01*
X144813316Y-105173096D01*
X144877135Y-105132082D01*
X144928691Y-105098949D01*
X144928694Y-105098947D01*
X144936271Y-105094077D01*
X144976048Y-105048172D01*
X145026082Y-104990431D01*
X145026084Y-104990428D01*
X145031984Y-104983619D01*
X145092700Y-104850670D01*
X145101135Y-104792004D01*
X145112861Y-104710448D01*
X145112862Y-104710441D01*
X145113500Y-104706000D01*
X145113500Y-102106000D01*
X145108273Y-102032921D01*
X145067096Y-101892684D01*
X145021393Y-101821569D01*
X144992949Y-101777309D01*
X144992947Y-101777306D01*
X144988077Y-101769729D01*
X144981267Y-101763828D01*
X144884431Y-101679918D01*
X144884428Y-101679916D01*
X144877619Y-101674016D01*
X144744670Y-101613300D01*
X144735755Y-101612018D01*
X144735754Y-101612018D01*
X144604448Y-101593139D01*
X144604441Y-101593138D01*
X144600000Y-101592500D01*
X142000000Y-101592500D01*
X141926921Y-101597727D01*
X141873884Y-101613300D01*
X141795330Y-101636365D01*
X141795328Y-101636366D01*
X141786684Y-101638904D01*
X141779105Y-101643775D01*
X141671309Y-101713051D01*
X141671306Y-101713053D01*
X141663729Y-101717923D01*
X141657828Y-101724733D01*
X141573918Y-101821569D01*
X141573916Y-101821572D01*
X141568016Y-101828381D01*
X141507300Y-101961330D01*
X141506018Y-101970245D01*
X141506018Y-101970246D01*
X141487139Y-102101552D01*
X141487138Y-102101559D01*
X141486500Y-102106000D01*
X99822000Y-102106000D01*
X99822000Y-95072196D01*
X111056895Y-95072196D01*
X111057744Y-95077742D01*
X111088453Y-95278426D01*
X111089529Y-95285460D01*
X111097556Y-95308904D01*
X111157116Y-95482865D01*
X111159413Y-95489575D01*
X111264338Y-95678088D01*
X111267891Y-95682428D01*
X111267893Y-95682432D01*
X111298372Y-95719670D01*
X111400987Y-95845041D01*
X111405250Y-95848682D01*
X111405251Y-95848683D01*
X111417835Y-95859431D01*
X111565042Y-95985158D01*
X111569887Y-95987989D01*
X111746470Y-96091176D01*
X111746473Y-96091177D01*
X111751317Y-96094008D01*
X111756587Y-96095937D01*
X111756588Y-96095937D01*
X111948659Y-96166225D01*
X111948663Y-96166226D01*
X111953923Y-96168151D01*
X111959439Y-96169114D01*
X111959444Y-96169115D01*
X112160933Y-96204280D01*
X112160934Y-96204280D01*
X112166457Y-96205244D01*
X112172063Y-96205215D01*
X112172067Y-96205215D01*
X112270301Y-96204700D01*
X112382200Y-96204114D01*
X112387718Y-96203091D01*
X112387721Y-96203091D01*
X112588815Y-96165821D01*
X112588816Y-96165821D01*
X112594334Y-96164798D01*
X112599579Y-96162816D01*
X112599583Y-96162815D01*
X112781674Y-96094008D01*
X112796153Y-96088537D01*
X112804949Y-96083273D01*
X112850804Y-96055829D01*
X112981277Y-95977742D01*
X112985497Y-95974060D01*
X112985502Y-95974057D01*
X113139626Y-95839606D01*
X113143856Y-95835916D01*
X113244130Y-95710754D01*
X113275244Y-95671918D01*
X113275247Y-95671913D01*
X113278750Y-95667541D01*
X113381695Y-95477939D01*
X113418286Y-95367299D01*
X113458667Y-95308904D01*
X113524207Y-95281610D01*
X113594099Y-95294083D01*
X113646153Y-95342362D01*
X113657121Y-95366049D01*
X113697116Y-95482865D01*
X113699413Y-95489575D01*
X113804338Y-95678088D01*
X113807891Y-95682428D01*
X113807893Y-95682432D01*
X113838372Y-95719670D01*
X113940987Y-95845041D01*
X113945250Y-95848682D01*
X113945251Y-95848683D01*
X113957835Y-95859431D01*
X114105042Y-95985158D01*
X114109887Y-95987989D01*
X114286470Y-96091176D01*
X114286473Y-96091177D01*
X114291317Y-96094008D01*
X114296587Y-96095937D01*
X114296588Y-96095937D01*
X114488659Y-96166225D01*
X114488663Y-96166226D01*
X114493923Y-96168151D01*
X114499439Y-96169114D01*
X114499444Y-96169115D01*
X114700933Y-96204280D01*
X114700934Y-96204280D01*
X114706457Y-96205244D01*
X114712063Y-96205215D01*
X114712067Y-96205215D01*
X114810301Y-96204700D01*
X114922200Y-96204114D01*
X114927718Y-96203091D01*
X114927721Y-96203091D01*
X115128815Y-96165821D01*
X115128816Y-96165821D01*
X115134334Y-96164798D01*
X115139579Y-96162816D01*
X115139583Y-96162815D01*
X115321674Y-96094008D01*
X115336153Y-96088537D01*
X115344949Y-96083273D01*
X115390804Y-96055829D01*
X115521277Y-95977742D01*
X115525497Y-95974060D01*
X115525502Y-95974057D01*
X115679626Y-95839606D01*
X115683856Y-95835916D01*
X115784130Y-95710754D01*
X115815244Y-95671918D01*
X115815247Y-95671913D01*
X115818750Y-95667541D01*
X115921695Y-95477939D01*
X115958286Y-95367299D01*
X115998667Y-95308904D01*
X116064207Y-95281610D01*
X116134099Y-95294083D01*
X116186153Y-95342362D01*
X116197121Y-95366049D01*
X116237116Y-95482865D01*
X116239413Y-95489575D01*
X116344338Y-95678088D01*
X116347891Y-95682428D01*
X116347893Y-95682432D01*
X116378372Y-95719670D01*
X116480987Y-95845041D01*
X116485250Y-95848682D01*
X116485251Y-95848683D01*
X116497835Y-95859431D01*
X116645042Y-95985158D01*
X116649887Y-95987989D01*
X116826470Y-96091176D01*
X116826473Y-96091177D01*
X116831317Y-96094008D01*
X116836587Y-96095937D01*
X116836588Y-96095937D01*
X117028659Y-96166225D01*
X117028663Y-96166226D01*
X117033923Y-96168151D01*
X117039439Y-96169114D01*
X117039444Y-96169115D01*
X117240933Y-96204280D01*
X117240934Y-96204280D01*
X117246457Y-96205244D01*
X117252063Y-96205215D01*
X117252067Y-96205215D01*
X117350301Y-96204700D01*
X117462200Y-96204114D01*
X117467718Y-96203091D01*
X117467721Y-96203091D01*
X117668815Y-96165821D01*
X117668816Y-96165821D01*
X117674334Y-96164798D01*
X117679579Y-96162816D01*
X117679583Y-96162815D01*
X117861674Y-96094008D01*
X117876153Y-96088537D01*
X117884949Y-96083273D01*
X117930804Y-96055829D01*
X118061277Y-95977742D01*
X118065497Y-95974060D01*
X118065502Y-95974057D01*
X118219626Y-95839606D01*
X118223856Y-95835916D01*
X118324130Y-95710754D01*
X118355244Y-95671918D01*
X118355247Y-95671913D01*
X118358750Y-95667541D01*
X118461695Y-95477939D01*
X118529438Y-95273104D01*
X118558032Y-95072196D01*
X120200895Y-95072196D01*
X120201744Y-95077742D01*
X120232453Y-95278426D01*
X120233529Y-95285460D01*
X120241556Y-95308904D01*
X120301116Y-95482865D01*
X120303413Y-95489575D01*
X120408338Y-95678088D01*
X120411891Y-95682428D01*
X120411893Y-95682432D01*
X120442372Y-95719670D01*
X120544987Y-95845041D01*
X120549250Y-95848682D01*
X120549251Y-95848683D01*
X120561835Y-95859431D01*
X120709042Y-95985158D01*
X120713887Y-95987989D01*
X120890470Y-96091176D01*
X120890473Y-96091177D01*
X120895317Y-96094008D01*
X120900587Y-96095937D01*
X120900588Y-96095937D01*
X121092659Y-96166225D01*
X121092663Y-96166226D01*
X121097923Y-96168151D01*
X121103439Y-96169114D01*
X121103444Y-96169115D01*
X121304933Y-96204280D01*
X121304934Y-96204280D01*
X121310457Y-96205244D01*
X121316063Y-96205215D01*
X121316067Y-96205215D01*
X121414301Y-96204700D01*
X121526200Y-96204114D01*
X121531718Y-96203091D01*
X121531721Y-96203091D01*
X121732815Y-96165821D01*
X121732816Y-96165821D01*
X121738334Y-96164798D01*
X121743579Y-96162816D01*
X121743583Y-96162815D01*
X121925674Y-96094008D01*
X121940153Y-96088537D01*
X121948949Y-96083273D01*
X121994804Y-96055829D01*
X122125277Y-95977742D01*
X122129497Y-95974060D01*
X122129502Y-95974057D01*
X122283626Y-95839606D01*
X122287856Y-95835916D01*
X122388130Y-95710754D01*
X122419244Y-95671918D01*
X122419247Y-95671913D01*
X122422750Y-95667541D01*
X122525695Y-95477939D01*
X122562286Y-95367299D01*
X122602667Y-95308904D01*
X122668207Y-95281610D01*
X122738099Y-95294083D01*
X122790153Y-95342362D01*
X122801121Y-95366049D01*
X122841116Y-95482865D01*
X122843413Y-95489575D01*
X122948338Y-95678088D01*
X122951891Y-95682428D01*
X122951893Y-95682432D01*
X122982372Y-95719670D01*
X123084987Y-95845041D01*
X123089250Y-95848682D01*
X123089251Y-95848683D01*
X123101835Y-95859431D01*
X123249042Y-95985158D01*
X123253887Y-95987989D01*
X123430470Y-96091176D01*
X123430473Y-96091177D01*
X123435317Y-96094008D01*
X123440587Y-96095937D01*
X123440588Y-96095937D01*
X123632659Y-96166225D01*
X123632663Y-96166226D01*
X123637923Y-96168151D01*
X123643439Y-96169114D01*
X123643444Y-96169115D01*
X123844933Y-96204280D01*
X123844934Y-96204280D01*
X123850457Y-96205244D01*
X123856063Y-96205215D01*
X123856067Y-96205215D01*
X123954301Y-96204700D01*
X124066200Y-96204114D01*
X124071718Y-96203091D01*
X124071721Y-96203091D01*
X124272815Y-96165821D01*
X124272816Y-96165821D01*
X124278334Y-96164798D01*
X124283579Y-96162816D01*
X124283583Y-96162815D01*
X124465674Y-96094008D01*
X124480153Y-96088537D01*
X124488949Y-96083273D01*
X124534804Y-96055829D01*
X124665277Y-95977742D01*
X124669497Y-95974060D01*
X124669502Y-95974057D01*
X124823626Y-95839606D01*
X124827856Y-95835916D01*
X124928130Y-95710754D01*
X124959244Y-95671918D01*
X124959247Y-95671913D01*
X124962750Y-95667541D01*
X125065695Y-95477939D01*
X125102286Y-95367299D01*
X125142667Y-95308904D01*
X125208207Y-95281610D01*
X125278099Y-95294083D01*
X125330153Y-95342362D01*
X125341121Y-95366049D01*
X125381116Y-95482865D01*
X125383413Y-95489575D01*
X125488338Y-95678088D01*
X125491891Y-95682428D01*
X125491893Y-95682432D01*
X125522372Y-95719670D01*
X125624987Y-95845041D01*
X125629250Y-95848682D01*
X125629251Y-95848683D01*
X125641835Y-95859431D01*
X125789042Y-95985158D01*
X125793887Y-95987989D01*
X125970470Y-96091176D01*
X125970473Y-96091177D01*
X125975317Y-96094008D01*
X125980587Y-96095937D01*
X125980588Y-96095937D01*
X126172659Y-96166225D01*
X126172663Y-96166226D01*
X126177923Y-96168151D01*
X126183439Y-96169114D01*
X126183444Y-96169115D01*
X126384933Y-96204280D01*
X126384934Y-96204280D01*
X126390457Y-96205244D01*
X126396063Y-96205215D01*
X126396067Y-96205215D01*
X126494301Y-96204700D01*
X126606200Y-96204114D01*
X126611718Y-96203091D01*
X126611721Y-96203091D01*
X126812815Y-96165821D01*
X126812816Y-96165821D01*
X126818334Y-96164798D01*
X126823579Y-96162816D01*
X126823583Y-96162815D01*
X127005674Y-96094008D01*
X127020153Y-96088537D01*
X127028949Y-96083273D01*
X127074804Y-96055829D01*
X127205277Y-95977742D01*
X127209497Y-95974060D01*
X127209502Y-95974057D01*
X127363626Y-95839606D01*
X127367856Y-95835916D01*
X127468130Y-95710754D01*
X127499244Y-95671918D01*
X127499247Y-95671913D01*
X127502750Y-95667541D01*
X127605695Y-95477939D01*
X127673438Y-95273104D01*
X127702032Y-95072196D01*
X129344895Y-95072196D01*
X129345744Y-95077742D01*
X129376453Y-95278426D01*
X129377529Y-95285460D01*
X129385556Y-95308904D01*
X129445116Y-95482865D01*
X129447413Y-95489575D01*
X129552338Y-95678088D01*
X129555891Y-95682428D01*
X129555893Y-95682432D01*
X129586372Y-95719670D01*
X129688987Y-95845041D01*
X129693250Y-95848682D01*
X129693251Y-95848683D01*
X129705835Y-95859431D01*
X129853042Y-95985158D01*
X129857887Y-95987989D01*
X130034470Y-96091176D01*
X130034473Y-96091177D01*
X130039317Y-96094008D01*
X130044587Y-96095937D01*
X130044588Y-96095937D01*
X130236659Y-96166225D01*
X130236663Y-96166226D01*
X130241923Y-96168151D01*
X130247439Y-96169114D01*
X130247444Y-96169115D01*
X130448933Y-96204280D01*
X130448934Y-96204280D01*
X130454457Y-96205244D01*
X130460063Y-96205215D01*
X130460067Y-96205215D01*
X130558301Y-96204700D01*
X130670200Y-96204114D01*
X130675718Y-96203091D01*
X130675721Y-96203091D01*
X130876815Y-96165821D01*
X130876816Y-96165821D01*
X130882334Y-96164798D01*
X130887579Y-96162816D01*
X130887583Y-96162815D01*
X131069674Y-96094008D01*
X131084153Y-96088537D01*
X131092949Y-96083273D01*
X131138804Y-96055829D01*
X131269277Y-95977742D01*
X131273497Y-95974060D01*
X131273502Y-95974057D01*
X131427626Y-95839606D01*
X131431856Y-95835916D01*
X131532130Y-95710754D01*
X131563244Y-95671918D01*
X131563247Y-95671913D01*
X131566750Y-95667541D01*
X131669695Y-95477939D01*
X131706286Y-95367299D01*
X131746667Y-95308904D01*
X131812207Y-95281610D01*
X131882099Y-95294083D01*
X131934153Y-95342362D01*
X131945121Y-95366049D01*
X131985116Y-95482865D01*
X131987413Y-95489575D01*
X132092338Y-95678088D01*
X132095891Y-95682428D01*
X132095893Y-95682432D01*
X132126372Y-95719670D01*
X132228987Y-95845041D01*
X132233250Y-95848682D01*
X132233251Y-95848683D01*
X132245835Y-95859431D01*
X132393042Y-95985158D01*
X132397887Y-95987989D01*
X132574470Y-96091176D01*
X132574473Y-96091177D01*
X132579317Y-96094008D01*
X132584587Y-96095937D01*
X132584588Y-96095937D01*
X132776659Y-96166225D01*
X132776663Y-96166226D01*
X132781923Y-96168151D01*
X132787439Y-96169114D01*
X132787444Y-96169115D01*
X132988933Y-96204280D01*
X132988934Y-96204280D01*
X132994457Y-96205244D01*
X133000063Y-96205215D01*
X133000067Y-96205215D01*
X133098301Y-96204700D01*
X133210200Y-96204114D01*
X133215718Y-96203091D01*
X133215721Y-96203091D01*
X133416815Y-96165821D01*
X133416816Y-96165821D01*
X133422334Y-96164798D01*
X133427579Y-96162816D01*
X133427583Y-96162815D01*
X133609674Y-96094008D01*
X133624153Y-96088537D01*
X133632949Y-96083273D01*
X133678804Y-96055829D01*
X133809277Y-95977742D01*
X133813497Y-95974060D01*
X133813502Y-95974057D01*
X133967626Y-95839606D01*
X133971856Y-95835916D01*
X134072130Y-95710754D01*
X134103244Y-95671918D01*
X134103247Y-95671913D01*
X134106750Y-95667541D01*
X134209695Y-95477939D01*
X134246286Y-95367299D01*
X134286667Y-95308904D01*
X134352207Y-95281610D01*
X134422099Y-95294083D01*
X134474153Y-95342362D01*
X134485121Y-95366049D01*
X134525116Y-95482865D01*
X134527413Y-95489575D01*
X134632338Y-95678088D01*
X134635891Y-95682428D01*
X134635893Y-95682432D01*
X134666372Y-95719670D01*
X134768987Y-95845041D01*
X134773250Y-95848682D01*
X134773251Y-95848683D01*
X134785835Y-95859431D01*
X134933042Y-95985158D01*
X134937887Y-95987989D01*
X135114470Y-96091176D01*
X135114473Y-96091177D01*
X135119317Y-96094008D01*
X135124587Y-96095937D01*
X135124588Y-96095937D01*
X135316659Y-96166225D01*
X135316663Y-96166226D01*
X135321923Y-96168151D01*
X135327439Y-96169114D01*
X135327444Y-96169115D01*
X135528933Y-96204280D01*
X135528934Y-96204280D01*
X135534457Y-96205244D01*
X135540063Y-96205215D01*
X135540067Y-96205215D01*
X135638301Y-96204700D01*
X135750200Y-96204114D01*
X135755718Y-96203091D01*
X135755721Y-96203091D01*
X135956815Y-96165821D01*
X135956816Y-96165821D01*
X135962334Y-96164798D01*
X135967579Y-96162816D01*
X135967583Y-96162815D01*
X136149674Y-96094008D01*
X136164153Y-96088537D01*
X136172949Y-96083273D01*
X136218804Y-96055829D01*
X136349277Y-95977742D01*
X136353497Y-95974060D01*
X136353502Y-95974057D01*
X136507626Y-95839606D01*
X136511856Y-95835916D01*
X136612130Y-95710754D01*
X136643244Y-95671918D01*
X136643247Y-95671913D01*
X136646750Y-95667541D01*
X136749695Y-95477939D01*
X136817438Y-95273104D01*
X136847837Y-95059510D01*
X136849500Y-94996000D01*
X136830321Y-94781108D01*
X136793158Y-94645260D01*
X136774874Y-94578424D01*
X136774873Y-94578420D01*
X136773392Y-94573008D01*
X136680510Y-94378278D01*
X136597186Y-94262319D01*
X136557890Y-94207632D01*
X136557885Y-94207627D01*
X136554614Y-94203074D01*
X136399680Y-94052933D01*
X136278358Y-93971408D01*
X136225261Y-93935728D01*
X136225255Y-93935725D01*
X136220608Y-93932602D01*
X136023057Y-93845883D01*
X135876376Y-93810668D01*
X135818729Y-93796828D01*
X135818728Y-93796828D01*
X135813272Y-93795518D01*
X135730801Y-93790763D01*
X135603490Y-93783422D01*
X135603487Y-93783422D01*
X135597883Y-93783099D01*
X135383699Y-93809018D01*
X135177490Y-93872456D01*
X135172510Y-93875026D01*
X135172506Y-93875028D01*
X134990757Y-93968836D01*
X134985774Y-93971408D01*
X134814611Y-94102746D01*
X134669411Y-94262319D01*
X134554764Y-94445083D01*
X134552674Y-94450283D01*
X134552670Y-94450290D01*
X134482353Y-94625210D01*
X134438387Y-94680955D01*
X134371262Y-94704080D01*
X134302290Y-94687243D01*
X134253370Y-94635791D01*
X134243912Y-94611463D01*
X134234873Y-94578422D01*
X134233392Y-94573008D01*
X134140510Y-94378278D01*
X134057186Y-94262319D01*
X134017890Y-94207632D01*
X134017885Y-94207627D01*
X134014614Y-94203074D01*
X133859680Y-94052933D01*
X133738358Y-93971408D01*
X133685261Y-93935728D01*
X133685255Y-93935725D01*
X133680608Y-93932602D01*
X133483057Y-93845883D01*
X133336376Y-93810668D01*
X133278729Y-93796828D01*
X133278728Y-93796828D01*
X133273272Y-93795518D01*
X133190801Y-93790763D01*
X133063490Y-93783422D01*
X133063487Y-93783422D01*
X133057883Y-93783099D01*
X132843699Y-93809018D01*
X132637490Y-93872456D01*
X132632510Y-93875026D01*
X132632506Y-93875028D01*
X132450757Y-93968836D01*
X132445774Y-93971408D01*
X132274611Y-94102746D01*
X132129411Y-94262319D01*
X132014764Y-94445083D01*
X132012674Y-94450283D01*
X132012670Y-94450290D01*
X131942353Y-94625210D01*
X131898387Y-94680955D01*
X131831262Y-94704080D01*
X131762290Y-94687243D01*
X131713370Y-94635791D01*
X131703912Y-94611463D01*
X131694873Y-94578422D01*
X131693392Y-94573008D01*
X131600510Y-94378278D01*
X131517186Y-94262319D01*
X131477890Y-94207632D01*
X131477885Y-94207627D01*
X131474614Y-94203074D01*
X131319680Y-94052933D01*
X131198358Y-93971408D01*
X131145261Y-93935728D01*
X131145255Y-93935725D01*
X131140608Y-93932602D01*
X130943057Y-93845883D01*
X130796376Y-93810668D01*
X130738729Y-93796828D01*
X130738728Y-93796828D01*
X130733272Y-93795518D01*
X130650801Y-93790763D01*
X130523490Y-93783422D01*
X130523487Y-93783422D01*
X130517883Y-93783099D01*
X130303699Y-93809018D01*
X130097490Y-93872456D01*
X130092510Y-93875026D01*
X130092506Y-93875028D01*
X129910757Y-93968836D01*
X129905774Y-93971408D01*
X129734611Y-94102746D01*
X129589411Y-94262319D01*
X129474764Y-94445083D01*
X129394293Y-94645260D01*
X129393156Y-94650751D01*
X129393155Y-94650754D01*
X129385599Y-94687243D01*
X129350542Y-94856524D01*
X129344895Y-95072196D01*
X127702032Y-95072196D01*
X127703837Y-95059510D01*
X127705500Y-94996000D01*
X127686321Y-94781108D01*
X127649158Y-94645260D01*
X127630874Y-94578424D01*
X127630873Y-94578420D01*
X127629392Y-94573008D01*
X127536510Y-94378278D01*
X127453186Y-94262319D01*
X127413890Y-94207632D01*
X127413885Y-94207627D01*
X127410614Y-94203074D01*
X127255680Y-94052933D01*
X127134358Y-93971408D01*
X127081261Y-93935728D01*
X127081255Y-93935725D01*
X127076608Y-93932602D01*
X126879057Y-93845883D01*
X126732376Y-93810668D01*
X126674729Y-93796828D01*
X126674728Y-93796828D01*
X126669272Y-93795518D01*
X126586801Y-93790763D01*
X126459490Y-93783422D01*
X126459487Y-93783422D01*
X126453883Y-93783099D01*
X126239699Y-93809018D01*
X126033490Y-93872456D01*
X126028510Y-93875026D01*
X126028506Y-93875028D01*
X125846757Y-93968836D01*
X125841774Y-93971408D01*
X125670611Y-94102746D01*
X125525411Y-94262319D01*
X125410764Y-94445083D01*
X125408674Y-94450283D01*
X125408670Y-94450290D01*
X125338353Y-94625210D01*
X125294387Y-94680955D01*
X125227262Y-94704080D01*
X125158290Y-94687243D01*
X125109370Y-94635791D01*
X125099912Y-94611463D01*
X125090873Y-94578422D01*
X125089392Y-94573008D01*
X124996510Y-94378278D01*
X124913186Y-94262319D01*
X124873890Y-94207632D01*
X124873885Y-94207627D01*
X124870614Y-94203074D01*
X124715680Y-94052933D01*
X124594358Y-93971408D01*
X124541261Y-93935728D01*
X124541255Y-93935725D01*
X124536608Y-93932602D01*
X124339057Y-93845883D01*
X124192376Y-93810668D01*
X124134729Y-93796828D01*
X124134728Y-93796828D01*
X124129272Y-93795518D01*
X124046801Y-93790763D01*
X123919490Y-93783422D01*
X123919487Y-93783422D01*
X123913883Y-93783099D01*
X123699699Y-93809018D01*
X123493490Y-93872456D01*
X123488510Y-93875026D01*
X123488506Y-93875028D01*
X123306757Y-93968836D01*
X123301774Y-93971408D01*
X123130611Y-94102746D01*
X122985411Y-94262319D01*
X122870764Y-94445083D01*
X122868674Y-94450283D01*
X122868670Y-94450290D01*
X122798353Y-94625210D01*
X122754387Y-94680955D01*
X122687262Y-94704080D01*
X122618290Y-94687243D01*
X122569370Y-94635791D01*
X122559912Y-94611463D01*
X122550873Y-94578422D01*
X122549392Y-94573008D01*
X122456510Y-94378278D01*
X122373186Y-94262319D01*
X122333890Y-94207632D01*
X122333885Y-94207627D01*
X122330614Y-94203074D01*
X122175680Y-94052933D01*
X122054358Y-93971408D01*
X122001261Y-93935728D01*
X122001255Y-93935725D01*
X121996608Y-93932602D01*
X121799057Y-93845883D01*
X121652376Y-93810668D01*
X121594729Y-93796828D01*
X121594728Y-93796828D01*
X121589272Y-93795518D01*
X121506801Y-93790763D01*
X121379490Y-93783422D01*
X121379487Y-93783422D01*
X121373883Y-93783099D01*
X121159699Y-93809018D01*
X120953490Y-93872456D01*
X120948510Y-93875026D01*
X120948506Y-93875028D01*
X120766757Y-93968836D01*
X120761774Y-93971408D01*
X120590611Y-94102746D01*
X120445411Y-94262319D01*
X120330764Y-94445083D01*
X120250293Y-94645260D01*
X120249156Y-94650751D01*
X120249155Y-94650754D01*
X120241599Y-94687243D01*
X120206542Y-94856524D01*
X120200895Y-95072196D01*
X118558032Y-95072196D01*
X118559837Y-95059510D01*
X118561500Y-94996000D01*
X118542321Y-94781108D01*
X118505158Y-94645260D01*
X118486874Y-94578424D01*
X118486873Y-94578420D01*
X118485392Y-94573008D01*
X118392510Y-94378278D01*
X118309186Y-94262319D01*
X118269890Y-94207632D01*
X118269885Y-94207627D01*
X118266614Y-94203074D01*
X118111680Y-94052933D01*
X117990358Y-93971408D01*
X117937261Y-93935728D01*
X117937255Y-93935725D01*
X117932608Y-93932602D01*
X117735057Y-93845883D01*
X117588376Y-93810668D01*
X117530729Y-93796828D01*
X117530728Y-93796828D01*
X117525272Y-93795518D01*
X117442801Y-93790763D01*
X117315490Y-93783422D01*
X117315487Y-93783422D01*
X117309883Y-93783099D01*
X117095699Y-93809018D01*
X116889490Y-93872456D01*
X116884510Y-93875026D01*
X116884506Y-93875028D01*
X116702757Y-93968836D01*
X116697774Y-93971408D01*
X116526611Y-94102746D01*
X116381411Y-94262319D01*
X116266764Y-94445083D01*
X116264674Y-94450283D01*
X116264670Y-94450290D01*
X116194353Y-94625210D01*
X116150387Y-94680955D01*
X116083262Y-94704080D01*
X116014290Y-94687243D01*
X115965370Y-94635791D01*
X115955912Y-94611463D01*
X115946873Y-94578422D01*
X115945392Y-94573008D01*
X115852510Y-94378278D01*
X115769186Y-94262319D01*
X115729890Y-94207632D01*
X115729885Y-94207627D01*
X115726614Y-94203074D01*
X115571680Y-94052933D01*
X115450358Y-93971408D01*
X115397261Y-93935728D01*
X115397255Y-93935725D01*
X115392608Y-93932602D01*
X115195057Y-93845883D01*
X115048376Y-93810668D01*
X114990729Y-93796828D01*
X114990728Y-93796828D01*
X114985272Y-93795518D01*
X114902801Y-93790763D01*
X114775490Y-93783422D01*
X114775487Y-93783422D01*
X114769883Y-93783099D01*
X114555699Y-93809018D01*
X114349490Y-93872456D01*
X114344510Y-93875026D01*
X114344506Y-93875028D01*
X114162757Y-93968836D01*
X114157774Y-93971408D01*
X113986611Y-94102746D01*
X113841411Y-94262319D01*
X113726764Y-94445083D01*
X113724674Y-94450283D01*
X113724670Y-94450290D01*
X113654353Y-94625210D01*
X113610387Y-94680955D01*
X113543262Y-94704080D01*
X113474290Y-94687243D01*
X113425370Y-94635791D01*
X113415912Y-94611463D01*
X113406873Y-94578422D01*
X113405392Y-94573008D01*
X113312510Y-94378278D01*
X113229186Y-94262319D01*
X113189890Y-94207632D01*
X113189885Y-94207627D01*
X113186614Y-94203074D01*
X113031680Y-94052933D01*
X112910358Y-93971408D01*
X112857261Y-93935728D01*
X112857255Y-93935725D01*
X112852608Y-93932602D01*
X112655057Y-93845883D01*
X112508376Y-93810668D01*
X112450729Y-93796828D01*
X112450728Y-93796828D01*
X112445272Y-93795518D01*
X112362801Y-93790763D01*
X112235490Y-93783422D01*
X112235487Y-93783422D01*
X112229883Y-93783099D01*
X112015699Y-93809018D01*
X111809490Y-93872456D01*
X111804510Y-93875026D01*
X111804506Y-93875028D01*
X111622757Y-93968836D01*
X111617774Y-93971408D01*
X111446611Y-94102746D01*
X111301411Y-94262319D01*
X111186764Y-94445083D01*
X111106293Y-94645260D01*
X111105156Y-94650751D01*
X111105155Y-94650754D01*
X111097599Y-94687243D01*
X111062542Y-94856524D01*
X111056895Y-95072196D01*
X99822000Y-95072196D01*
X99822000Y-92453399D01*
X104731753Y-92453399D01*
X104753232Y-92542524D01*
X104757121Y-92553819D01*
X104839664Y-92735362D01*
X104845611Y-92745704D01*
X104960999Y-92908371D01*
X104968792Y-92917400D01*
X105112856Y-93055311D01*
X105122221Y-93062707D01*
X105289760Y-93170886D01*
X105300364Y-93176382D01*
X105485322Y-93250922D01*
X105496781Y-93254316D01*
X105693944Y-93292820D01*
X105702912Y-93293909D01*
X105703228Y-93293925D01*
X105706321Y-93294000D01*
X105809885Y-93294000D01*
X105825124Y-93289525D01*
X105826329Y-93288135D01*
X105828000Y-93280452D01*
X105828000Y-92458115D01*
X105826659Y-92453548D01*
X106336000Y-92453548D01*
X106336000Y-93275885D01*
X106340475Y-93291124D01*
X106341865Y-93292329D01*
X106349548Y-93294000D01*
X106406413Y-93294000D01*
X106412390Y-93293715D01*
X106561486Y-93279490D01*
X106573220Y-93277231D01*
X106764584Y-93221091D01*
X106775660Y-93216661D01*
X106952956Y-93125348D01*
X106963002Y-93118898D01*
X107119829Y-92995709D01*
X107128479Y-92987472D01*
X107139302Y-92975000D01*
X141491500Y-92975000D01*
X141491500Y-95575000D01*
X141496727Y-95648079D01*
X141537904Y-95788316D01*
X141542775Y-95795895D01*
X141612051Y-95903691D01*
X141612053Y-95903694D01*
X141616923Y-95911271D01*
X141623733Y-95917172D01*
X141720569Y-96001082D01*
X141720572Y-96001084D01*
X141727381Y-96006984D01*
X141860330Y-96067700D01*
X141869245Y-96068982D01*
X141869246Y-96068982D01*
X142000552Y-96087861D01*
X142000559Y-96087862D01*
X142005000Y-96088500D01*
X142156913Y-96088500D01*
X142225034Y-96108502D01*
X142271527Y-96162158D01*
X142281631Y-96232432D01*
X142252137Y-96297012D01*
X142225997Y-96319872D01*
X142204930Y-96333684D01*
X142204925Y-96333688D01*
X142201011Y-96336254D01*
X142000477Y-96515237D01*
X141828602Y-96721895D01*
X141689160Y-96951688D01*
X141687351Y-96956002D01*
X141687350Y-96956004D01*
X141671305Y-96994268D01*
X141585215Y-97199568D01*
X141584064Y-97204100D01*
X141584063Y-97204103D01*
X141572574Y-97249341D01*
X141519051Y-97460089D01*
X141492121Y-97727528D01*
X141505018Y-97996010D01*
X141505931Y-98000600D01*
X141532974Y-98136554D01*
X141557456Y-98259637D01*
X141559035Y-98264035D01*
X141559037Y-98264042D01*
X141606147Y-98395254D01*
X141648285Y-98512617D01*
X141775510Y-98749393D01*
X141778301Y-98753130D01*
X141778305Y-98753137D01*
X141859944Y-98862464D01*
X141936334Y-98964763D01*
X141939643Y-98968043D01*
X141939648Y-98968049D01*
X142123909Y-99150708D01*
X142127226Y-99153996D01*
X142130988Y-99156754D01*
X142130991Y-99156757D01*
X142243339Y-99239134D01*
X142343991Y-99312935D01*
X142348122Y-99315109D01*
X142348123Y-99315109D01*
X142577734Y-99435913D01*
X142577740Y-99435915D01*
X142581869Y-99438088D01*
X142586276Y-99439627D01*
X142586283Y-99439630D01*
X142831216Y-99525164D01*
X142835632Y-99526706D01*
X143099706Y-99576843D01*
X143227198Y-99581852D01*
X143363622Y-99587212D01*
X143363627Y-99587212D01*
X143368290Y-99587395D01*
X143452656Y-99578156D01*
X143630831Y-99558643D01*
X143630837Y-99558642D01*
X143635484Y-99558133D01*
X143760709Y-99525164D01*
X143890895Y-99490889D01*
X143890897Y-99490888D01*
X143895418Y-99489698D01*
X144011954Y-99439630D01*
X144138087Y-99385439D01*
X144138089Y-99385438D01*
X144142381Y-99383594D01*
X144261028Y-99310173D01*
X144366976Y-99244611D01*
X144366980Y-99244608D01*
X144370949Y-99242152D01*
X144576099Y-99068480D01*
X144753325Y-98866392D01*
X144898735Y-98640327D01*
X145009133Y-98395254D01*
X145047381Y-98259637D01*
X145080824Y-98141053D01*
X145082093Y-98136554D01*
X145116015Y-97869911D01*
X145118500Y-97775000D01*
X145098580Y-97506948D01*
X145039259Y-97244784D01*
X144941838Y-96994268D01*
X144939520Y-96990212D01*
X144810779Y-96764961D01*
X144810777Y-96764959D01*
X144808460Y-96760904D01*
X144642052Y-96549817D01*
X144446273Y-96365646D01*
X144442435Y-96362984D01*
X144442427Y-96362977D01*
X144377631Y-96318027D01*
X144333061Y-96262764D01*
X144325444Y-96192177D01*
X144357198Y-96128678D01*
X144418242Y-96092426D01*
X144449451Y-96088500D01*
X144605000Y-96088500D01*
X144678079Y-96083273D01*
X144756165Y-96060345D01*
X144809670Y-96044635D01*
X144809672Y-96044634D01*
X144818316Y-96042096D01*
X144882135Y-96001082D01*
X144933691Y-95967949D01*
X144933694Y-95967947D01*
X144941271Y-95963077D01*
X144981048Y-95917172D01*
X145031082Y-95859431D01*
X145031084Y-95859428D01*
X145036984Y-95852619D01*
X145097700Y-95719670D01*
X145103054Y-95682432D01*
X145117861Y-95579448D01*
X145117862Y-95579441D01*
X145118500Y-95575000D01*
X145118500Y-92975000D01*
X145113273Y-92901921D01*
X145072096Y-92761684D01*
X145026393Y-92690569D01*
X144997949Y-92646309D01*
X144997947Y-92646306D01*
X144993077Y-92638729D01*
X144986267Y-92632828D01*
X144889431Y-92548918D01*
X144889428Y-92548916D01*
X144882619Y-92543016D01*
X144749670Y-92482300D01*
X144740755Y-92481018D01*
X144740754Y-92481018D01*
X144609448Y-92462139D01*
X144609441Y-92462138D01*
X144605000Y-92461500D01*
X142005000Y-92461500D01*
X141931921Y-92466727D01*
X141878884Y-92482300D01*
X141800330Y-92505365D01*
X141800328Y-92505366D01*
X141791684Y-92507904D01*
X141784105Y-92512775D01*
X141676309Y-92582051D01*
X141676306Y-92582053D01*
X141668729Y-92586923D01*
X141662828Y-92593733D01*
X141578918Y-92690569D01*
X141578916Y-92690572D01*
X141573016Y-92697381D01*
X141569272Y-92705579D01*
X141550948Y-92745704D01*
X141512300Y-92830330D01*
X141511018Y-92839245D01*
X141511018Y-92839246D01*
X141492139Y-92970552D01*
X141492138Y-92970559D01*
X141491500Y-92975000D01*
X107139302Y-92975000D01*
X107259179Y-92836853D01*
X107266116Y-92827127D01*
X107365974Y-92654517D01*
X107370948Y-92643653D01*
X107436368Y-92455264D01*
X107436606Y-92454284D01*
X107435139Y-92443992D01*
X107421572Y-92440000D01*
X106354115Y-92440000D01*
X106338876Y-92444475D01*
X106337671Y-92445865D01*
X106336000Y-92453548D01*
X105826659Y-92453548D01*
X105823525Y-92442876D01*
X105822135Y-92441671D01*
X105814452Y-92440000D01*
X104746639Y-92440000D01*
X104733108Y-92443973D01*
X104731753Y-92453399D01*
X99822000Y-92453399D01*
X99822000Y-89779978D01*
X104698500Y-89779978D01*
X104698500Y-90578886D01*
X104713978Y-90711643D01*
X104774313Y-90877864D01*
X104871269Y-91025747D01*
X104999645Y-91147358D01*
X105005972Y-91151033D01*
X105005976Y-91151036D01*
X105032170Y-91166250D01*
X105081029Y-91217761D01*
X105094283Y-91287509D01*
X105067723Y-91353351D01*
X105046720Y-91374288D01*
X105044174Y-91376288D01*
X105035521Y-91384528D01*
X104904821Y-91535147D01*
X104897884Y-91544873D01*
X104798026Y-91717483D01*
X104793052Y-91728347D01*
X104727632Y-91916736D01*
X104727394Y-91917716D01*
X104728861Y-91928008D01*
X104742428Y-91932000D01*
X107417361Y-91932000D01*
X107430892Y-91928027D01*
X107432247Y-91918601D01*
X107410768Y-91829476D01*
X107406879Y-91818181D01*
X107324336Y-91636638D01*
X107318389Y-91626296D01*
X107203001Y-91463629D01*
X107195208Y-91454601D01*
X107103882Y-91367175D01*
X107068506Y-91305620D01*
X107072025Y-91234710D01*
X107113322Y-91176960D01*
X107121928Y-91170785D01*
X107165337Y-91142324D01*
X107196747Y-91121731D01*
X107318358Y-90993355D01*
X107407175Y-90840445D01*
X107458433Y-90671204D01*
X107465500Y-90592022D01*
X107465500Y-89793114D01*
X107450022Y-89660357D01*
X107389687Y-89494136D01*
X107317228Y-89383617D01*
X107296743Y-89352372D01*
X107296742Y-89352371D01*
X107292731Y-89346253D01*
X107164355Y-89224642D01*
X107011445Y-89135825D01*
X106842204Y-89084567D01*
X106835764Y-89083992D01*
X106835763Y-89083992D01*
X106765815Y-89077749D01*
X106765809Y-89077749D01*
X106763022Y-89077500D01*
X105414114Y-89077500D01*
X105318894Y-89088602D01*
X105288629Y-89092130D01*
X105288628Y-89092130D01*
X105281357Y-89092978D01*
X105274479Y-89095474D01*
X105274477Y-89095475D01*
X105169161Y-89133703D01*
X105115136Y-89153313D01*
X104967253Y-89250269D01*
X104845642Y-89378645D01*
X104756825Y-89531555D01*
X104705567Y-89700796D01*
X104698500Y-89779978D01*
X99822000Y-89779978D01*
X99822000Y-87452196D01*
X111056895Y-87452196D01*
X111057744Y-87457742D01*
X111088453Y-87658426D01*
X111089529Y-87665460D01*
X111097556Y-87688904D01*
X111157116Y-87862865D01*
X111159413Y-87869575D01*
X111264338Y-88058088D01*
X111267891Y-88062428D01*
X111267893Y-88062432D01*
X111311561Y-88115784D01*
X111400987Y-88225041D01*
X111565042Y-88365158D01*
X111630117Y-88403185D01*
X111746470Y-88471176D01*
X111746473Y-88471177D01*
X111751317Y-88474008D01*
X111756587Y-88475937D01*
X111756588Y-88475937D01*
X111948659Y-88546225D01*
X111948663Y-88546226D01*
X111953923Y-88548151D01*
X111959439Y-88549114D01*
X111959444Y-88549115D01*
X112160933Y-88584280D01*
X112160934Y-88584280D01*
X112166457Y-88585244D01*
X112172063Y-88585215D01*
X112172067Y-88585215D01*
X112270301Y-88584700D01*
X112382200Y-88584114D01*
X112387718Y-88583091D01*
X112387721Y-88583091D01*
X112588815Y-88545821D01*
X112588816Y-88545821D01*
X112594334Y-88544798D01*
X112599579Y-88542816D01*
X112599583Y-88542815D01*
X112781674Y-88474008D01*
X112796153Y-88468537D01*
X112981277Y-88357742D01*
X112985497Y-88354060D01*
X112985502Y-88354057D01*
X113139626Y-88219606D01*
X113143856Y-88215916D01*
X113224077Y-88115784D01*
X113275244Y-88051918D01*
X113275247Y-88051913D01*
X113278750Y-88047541D01*
X113381695Y-87857939D01*
X113418286Y-87747299D01*
X113458667Y-87688904D01*
X113524207Y-87661610D01*
X113594099Y-87674083D01*
X113646153Y-87722362D01*
X113657121Y-87746049D01*
X113697116Y-87862865D01*
X113699413Y-87869575D01*
X113804338Y-88058088D01*
X113807891Y-88062428D01*
X113807893Y-88062432D01*
X113851561Y-88115784D01*
X113940987Y-88225041D01*
X114105042Y-88365158D01*
X114170117Y-88403185D01*
X114286470Y-88471176D01*
X114286473Y-88471177D01*
X114291317Y-88474008D01*
X114296587Y-88475937D01*
X114296588Y-88475937D01*
X114488659Y-88546225D01*
X114488663Y-88546226D01*
X114493923Y-88548151D01*
X114499439Y-88549114D01*
X114499444Y-88549115D01*
X114700933Y-88584280D01*
X114700934Y-88584280D01*
X114706457Y-88585244D01*
X114712063Y-88585215D01*
X114712067Y-88585215D01*
X114810301Y-88584700D01*
X114922200Y-88584114D01*
X114927718Y-88583091D01*
X114927721Y-88583091D01*
X115128815Y-88545821D01*
X115128816Y-88545821D01*
X115134334Y-88544798D01*
X115139579Y-88542816D01*
X115139583Y-88542815D01*
X115321674Y-88474008D01*
X115336153Y-88468537D01*
X115521277Y-88357742D01*
X115525497Y-88354060D01*
X115525502Y-88354057D01*
X115679626Y-88219606D01*
X115683856Y-88215916D01*
X115764077Y-88115784D01*
X115815244Y-88051918D01*
X115815247Y-88051913D01*
X115818750Y-88047541D01*
X115921695Y-87857939D01*
X115958286Y-87747299D01*
X115998667Y-87688904D01*
X116064207Y-87661610D01*
X116134099Y-87674083D01*
X116186153Y-87722362D01*
X116197121Y-87746049D01*
X116237116Y-87862865D01*
X116239413Y-87869575D01*
X116344338Y-88058088D01*
X116347891Y-88062428D01*
X116347893Y-88062432D01*
X116391561Y-88115784D01*
X116480987Y-88225041D01*
X116645042Y-88365158D01*
X116710117Y-88403185D01*
X116826470Y-88471176D01*
X116826473Y-88471177D01*
X116831317Y-88474008D01*
X116836587Y-88475937D01*
X116836588Y-88475937D01*
X117028659Y-88546225D01*
X117028663Y-88546226D01*
X117033923Y-88548151D01*
X117039439Y-88549114D01*
X117039444Y-88549115D01*
X117240933Y-88584280D01*
X117240934Y-88584280D01*
X117246457Y-88585244D01*
X117252063Y-88585215D01*
X117252067Y-88585215D01*
X117350301Y-88584700D01*
X117462200Y-88584114D01*
X117467718Y-88583091D01*
X117467721Y-88583091D01*
X117668815Y-88545821D01*
X117668816Y-88545821D01*
X117674334Y-88544798D01*
X117679579Y-88542816D01*
X117679583Y-88542815D01*
X117861674Y-88474008D01*
X117876153Y-88468537D01*
X118061277Y-88357742D01*
X118065497Y-88354060D01*
X118065502Y-88354057D01*
X118219626Y-88219606D01*
X118223856Y-88215916D01*
X118304077Y-88115784D01*
X118355244Y-88051918D01*
X118355247Y-88051913D01*
X118358750Y-88047541D01*
X118461695Y-87857939D01*
X118529438Y-87653104D01*
X118558032Y-87452196D01*
X120200895Y-87452196D01*
X120201744Y-87457742D01*
X120232453Y-87658426D01*
X120233529Y-87665460D01*
X120241556Y-87688904D01*
X120301116Y-87862865D01*
X120303413Y-87869575D01*
X120408338Y-88058088D01*
X120411891Y-88062428D01*
X120411893Y-88062432D01*
X120455561Y-88115784D01*
X120544987Y-88225041D01*
X120709042Y-88365158D01*
X120774117Y-88403185D01*
X120890470Y-88471176D01*
X120890473Y-88471177D01*
X120895317Y-88474008D01*
X120900587Y-88475937D01*
X120900588Y-88475937D01*
X121092659Y-88546225D01*
X121092663Y-88546226D01*
X121097923Y-88548151D01*
X121103439Y-88549114D01*
X121103444Y-88549115D01*
X121304933Y-88584280D01*
X121304934Y-88584280D01*
X121310457Y-88585244D01*
X121316063Y-88585215D01*
X121316067Y-88585215D01*
X121414301Y-88584700D01*
X121526200Y-88584114D01*
X121531718Y-88583091D01*
X121531721Y-88583091D01*
X121732815Y-88545821D01*
X121732816Y-88545821D01*
X121738334Y-88544798D01*
X121743579Y-88542816D01*
X121743583Y-88542815D01*
X121925674Y-88474008D01*
X121940153Y-88468537D01*
X122125277Y-88357742D01*
X122129497Y-88354060D01*
X122129502Y-88354057D01*
X122283626Y-88219606D01*
X122287856Y-88215916D01*
X122368077Y-88115784D01*
X122419244Y-88051918D01*
X122419247Y-88051913D01*
X122422750Y-88047541D01*
X122525695Y-87857939D01*
X122562286Y-87747299D01*
X122602667Y-87688904D01*
X122668207Y-87661610D01*
X122738099Y-87674083D01*
X122790153Y-87722362D01*
X122801121Y-87746049D01*
X122841116Y-87862865D01*
X122843413Y-87869575D01*
X122948338Y-88058088D01*
X122951891Y-88062428D01*
X122951893Y-88062432D01*
X122995561Y-88115784D01*
X123084987Y-88225041D01*
X123249042Y-88365158D01*
X123314117Y-88403185D01*
X123430470Y-88471176D01*
X123430473Y-88471177D01*
X123435317Y-88474008D01*
X123440587Y-88475937D01*
X123440588Y-88475937D01*
X123632659Y-88546225D01*
X123632663Y-88546226D01*
X123637923Y-88548151D01*
X123643439Y-88549114D01*
X123643444Y-88549115D01*
X123844933Y-88584280D01*
X123844934Y-88584280D01*
X123850457Y-88585244D01*
X123856063Y-88585215D01*
X123856067Y-88585215D01*
X123954301Y-88584700D01*
X124066200Y-88584114D01*
X124071718Y-88583091D01*
X124071721Y-88583091D01*
X124272815Y-88545821D01*
X124272816Y-88545821D01*
X124278334Y-88544798D01*
X124283579Y-88542816D01*
X124283583Y-88542815D01*
X124465674Y-88474008D01*
X124480153Y-88468537D01*
X124665277Y-88357742D01*
X124669497Y-88354060D01*
X124669502Y-88354057D01*
X124823626Y-88219606D01*
X124827856Y-88215916D01*
X124908077Y-88115784D01*
X124959244Y-88051918D01*
X124959247Y-88051913D01*
X124962750Y-88047541D01*
X125065695Y-87857939D01*
X125102286Y-87747299D01*
X125142667Y-87688904D01*
X125208207Y-87661610D01*
X125278099Y-87674083D01*
X125330153Y-87722362D01*
X125341121Y-87746049D01*
X125381116Y-87862865D01*
X125383413Y-87869575D01*
X125488338Y-88058088D01*
X125491891Y-88062428D01*
X125491893Y-88062432D01*
X125535561Y-88115784D01*
X125624987Y-88225041D01*
X125789042Y-88365158D01*
X125854117Y-88403185D01*
X125970470Y-88471176D01*
X125970473Y-88471177D01*
X125975317Y-88474008D01*
X125980587Y-88475937D01*
X125980588Y-88475937D01*
X126172659Y-88546225D01*
X126172663Y-88546226D01*
X126177923Y-88548151D01*
X126183439Y-88549114D01*
X126183444Y-88549115D01*
X126384933Y-88584280D01*
X126384934Y-88584280D01*
X126390457Y-88585244D01*
X126396063Y-88585215D01*
X126396067Y-88585215D01*
X126494301Y-88584700D01*
X126606200Y-88584114D01*
X126611718Y-88583091D01*
X126611721Y-88583091D01*
X126812815Y-88545821D01*
X126812816Y-88545821D01*
X126818334Y-88544798D01*
X126823579Y-88542816D01*
X126823583Y-88542815D01*
X127005674Y-88474008D01*
X127020153Y-88468537D01*
X127205277Y-88357742D01*
X127209497Y-88354060D01*
X127209502Y-88354057D01*
X127363626Y-88219606D01*
X127367856Y-88215916D01*
X127448077Y-88115784D01*
X127499244Y-88051918D01*
X127499247Y-88051913D01*
X127502750Y-88047541D01*
X127605695Y-87857939D01*
X127673438Y-87653104D01*
X127702032Y-87452196D01*
X129344895Y-87452196D01*
X129345744Y-87457742D01*
X129376453Y-87658426D01*
X129377529Y-87665460D01*
X129385556Y-87688904D01*
X129445116Y-87862865D01*
X129447413Y-87869575D01*
X129552338Y-88058088D01*
X129555891Y-88062428D01*
X129555893Y-88062432D01*
X129599561Y-88115784D01*
X129688987Y-88225041D01*
X129853042Y-88365158D01*
X129918117Y-88403185D01*
X130034470Y-88471176D01*
X130034473Y-88471177D01*
X130039317Y-88474008D01*
X130044587Y-88475937D01*
X130044588Y-88475937D01*
X130236659Y-88546225D01*
X130236663Y-88546226D01*
X130241923Y-88548151D01*
X130247439Y-88549114D01*
X130247444Y-88549115D01*
X130448933Y-88584280D01*
X130448934Y-88584280D01*
X130454457Y-88585244D01*
X130460063Y-88585215D01*
X130460067Y-88585215D01*
X130558301Y-88584700D01*
X130670200Y-88584114D01*
X130675718Y-88583091D01*
X130675721Y-88583091D01*
X130876815Y-88545821D01*
X130876816Y-88545821D01*
X130882334Y-88544798D01*
X130887579Y-88542816D01*
X130887583Y-88542815D01*
X131069674Y-88474008D01*
X131084153Y-88468537D01*
X131269277Y-88357742D01*
X131273497Y-88354060D01*
X131273502Y-88354057D01*
X131427626Y-88219606D01*
X131431856Y-88215916D01*
X131512077Y-88115784D01*
X131563244Y-88051918D01*
X131563247Y-88051913D01*
X131566750Y-88047541D01*
X131669695Y-87857939D01*
X131706286Y-87747299D01*
X131746667Y-87688904D01*
X131812207Y-87661610D01*
X131882099Y-87674083D01*
X131934153Y-87722362D01*
X131945121Y-87746049D01*
X131985116Y-87862865D01*
X131987413Y-87869575D01*
X132092338Y-88058088D01*
X132095891Y-88062428D01*
X132095893Y-88062432D01*
X132139561Y-88115784D01*
X132228987Y-88225041D01*
X132393042Y-88365158D01*
X132458117Y-88403185D01*
X132574470Y-88471176D01*
X132574473Y-88471177D01*
X132579317Y-88474008D01*
X132584587Y-88475937D01*
X132584588Y-88475937D01*
X132776659Y-88546225D01*
X132776663Y-88546226D01*
X132781923Y-88548151D01*
X132787439Y-88549114D01*
X132787444Y-88549115D01*
X132988933Y-88584280D01*
X132988934Y-88584280D01*
X132994457Y-88585244D01*
X133000063Y-88585215D01*
X133000067Y-88585215D01*
X133098301Y-88584700D01*
X133210200Y-88584114D01*
X133215718Y-88583091D01*
X133215721Y-88583091D01*
X133416815Y-88545821D01*
X133416816Y-88545821D01*
X133422334Y-88544798D01*
X133427579Y-88542816D01*
X133427583Y-88542815D01*
X133609674Y-88474008D01*
X133624153Y-88468537D01*
X133809277Y-88357742D01*
X133813497Y-88354060D01*
X133813502Y-88354057D01*
X133967626Y-88219606D01*
X133971856Y-88215916D01*
X134052077Y-88115784D01*
X134103244Y-88051918D01*
X134103247Y-88051913D01*
X134106750Y-88047541D01*
X134209695Y-87857939D01*
X134246286Y-87747299D01*
X134286667Y-87688904D01*
X134352207Y-87661610D01*
X134422099Y-87674083D01*
X134474153Y-87722362D01*
X134485121Y-87746049D01*
X134525116Y-87862865D01*
X134527413Y-87869575D01*
X134632338Y-88058088D01*
X134635891Y-88062428D01*
X134635893Y-88062432D01*
X134679561Y-88115784D01*
X134768987Y-88225041D01*
X134933042Y-88365158D01*
X134998117Y-88403185D01*
X135114470Y-88471176D01*
X135114473Y-88471177D01*
X135119317Y-88474008D01*
X135124587Y-88475937D01*
X135124588Y-88475937D01*
X135316659Y-88546225D01*
X135316663Y-88546226D01*
X135321923Y-88548151D01*
X135327439Y-88549114D01*
X135327444Y-88549115D01*
X135528933Y-88584280D01*
X135528934Y-88584280D01*
X135534457Y-88585244D01*
X135540063Y-88585215D01*
X135540067Y-88585215D01*
X135638301Y-88584700D01*
X135750200Y-88584114D01*
X135755718Y-88583091D01*
X135755721Y-88583091D01*
X135956815Y-88545821D01*
X135956816Y-88545821D01*
X135962334Y-88544798D01*
X135967579Y-88542816D01*
X135967583Y-88542815D01*
X136149674Y-88474008D01*
X136164153Y-88468537D01*
X136349277Y-88357742D01*
X136353497Y-88354060D01*
X136353502Y-88354057D01*
X136507626Y-88219606D01*
X136511856Y-88215916D01*
X136592077Y-88115784D01*
X136643244Y-88051918D01*
X136643247Y-88051913D01*
X136646750Y-88047541D01*
X136749695Y-87857939D01*
X136817438Y-87653104D01*
X136847837Y-87439510D01*
X136848231Y-87424485D01*
X136849405Y-87379631D01*
X136849405Y-87379630D01*
X136849500Y-87376000D01*
X136830321Y-87161108D01*
X136793158Y-87025260D01*
X136774874Y-86958424D01*
X136774873Y-86958420D01*
X136773392Y-86953008D01*
X136680510Y-86758278D01*
X136660500Y-86730431D01*
X136557890Y-86587632D01*
X136557885Y-86587627D01*
X136554614Y-86583074D01*
X136399680Y-86432933D01*
X136278358Y-86351408D01*
X136225261Y-86315728D01*
X136225255Y-86315725D01*
X136220608Y-86312602D01*
X136023057Y-86225883D01*
X135876376Y-86190668D01*
X135818729Y-86176828D01*
X135818728Y-86176828D01*
X135813272Y-86175518D01*
X135730801Y-86170763D01*
X135603490Y-86163422D01*
X135603487Y-86163422D01*
X135597883Y-86163099D01*
X135383699Y-86189018D01*
X135177490Y-86252456D01*
X135172510Y-86255026D01*
X135172506Y-86255028D01*
X134990757Y-86348836D01*
X134985774Y-86351408D01*
X134814611Y-86482746D01*
X134669411Y-86642319D01*
X134554764Y-86825083D01*
X134552674Y-86830283D01*
X134552670Y-86830290D01*
X134482353Y-87005210D01*
X134438387Y-87060955D01*
X134371262Y-87084080D01*
X134302290Y-87067243D01*
X134253370Y-87015791D01*
X134243912Y-86991463D01*
X134234873Y-86958422D01*
X134233392Y-86953008D01*
X134140510Y-86758278D01*
X134120500Y-86730431D01*
X134017890Y-86587632D01*
X134017885Y-86587627D01*
X134014614Y-86583074D01*
X133859680Y-86432933D01*
X133738358Y-86351408D01*
X133685261Y-86315728D01*
X133685255Y-86315725D01*
X133680608Y-86312602D01*
X133483057Y-86225883D01*
X133336376Y-86190668D01*
X133278729Y-86176828D01*
X133278728Y-86176828D01*
X133273272Y-86175518D01*
X133190801Y-86170763D01*
X133063490Y-86163422D01*
X133063487Y-86163422D01*
X133057883Y-86163099D01*
X132843699Y-86189018D01*
X132637490Y-86252456D01*
X132632510Y-86255026D01*
X132632506Y-86255028D01*
X132450757Y-86348836D01*
X132445774Y-86351408D01*
X132274611Y-86482746D01*
X132129411Y-86642319D01*
X132014764Y-86825083D01*
X132012674Y-86830283D01*
X132012670Y-86830290D01*
X131942353Y-87005210D01*
X131898387Y-87060955D01*
X131831262Y-87084080D01*
X131762290Y-87067243D01*
X131713370Y-87015791D01*
X131703912Y-86991463D01*
X131694873Y-86958422D01*
X131693392Y-86953008D01*
X131600510Y-86758278D01*
X131580500Y-86730431D01*
X131477890Y-86587632D01*
X131477885Y-86587627D01*
X131474614Y-86583074D01*
X131319680Y-86432933D01*
X131198358Y-86351408D01*
X131145261Y-86315728D01*
X131145255Y-86315725D01*
X131140608Y-86312602D01*
X130943057Y-86225883D01*
X130796376Y-86190668D01*
X130738729Y-86176828D01*
X130738728Y-86176828D01*
X130733272Y-86175518D01*
X130650801Y-86170763D01*
X130523490Y-86163422D01*
X130523487Y-86163422D01*
X130517883Y-86163099D01*
X130303699Y-86189018D01*
X130097490Y-86252456D01*
X130092510Y-86255026D01*
X130092506Y-86255028D01*
X129910757Y-86348836D01*
X129905774Y-86351408D01*
X129734611Y-86482746D01*
X129589411Y-86642319D01*
X129474764Y-86825083D01*
X129394293Y-87025260D01*
X129393156Y-87030751D01*
X129393155Y-87030754D01*
X129356604Y-87207254D01*
X129350542Y-87236524D01*
X129344895Y-87452196D01*
X127702032Y-87452196D01*
X127703837Y-87439510D01*
X127704231Y-87424485D01*
X127705405Y-87379631D01*
X127705405Y-87379630D01*
X127705500Y-87376000D01*
X127686321Y-87161108D01*
X127649158Y-87025260D01*
X127630874Y-86958424D01*
X127630873Y-86958420D01*
X127629392Y-86953008D01*
X127536510Y-86758278D01*
X127516500Y-86730431D01*
X127413890Y-86587632D01*
X127413885Y-86587627D01*
X127410614Y-86583074D01*
X127255680Y-86432933D01*
X127134358Y-86351408D01*
X127081261Y-86315728D01*
X127081255Y-86315725D01*
X127076608Y-86312602D01*
X126879057Y-86225883D01*
X126732376Y-86190668D01*
X126674729Y-86176828D01*
X126674728Y-86176828D01*
X126669272Y-86175518D01*
X126586801Y-86170763D01*
X126459490Y-86163422D01*
X126459487Y-86163422D01*
X126453883Y-86163099D01*
X126239699Y-86189018D01*
X126033490Y-86252456D01*
X126028510Y-86255026D01*
X126028506Y-86255028D01*
X125846757Y-86348836D01*
X125841774Y-86351408D01*
X125670611Y-86482746D01*
X125525411Y-86642319D01*
X125410764Y-86825083D01*
X125408674Y-86830283D01*
X125408670Y-86830290D01*
X125338353Y-87005210D01*
X125294387Y-87060955D01*
X125227262Y-87084080D01*
X125158290Y-87067243D01*
X125109370Y-87015791D01*
X125099912Y-86991463D01*
X125090873Y-86958422D01*
X125089392Y-86953008D01*
X124996510Y-86758278D01*
X124976500Y-86730431D01*
X124873890Y-86587632D01*
X124873885Y-86587627D01*
X124870614Y-86583074D01*
X124715680Y-86432933D01*
X124594358Y-86351408D01*
X124541261Y-86315728D01*
X124541255Y-86315725D01*
X124536608Y-86312602D01*
X124339057Y-86225883D01*
X124192376Y-86190668D01*
X124134729Y-86176828D01*
X124134728Y-86176828D01*
X124129272Y-86175518D01*
X124046801Y-86170763D01*
X123919490Y-86163422D01*
X123919487Y-86163422D01*
X123913883Y-86163099D01*
X123699699Y-86189018D01*
X123493490Y-86252456D01*
X123488510Y-86255026D01*
X123488506Y-86255028D01*
X123306757Y-86348836D01*
X123301774Y-86351408D01*
X123130611Y-86482746D01*
X122985411Y-86642319D01*
X122870764Y-86825083D01*
X122868674Y-86830283D01*
X122868670Y-86830290D01*
X122798353Y-87005210D01*
X122754387Y-87060955D01*
X122687262Y-87084080D01*
X122618290Y-87067243D01*
X122569370Y-87015791D01*
X122559912Y-86991463D01*
X122550873Y-86958422D01*
X122549392Y-86953008D01*
X122456510Y-86758278D01*
X122436500Y-86730431D01*
X122333890Y-86587632D01*
X122333885Y-86587627D01*
X122330614Y-86583074D01*
X122175680Y-86432933D01*
X122054358Y-86351408D01*
X122001261Y-86315728D01*
X122001255Y-86315725D01*
X121996608Y-86312602D01*
X121799057Y-86225883D01*
X121652376Y-86190668D01*
X121594729Y-86176828D01*
X121594728Y-86176828D01*
X121589272Y-86175518D01*
X121506801Y-86170763D01*
X121379490Y-86163422D01*
X121379487Y-86163422D01*
X121373883Y-86163099D01*
X121159699Y-86189018D01*
X120953490Y-86252456D01*
X120948510Y-86255026D01*
X120948506Y-86255028D01*
X120766757Y-86348836D01*
X120761774Y-86351408D01*
X120590611Y-86482746D01*
X120445411Y-86642319D01*
X120330764Y-86825083D01*
X120250293Y-87025260D01*
X120249156Y-87030751D01*
X120249155Y-87030754D01*
X120212604Y-87207254D01*
X120206542Y-87236524D01*
X120200895Y-87452196D01*
X118558032Y-87452196D01*
X118559837Y-87439510D01*
X118560231Y-87424485D01*
X118561405Y-87379631D01*
X118561405Y-87379630D01*
X118561500Y-87376000D01*
X118542321Y-87161108D01*
X118505158Y-87025260D01*
X118486874Y-86958424D01*
X118486873Y-86958420D01*
X118485392Y-86953008D01*
X118392510Y-86758278D01*
X118372500Y-86730431D01*
X118269890Y-86587632D01*
X118269885Y-86587627D01*
X118266614Y-86583074D01*
X118111680Y-86432933D01*
X117990358Y-86351408D01*
X117937261Y-86315728D01*
X117937255Y-86315725D01*
X117932608Y-86312602D01*
X117735057Y-86225883D01*
X117588376Y-86190668D01*
X117530729Y-86176828D01*
X117530728Y-86176828D01*
X117525272Y-86175518D01*
X117442801Y-86170763D01*
X117315490Y-86163422D01*
X117315487Y-86163422D01*
X117309883Y-86163099D01*
X117095699Y-86189018D01*
X116889490Y-86252456D01*
X116884510Y-86255026D01*
X116884506Y-86255028D01*
X116702757Y-86348836D01*
X116697774Y-86351408D01*
X116526611Y-86482746D01*
X116381411Y-86642319D01*
X116266764Y-86825083D01*
X116264674Y-86830283D01*
X116264670Y-86830290D01*
X116194353Y-87005210D01*
X116150387Y-87060955D01*
X116083262Y-87084080D01*
X116014290Y-87067243D01*
X115965370Y-87015791D01*
X115955912Y-86991463D01*
X115946873Y-86958422D01*
X115945392Y-86953008D01*
X115852510Y-86758278D01*
X115832500Y-86730431D01*
X115729890Y-86587632D01*
X115729885Y-86587627D01*
X115726614Y-86583074D01*
X115571680Y-86432933D01*
X115450358Y-86351408D01*
X115397261Y-86315728D01*
X115397255Y-86315725D01*
X115392608Y-86312602D01*
X115195057Y-86225883D01*
X115048376Y-86190668D01*
X114990729Y-86176828D01*
X114990728Y-86176828D01*
X114985272Y-86175518D01*
X114902801Y-86170763D01*
X114775490Y-86163422D01*
X114775487Y-86163422D01*
X114769883Y-86163099D01*
X114555699Y-86189018D01*
X114349490Y-86252456D01*
X114344510Y-86255026D01*
X114344506Y-86255028D01*
X114162757Y-86348836D01*
X114157774Y-86351408D01*
X113986611Y-86482746D01*
X113841411Y-86642319D01*
X113726764Y-86825083D01*
X113724674Y-86830283D01*
X113724670Y-86830290D01*
X113654353Y-87005210D01*
X113610387Y-87060955D01*
X113543262Y-87084080D01*
X113474290Y-87067243D01*
X113425370Y-87015791D01*
X113415912Y-86991463D01*
X113406873Y-86958422D01*
X113405392Y-86953008D01*
X113312510Y-86758278D01*
X113292500Y-86730431D01*
X113189890Y-86587632D01*
X113189885Y-86587627D01*
X113186614Y-86583074D01*
X113031680Y-86432933D01*
X112910358Y-86351408D01*
X112857261Y-86315728D01*
X112857255Y-86315725D01*
X112852608Y-86312602D01*
X112655057Y-86225883D01*
X112508376Y-86190668D01*
X112450729Y-86176828D01*
X112450728Y-86176828D01*
X112445272Y-86175518D01*
X112362801Y-86170763D01*
X112235490Y-86163422D01*
X112235487Y-86163422D01*
X112229883Y-86163099D01*
X112015699Y-86189018D01*
X111809490Y-86252456D01*
X111804510Y-86255026D01*
X111804506Y-86255028D01*
X111622757Y-86348836D01*
X111617774Y-86351408D01*
X111446611Y-86482746D01*
X111301411Y-86642319D01*
X111186764Y-86825083D01*
X111106293Y-87025260D01*
X111105156Y-87030751D01*
X111105155Y-87030754D01*
X111068604Y-87207254D01*
X111062542Y-87236524D01*
X111056895Y-87452196D01*
X99822000Y-87452196D01*
X99822000Y-83846000D01*
X141516500Y-83846000D01*
X141516500Y-86446000D01*
X141521727Y-86519079D01*
X141562904Y-86659316D01*
X141567775Y-86666895D01*
X141637051Y-86774691D01*
X141637053Y-86774694D01*
X141641923Y-86782271D01*
X141648733Y-86788172D01*
X141745569Y-86872082D01*
X141745572Y-86872084D01*
X141752381Y-86877984D01*
X141885330Y-86938700D01*
X141894245Y-86939982D01*
X141894246Y-86939982D01*
X142025552Y-86958861D01*
X142025559Y-86958862D01*
X142030000Y-86959500D01*
X142181913Y-86959500D01*
X142250034Y-86979502D01*
X142296527Y-87033158D01*
X142306631Y-87103432D01*
X142277137Y-87168012D01*
X142250997Y-87190872D01*
X142229930Y-87204684D01*
X142229925Y-87204688D01*
X142226011Y-87207254D01*
X142193217Y-87236524D01*
X142036947Y-87376000D01*
X142025477Y-87386237D01*
X141853602Y-87592895D01*
X141714160Y-87822688D01*
X141712351Y-87827002D01*
X141712350Y-87827004D01*
X141613627Y-88062432D01*
X141610215Y-88070568D01*
X141609064Y-88075100D01*
X141609063Y-88075103D01*
X141597574Y-88120341D01*
X141544051Y-88331089D01*
X141517121Y-88598528D01*
X141530018Y-88867010D01*
X141530931Y-88871600D01*
X141574797Y-89092130D01*
X141582456Y-89130637D01*
X141584035Y-89135035D01*
X141584037Y-89135042D01*
X141631147Y-89266254D01*
X141673285Y-89383617D01*
X141675497Y-89387734D01*
X141675498Y-89387736D01*
X141739617Y-89507066D01*
X141800510Y-89620393D01*
X141803301Y-89624130D01*
X141803305Y-89624137D01*
X141865359Y-89707237D01*
X141961334Y-89835763D01*
X141964643Y-89839043D01*
X141964648Y-89839049D01*
X142148909Y-90021708D01*
X142152226Y-90024996D01*
X142155988Y-90027754D01*
X142155991Y-90027757D01*
X142268339Y-90110134D01*
X142368991Y-90183935D01*
X142373122Y-90186109D01*
X142373123Y-90186109D01*
X142602734Y-90306913D01*
X142602740Y-90306915D01*
X142606869Y-90309088D01*
X142611276Y-90310627D01*
X142611283Y-90310630D01*
X142856216Y-90396164D01*
X142860632Y-90397706D01*
X143124706Y-90447843D01*
X143252198Y-90452852D01*
X143388622Y-90458212D01*
X143388627Y-90458212D01*
X143393290Y-90458395D01*
X143477656Y-90449156D01*
X143655831Y-90429643D01*
X143655837Y-90429642D01*
X143660484Y-90429133D01*
X143785709Y-90396164D01*
X143915895Y-90361889D01*
X143915897Y-90361888D01*
X143920418Y-90360698D01*
X144036954Y-90310630D01*
X144163087Y-90256439D01*
X144163089Y-90256438D01*
X144167381Y-90254594D01*
X144286028Y-90181173D01*
X144391976Y-90115611D01*
X144391980Y-90115608D01*
X144395949Y-90113152D01*
X144601099Y-89939480D01*
X144778325Y-89737392D01*
X144797722Y-89707237D01*
X144921207Y-89515257D01*
X144923735Y-89511327D01*
X145034133Y-89266254D01*
X145038642Y-89250269D01*
X145105824Y-89012053D01*
X145107093Y-89007554D01*
X145141015Y-88740911D01*
X145143500Y-88646000D01*
X145136300Y-88549115D01*
X145123926Y-88382600D01*
X145123925Y-88382596D01*
X145123580Y-88377948D01*
X145064259Y-88115784D01*
X145043512Y-88062432D01*
X145015548Y-87990526D01*
X144966838Y-87865268D01*
X144959609Y-87852619D01*
X144835779Y-87635961D01*
X144835777Y-87635959D01*
X144833460Y-87631904D01*
X144667052Y-87420817D01*
X144471273Y-87236646D01*
X144467435Y-87233984D01*
X144467427Y-87233977D01*
X144402631Y-87189027D01*
X144358061Y-87133764D01*
X144350444Y-87063177D01*
X144382198Y-86999678D01*
X144443242Y-86963426D01*
X144474451Y-86959500D01*
X144630000Y-86959500D01*
X144703079Y-86954273D01*
X144781165Y-86931345D01*
X144834670Y-86915635D01*
X144834672Y-86915634D01*
X144843316Y-86913096D01*
X144907135Y-86872082D01*
X144958691Y-86838949D01*
X144958694Y-86838947D01*
X144966271Y-86834077D01*
X145006048Y-86788172D01*
X145056082Y-86730431D01*
X145056084Y-86730428D01*
X145061984Y-86723619D01*
X145122700Y-86590670D01*
X145138217Y-86482746D01*
X145142861Y-86450448D01*
X145142862Y-86450441D01*
X145143500Y-86446000D01*
X145143500Y-83846000D01*
X145138273Y-83772921D01*
X145097096Y-83632684D01*
X145051393Y-83561569D01*
X145022949Y-83517309D01*
X145022947Y-83517306D01*
X145018077Y-83509729D01*
X145011267Y-83503828D01*
X144914431Y-83419918D01*
X144914428Y-83419916D01*
X144907619Y-83414016D01*
X144774670Y-83353300D01*
X144765755Y-83352018D01*
X144765754Y-83352018D01*
X144634448Y-83333139D01*
X144634441Y-83333138D01*
X144630000Y-83332500D01*
X142030000Y-83332500D01*
X141956921Y-83337727D01*
X141903884Y-83353300D01*
X141825330Y-83376365D01*
X141825328Y-83376366D01*
X141816684Y-83378904D01*
X141809105Y-83383775D01*
X141701309Y-83453051D01*
X141701306Y-83453053D01*
X141693729Y-83457923D01*
X141687828Y-83464733D01*
X141603918Y-83561569D01*
X141603916Y-83561572D01*
X141598016Y-83568381D01*
X141537300Y-83701330D01*
X141536018Y-83710245D01*
X141536018Y-83710246D01*
X141517139Y-83841552D01*
X141517138Y-83841559D01*
X141516500Y-83846000D01*
X99822000Y-83846000D01*
X99822000Y-80946856D01*
X142249889Y-80946856D01*
X142258603Y-80958376D01*
X142365482Y-81036744D01*
X142373401Y-81041692D01*
X142602918Y-81162447D01*
X142611492Y-81166175D01*
X142856345Y-81251682D01*
X142865354Y-81254096D01*
X143120174Y-81302475D01*
X143129431Y-81303529D01*
X143388605Y-81313713D01*
X143397918Y-81313387D01*
X143655752Y-81285149D01*
X143664906Y-81283453D01*
X143915732Y-81217416D01*
X143924552Y-81214379D01*
X144162856Y-81111996D01*
X144171128Y-81107689D01*
X144391678Y-80971209D01*
X144399222Y-80965729D01*
X144404511Y-80961251D01*
X144412948Y-80948450D01*
X144406883Y-80938093D01*
X143342812Y-79874022D01*
X143328868Y-79866408D01*
X143327035Y-79866539D01*
X143320420Y-79870790D01*
X142256547Y-80934663D01*
X142249889Y-80946856D01*
X99822000Y-80946856D01*
X99822000Y-79459212D01*
X141517845Y-79459212D01*
X141530290Y-79718277D01*
X141531427Y-79727537D01*
X141582025Y-79981915D01*
X141584519Y-79990908D01*
X141672159Y-80235005D01*
X141675959Y-80243540D01*
X141798717Y-80472004D01*
X141803725Y-80479866D01*
X141873770Y-80573666D01*
X141885029Y-80582115D01*
X141897447Y-80575343D01*
X142957978Y-79514812D01*
X142964356Y-79503132D01*
X143694408Y-79503132D01*
X143694539Y-79504965D01*
X143698790Y-79511580D01*
X144766044Y-80578834D01*
X144778424Y-80585594D01*
X144786765Y-80579350D01*
X144920767Y-80371020D01*
X144925213Y-80362830D01*
X145031740Y-80126351D01*
X145034935Y-80117574D01*
X145105334Y-79867953D01*
X145107192Y-79858823D01*
X145140117Y-79600015D01*
X145140598Y-79593729D01*
X145142917Y-79505160D01*
X145142766Y-79498851D01*
X145123432Y-79238674D01*
X145122055Y-79229468D01*
X145064812Y-78976487D01*
X145062088Y-78967576D01*
X144968080Y-78725837D01*
X144964069Y-78717427D01*
X144835364Y-78492241D01*
X144830153Y-78484515D01*
X144786946Y-78429707D01*
X144775020Y-78421236D01*
X144763488Y-78427722D01*
X143702022Y-79489188D01*
X143694408Y-79503132D01*
X142964356Y-79503132D01*
X142965592Y-79500868D01*
X142965461Y-79499035D01*
X142961210Y-79492420D01*
X141895866Y-78427076D01*
X141882558Y-78419809D01*
X141872519Y-78426931D01*
X141856998Y-78445593D01*
X141851587Y-78453177D01*
X141717027Y-78674924D01*
X141712798Y-78683224D01*
X141612498Y-78922412D01*
X141609537Y-78931262D01*
X141545697Y-79182637D01*
X141544075Y-79191834D01*
X141518090Y-79449887D01*
X141517845Y-79459212D01*
X99822000Y-79459212D01*
X99822000Y-75969000D01*
X102608500Y-75969000D01*
X102608500Y-78569000D01*
X102613727Y-78642079D01*
X102654904Y-78782316D01*
X102659775Y-78789895D01*
X102729051Y-78897691D01*
X102729053Y-78897694D01*
X102733923Y-78905271D01*
X102740733Y-78911172D01*
X102837569Y-78995082D01*
X102837572Y-78995084D01*
X102844381Y-79000984D01*
X102852579Y-79004728D01*
X102952703Y-79050453D01*
X102977330Y-79061700D01*
X102986245Y-79062982D01*
X102986246Y-79062982D01*
X103117552Y-79081861D01*
X103117559Y-79081862D01*
X103122000Y-79082500D01*
X105722000Y-79082500D01*
X105795079Y-79077273D01*
X105886420Y-79050453D01*
X105926670Y-79038635D01*
X105926672Y-79038634D01*
X105935316Y-79036096D01*
X105999135Y-78995082D01*
X106050691Y-78961949D01*
X106050694Y-78961947D01*
X106058271Y-78957077D01*
X106078588Y-78933630D01*
X106148082Y-78853431D01*
X106148084Y-78853428D01*
X106153984Y-78846619D01*
X106173369Y-78804173D01*
X106210958Y-78721864D01*
X106210958Y-78721863D01*
X106214615Y-78713856D01*
X106841889Y-78713856D01*
X106850603Y-78725376D01*
X106957482Y-78803744D01*
X106965401Y-78808692D01*
X107194918Y-78929447D01*
X107203492Y-78933175D01*
X107448345Y-79018682D01*
X107457354Y-79021096D01*
X107712174Y-79069475D01*
X107721431Y-79070529D01*
X107980605Y-79080713D01*
X107989918Y-79080387D01*
X108247752Y-79052149D01*
X108256906Y-79050453D01*
X108507732Y-78984416D01*
X108516552Y-78981379D01*
X108754856Y-78878996D01*
X108763128Y-78874689D01*
X108983678Y-78738209D01*
X108991222Y-78732729D01*
X108996511Y-78728251D01*
X109004948Y-78715450D01*
X108998883Y-78705093D01*
X107934812Y-77641022D01*
X107920868Y-77633408D01*
X107919035Y-77633539D01*
X107912420Y-77637790D01*
X106848547Y-78701663D01*
X106841889Y-78713856D01*
X106214615Y-78713856D01*
X106214700Y-78713670D01*
X106216426Y-78701663D01*
X106234861Y-78573448D01*
X106234862Y-78573441D01*
X106235500Y-78569000D01*
X106235500Y-78411621D01*
X106255502Y-78343500D01*
X106309158Y-78297007D01*
X106379432Y-78286903D01*
X106444012Y-78316397D01*
X106462457Y-78336231D01*
X106465767Y-78340664D01*
X106477029Y-78349115D01*
X106489447Y-78342343D01*
X107549978Y-77281812D01*
X107556356Y-77270132D01*
X108286408Y-77270132D01*
X108286539Y-77271965D01*
X108290790Y-77278580D01*
X109358044Y-78345834D01*
X109370424Y-78352594D01*
X109378765Y-78346350D01*
X109512767Y-78138020D01*
X109517213Y-78129830D01*
X109623740Y-77893351D01*
X109626935Y-77884574D01*
X109697334Y-77634953D01*
X109699192Y-77625823D01*
X109732117Y-77367015D01*
X109732598Y-77360729D01*
X109734917Y-77272160D01*
X109734766Y-77265851D01*
X109715432Y-77005674D01*
X109714055Y-76996468D01*
X109656812Y-76743487D01*
X109654088Y-76734576D01*
X109560080Y-76492837D01*
X109556069Y-76484427D01*
X109427364Y-76259241D01*
X109422153Y-76251515D01*
X109378946Y-76196707D01*
X109367020Y-76188236D01*
X109355488Y-76194722D01*
X108294022Y-77256188D01*
X108286408Y-77270132D01*
X107556356Y-77270132D01*
X107557592Y-77267868D01*
X107557461Y-77266035D01*
X107553210Y-77259420D01*
X106487866Y-76194076D01*
X106474558Y-76186809D01*
X106464520Y-76193930D01*
X106458373Y-76201321D01*
X106399434Y-76240904D01*
X106328452Y-76242339D01*
X106267963Y-76205170D01*
X106237170Y-76141199D01*
X106235500Y-76120750D01*
X106235500Y-75969000D01*
X106230273Y-75895921D01*
X106208491Y-75821739D01*
X106839154Y-75821739D01*
X106843729Y-75831519D01*
X107909188Y-76896978D01*
X107923132Y-76904592D01*
X107924965Y-76904461D01*
X107931580Y-76900210D01*
X108862790Y-75969000D01*
X111752500Y-75969000D01*
X111752500Y-78569000D01*
X111757727Y-78642079D01*
X111798904Y-78782316D01*
X111803775Y-78789895D01*
X111873051Y-78897691D01*
X111873053Y-78897694D01*
X111877923Y-78905271D01*
X111884733Y-78911172D01*
X111981569Y-78995082D01*
X111981572Y-78995084D01*
X111988381Y-79000984D01*
X111996579Y-79004728D01*
X112096703Y-79050453D01*
X112121330Y-79061700D01*
X112130245Y-79062982D01*
X112130246Y-79062982D01*
X112261552Y-79081861D01*
X112261559Y-79081862D01*
X112266000Y-79082500D01*
X114866000Y-79082500D01*
X114939079Y-79077273D01*
X115030420Y-79050453D01*
X115070670Y-79038635D01*
X115070672Y-79038634D01*
X115079316Y-79036096D01*
X115143135Y-78995082D01*
X115194691Y-78961949D01*
X115194694Y-78961947D01*
X115202271Y-78957077D01*
X115222588Y-78933630D01*
X115292082Y-78853431D01*
X115292084Y-78853428D01*
X115297984Y-78846619D01*
X115317369Y-78804173D01*
X115354958Y-78721864D01*
X115354958Y-78721863D01*
X115358700Y-78713670D01*
X115360426Y-78701663D01*
X115378861Y-78573448D01*
X115378862Y-78573441D01*
X115379500Y-78569000D01*
X115379500Y-78412454D01*
X115399502Y-78344333D01*
X115453158Y-78297840D01*
X115523432Y-78287736D01*
X115588012Y-78317230D01*
X115606458Y-78337065D01*
X115697334Y-78458763D01*
X115700643Y-78462043D01*
X115700648Y-78462049D01*
X115808537Y-78569000D01*
X115888226Y-78647996D01*
X115891988Y-78650754D01*
X115891991Y-78650757D01*
X116011809Y-78738611D01*
X116104991Y-78806935D01*
X116109122Y-78809109D01*
X116109123Y-78809109D01*
X116338734Y-78929913D01*
X116338740Y-78929915D01*
X116342869Y-78932088D01*
X116347276Y-78933627D01*
X116347283Y-78933630D01*
X116590836Y-79018682D01*
X116596632Y-79020706D01*
X116860706Y-79070843D01*
X116988198Y-79075852D01*
X117124622Y-79081212D01*
X117124627Y-79081212D01*
X117129290Y-79081395D01*
X117213656Y-79072156D01*
X117391831Y-79052643D01*
X117391837Y-79052642D01*
X117396484Y-79052133D01*
X117576541Y-79004728D01*
X117651895Y-78984889D01*
X117651897Y-78984888D01*
X117656418Y-78983698D01*
X117774013Y-78933175D01*
X117899087Y-78879439D01*
X117899089Y-78879438D01*
X117903381Y-78877594D01*
X118022028Y-78804173D01*
X118127976Y-78738611D01*
X118127980Y-78738608D01*
X118131949Y-78736152D01*
X118324143Y-78573448D01*
X118333532Y-78565500D01*
X118333534Y-78565498D01*
X118337099Y-78562480D01*
X118514325Y-78360392D01*
X118523358Y-78346350D01*
X118657207Y-78138257D01*
X118659735Y-78134327D01*
X118770133Y-77889254D01*
X118785293Y-77835502D01*
X118840141Y-77641022D01*
X118843093Y-77630554D01*
X118867621Y-77437754D01*
X118876617Y-77367041D01*
X118876617Y-77367037D01*
X118877015Y-77363911D01*
X118877099Y-77360729D01*
X118878408Y-77310712D01*
X118879500Y-77269000D01*
X118859580Y-77000948D01*
X118800259Y-76738784D01*
X118702838Y-76488268D01*
X118569460Y-76254904D01*
X118403052Y-76043817D01*
X118323519Y-75969000D01*
X120896500Y-75969000D01*
X120896500Y-78569000D01*
X120901727Y-78642079D01*
X120942904Y-78782316D01*
X120947775Y-78789895D01*
X121017051Y-78897691D01*
X121017053Y-78897694D01*
X121021923Y-78905271D01*
X121028733Y-78911172D01*
X121125569Y-78995082D01*
X121125572Y-78995084D01*
X121132381Y-79000984D01*
X121140579Y-79004728D01*
X121240703Y-79050453D01*
X121265330Y-79061700D01*
X121274245Y-79062982D01*
X121274246Y-79062982D01*
X121405552Y-79081861D01*
X121405559Y-79081862D01*
X121410000Y-79082500D01*
X124010000Y-79082500D01*
X124083079Y-79077273D01*
X124174420Y-79050453D01*
X124214670Y-79038635D01*
X124214672Y-79038634D01*
X124223316Y-79036096D01*
X124287135Y-78995082D01*
X124338691Y-78961949D01*
X124338694Y-78961947D01*
X124346271Y-78957077D01*
X124366588Y-78933630D01*
X124436082Y-78853431D01*
X124436084Y-78853428D01*
X124441984Y-78846619D01*
X124461369Y-78804173D01*
X124498958Y-78721864D01*
X124498958Y-78721863D01*
X124502700Y-78713670D01*
X124504426Y-78701663D01*
X124522861Y-78573448D01*
X124522862Y-78573441D01*
X124523500Y-78569000D01*
X124523500Y-78412454D01*
X124543502Y-78344333D01*
X124597158Y-78297840D01*
X124667432Y-78287736D01*
X124732012Y-78317230D01*
X124750458Y-78337065D01*
X124841334Y-78458763D01*
X124844643Y-78462043D01*
X124844648Y-78462049D01*
X124952537Y-78569000D01*
X125032226Y-78647996D01*
X125035988Y-78650754D01*
X125035991Y-78650757D01*
X125155809Y-78738611D01*
X125248991Y-78806935D01*
X125253122Y-78809109D01*
X125253123Y-78809109D01*
X125482734Y-78929913D01*
X125482740Y-78929915D01*
X125486869Y-78932088D01*
X125491276Y-78933627D01*
X125491283Y-78933630D01*
X125734836Y-79018682D01*
X125740632Y-79020706D01*
X126004706Y-79070843D01*
X126132198Y-79075852D01*
X126268622Y-79081212D01*
X126268627Y-79081212D01*
X126273290Y-79081395D01*
X126357656Y-79072156D01*
X126535831Y-79052643D01*
X126535837Y-79052642D01*
X126540484Y-79052133D01*
X126720541Y-79004728D01*
X126795895Y-78984889D01*
X126795897Y-78984888D01*
X126800418Y-78983698D01*
X126918013Y-78933175D01*
X127043087Y-78879439D01*
X127043089Y-78879438D01*
X127047381Y-78877594D01*
X127166028Y-78804173D01*
X127271976Y-78738611D01*
X127271980Y-78738608D01*
X127275949Y-78736152D01*
X127468143Y-78573448D01*
X127477532Y-78565500D01*
X127477534Y-78565498D01*
X127481099Y-78562480D01*
X127658325Y-78360392D01*
X127667358Y-78346350D01*
X127801207Y-78138257D01*
X127803735Y-78134327D01*
X127914133Y-77889254D01*
X127929293Y-77835502D01*
X127984141Y-77641022D01*
X127987093Y-77630554D01*
X128011621Y-77437754D01*
X128020617Y-77367041D01*
X128020617Y-77367037D01*
X128021015Y-77363911D01*
X128021099Y-77360729D01*
X128022408Y-77310712D01*
X128023500Y-77269000D01*
X128003580Y-77000948D01*
X127944259Y-76738784D01*
X127846838Y-76488268D01*
X127713460Y-76254904D01*
X127547052Y-76043817D01*
X127467519Y-75969000D01*
X130012500Y-75969000D01*
X130012500Y-78569000D01*
X130017727Y-78642079D01*
X130058904Y-78782316D01*
X130063775Y-78789895D01*
X130133051Y-78897691D01*
X130133053Y-78897694D01*
X130137923Y-78905271D01*
X130144733Y-78911172D01*
X130241569Y-78995082D01*
X130241572Y-78995084D01*
X130248381Y-79000984D01*
X130256579Y-79004728D01*
X130356703Y-79050453D01*
X130381330Y-79061700D01*
X130390245Y-79062982D01*
X130390246Y-79062982D01*
X130521552Y-79081861D01*
X130521559Y-79081862D01*
X130526000Y-79082500D01*
X133126000Y-79082500D01*
X133199079Y-79077273D01*
X133290420Y-79050453D01*
X133330670Y-79038635D01*
X133330672Y-79038634D01*
X133339316Y-79036096D01*
X133403135Y-78995082D01*
X133454691Y-78961949D01*
X133454694Y-78961947D01*
X133462271Y-78957077D01*
X133482588Y-78933630D01*
X133552082Y-78853431D01*
X133552084Y-78853428D01*
X133557984Y-78846619D01*
X133577369Y-78804173D01*
X133614958Y-78721864D01*
X133614958Y-78721863D01*
X133618700Y-78713670D01*
X133620426Y-78701663D01*
X133638861Y-78573448D01*
X133638862Y-78573441D01*
X133639500Y-78569000D01*
X133639500Y-78412454D01*
X133659502Y-78344333D01*
X133713158Y-78297840D01*
X133783432Y-78287736D01*
X133848012Y-78317230D01*
X133866458Y-78337065D01*
X133957334Y-78458763D01*
X133960643Y-78462043D01*
X133960648Y-78462049D01*
X134068537Y-78569000D01*
X134148226Y-78647996D01*
X134151988Y-78650754D01*
X134151991Y-78650757D01*
X134271809Y-78738611D01*
X134364991Y-78806935D01*
X134369122Y-78809109D01*
X134369123Y-78809109D01*
X134598734Y-78929913D01*
X134598740Y-78929915D01*
X134602869Y-78932088D01*
X134607276Y-78933627D01*
X134607283Y-78933630D01*
X134850836Y-79018682D01*
X134856632Y-79020706D01*
X135120706Y-79070843D01*
X135248198Y-79075852D01*
X135384622Y-79081212D01*
X135384627Y-79081212D01*
X135389290Y-79081395D01*
X135473656Y-79072156D01*
X135651831Y-79052643D01*
X135651837Y-79052642D01*
X135656484Y-79052133D01*
X135836541Y-79004728D01*
X135911895Y-78984889D01*
X135911897Y-78984888D01*
X135916418Y-78983698D01*
X136034013Y-78933175D01*
X136159087Y-78879439D01*
X136159089Y-78879438D01*
X136163381Y-78877594D01*
X136282028Y-78804173D01*
X136387976Y-78738611D01*
X136387980Y-78738608D01*
X136391949Y-78736152D01*
X136584143Y-78573448D01*
X136593532Y-78565500D01*
X136593534Y-78565498D01*
X136597099Y-78562480D01*
X136774325Y-78360392D01*
X136783358Y-78346350D01*
X136917207Y-78138257D01*
X136919735Y-78134327D01*
X137030133Y-77889254D01*
X137045293Y-77835502D01*
X137100141Y-77641022D01*
X137103093Y-77630554D01*
X137127621Y-77437754D01*
X137136617Y-77367041D01*
X137136617Y-77367037D01*
X137137015Y-77363911D01*
X137137099Y-77360729D01*
X137138408Y-77310712D01*
X137139500Y-77269000D01*
X137119580Y-77000948D01*
X137060259Y-76738784D01*
X136962838Y-76488268D01*
X136829460Y-76254904D01*
X136663052Y-76043817D01*
X136467273Y-75859646D01*
X136246421Y-75706436D01*
X136084993Y-75626828D01*
X136009535Y-75589616D01*
X136009531Y-75589615D01*
X136005349Y-75587552D01*
X135749353Y-75505607D01*
X135592377Y-75480042D01*
X135488669Y-75463152D01*
X135488668Y-75463152D01*
X135484057Y-75462401D01*
X135349672Y-75460642D01*
X135219965Y-75458944D01*
X135219962Y-75458944D01*
X135215288Y-75458883D01*
X134948952Y-75495129D01*
X134944462Y-75496438D01*
X134944456Y-75496439D01*
X134834555Y-75528473D01*
X134690899Y-75570345D01*
X134686652Y-75572303D01*
X134686649Y-75572304D01*
X134655654Y-75586593D01*
X134446798Y-75682877D01*
X134410865Y-75706436D01*
X134225924Y-75827688D01*
X134225919Y-75827692D01*
X134222011Y-75830254D01*
X134192067Y-75856980D01*
X134061522Y-75973496D01*
X134021477Y-76009237D01*
X134018484Y-76012836D01*
X133862374Y-76200538D01*
X133803437Y-76240122D01*
X133732455Y-76241558D01*
X133671964Y-76204391D01*
X133641171Y-76140420D01*
X133639500Y-76119969D01*
X133639500Y-75969000D01*
X133634273Y-75895921D01*
X133593096Y-75755684D01*
X133568574Y-75717528D01*
X133518949Y-75640309D01*
X133518947Y-75640306D01*
X133514077Y-75632729D01*
X133464859Y-75590081D01*
X133410431Y-75542918D01*
X133410428Y-75542916D01*
X133403619Y-75537016D01*
X133270670Y-75476300D01*
X133261755Y-75475018D01*
X133261754Y-75475018D01*
X133130448Y-75456139D01*
X133130441Y-75456138D01*
X133126000Y-75455500D01*
X130526000Y-75455500D01*
X130452921Y-75460727D01*
X130399884Y-75476300D01*
X130321330Y-75499365D01*
X130321328Y-75499366D01*
X130312684Y-75501904D01*
X130305105Y-75506775D01*
X130197309Y-75576051D01*
X130197306Y-75576053D01*
X130189729Y-75580923D01*
X130183828Y-75587733D01*
X130099918Y-75684569D01*
X130099916Y-75684572D01*
X130094016Y-75691381D01*
X130033300Y-75824330D01*
X130032018Y-75833245D01*
X130032018Y-75833246D01*
X130013139Y-75964552D01*
X130013138Y-75964559D01*
X130012500Y-75969000D01*
X127467519Y-75969000D01*
X127351273Y-75859646D01*
X127130421Y-75706436D01*
X126968993Y-75626828D01*
X126893535Y-75589616D01*
X126893531Y-75589615D01*
X126889349Y-75587552D01*
X126633353Y-75505607D01*
X126476377Y-75480042D01*
X126372669Y-75463152D01*
X126372668Y-75463152D01*
X126368057Y-75462401D01*
X126233672Y-75460642D01*
X126103965Y-75458944D01*
X126103962Y-75458944D01*
X126099288Y-75458883D01*
X125832952Y-75495129D01*
X125828462Y-75496438D01*
X125828456Y-75496439D01*
X125718555Y-75528473D01*
X125574899Y-75570345D01*
X125570652Y-75572303D01*
X125570649Y-75572304D01*
X125539654Y-75586593D01*
X125330798Y-75682877D01*
X125294865Y-75706436D01*
X125109924Y-75827688D01*
X125109919Y-75827692D01*
X125106011Y-75830254D01*
X125076067Y-75856980D01*
X124945522Y-75973496D01*
X124905477Y-76009237D01*
X124902484Y-76012836D01*
X124746374Y-76200538D01*
X124687437Y-76240122D01*
X124616455Y-76241558D01*
X124555964Y-76204391D01*
X124525171Y-76140420D01*
X124523500Y-76119969D01*
X124523500Y-75969000D01*
X124518273Y-75895921D01*
X124477096Y-75755684D01*
X124452574Y-75717528D01*
X124402949Y-75640309D01*
X124402947Y-75640306D01*
X124398077Y-75632729D01*
X124348859Y-75590081D01*
X124294431Y-75542918D01*
X124294428Y-75542916D01*
X124287619Y-75537016D01*
X124154670Y-75476300D01*
X124145755Y-75475018D01*
X124145754Y-75475018D01*
X124014448Y-75456139D01*
X124014441Y-75456138D01*
X124010000Y-75455500D01*
X121410000Y-75455500D01*
X121336921Y-75460727D01*
X121283884Y-75476300D01*
X121205330Y-75499365D01*
X121205328Y-75499366D01*
X121196684Y-75501904D01*
X121189105Y-75506775D01*
X121081309Y-75576051D01*
X121081306Y-75576053D01*
X121073729Y-75580923D01*
X121067828Y-75587733D01*
X120983918Y-75684569D01*
X120983916Y-75684572D01*
X120978016Y-75691381D01*
X120917300Y-75824330D01*
X120916018Y-75833245D01*
X120916018Y-75833246D01*
X120897139Y-75964552D01*
X120897138Y-75964559D01*
X120896500Y-75969000D01*
X118323519Y-75969000D01*
X118207273Y-75859646D01*
X117986421Y-75706436D01*
X117824993Y-75626828D01*
X117749535Y-75589616D01*
X117749531Y-75589615D01*
X117745349Y-75587552D01*
X117489353Y-75505607D01*
X117332377Y-75480042D01*
X117228669Y-75463152D01*
X117228668Y-75463152D01*
X117224057Y-75462401D01*
X117089672Y-75460642D01*
X116959965Y-75458944D01*
X116959962Y-75458944D01*
X116955288Y-75458883D01*
X116688952Y-75495129D01*
X116684462Y-75496438D01*
X116684456Y-75496439D01*
X116574555Y-75528473D01*
X116430899Y-75570345D01*
X116426652Y-75572303D01*
X116426649Y-75572304D01*
X116395654Y-75586593D01*
X116186798Y-75682877D01*
X116150865Y-75706436D01*
X115965924Y-75827688D01*
X115965919Y-75827692D01*
X115962011Y-75830254D01*
X115932067Y-75856980D01*
X115801522Y-75973496D01*
X115761477Y-76009237D01*
X115758484Y-76012836D01*
X115602374Y-76200538D01*
X115543437Y-76240122D01*
X115472455Y-76241558D01*
X115411964Y-76204391D01*
X115381171Y-76140420D01*
X115379500Y-76119969D01*
X115379500Y-75969000D01*
X115374273Y-75895921D01*
X115333096Y-75755684D01*
X115308574Y-75717528D01*
X115258949Y-75640309D01*
X115258947Y-75640306D01*
X115254077Y-75632729D01*
X115204859Y-75590081D01*
X115150431Y-75542918D01*
X115150428Y-75542916D01*
X115143619Y-75537016D01*
X115010670Y-75476300D01*
X115001755Y-75475018D01*
X115001754Y-75475018D01*
X114870448Y-75456139D01*
X114870441Y-75456138D01*
X114866000Y-75455500D01*
X112266000Y-75455500D01*
X112192921Y-75460727D01*
X112139884Y-75476300D01*
X112061330Y-75499365D01*
X112061328Y-75499366D01*
X112052684Y-75501904D01*
X112045105Y-75506775D01*
X111937309Y-75576051D01*
X111937306Y-75576053D01*
X111929729Y-75580923D01*
X111923828Y-75587733D01*
X111839918Y-75684569D01*
X111839916Y-75684572D01*
X111834016Y-75691381D01*
X111773300Y-75824330D01*
X111772018Y-75833245D01*
X111772018Y-75833246D01*
X111753139Y-75964552D01*
X111753138Y-75964559D01*
X111752500Y-75969000D01*
X108862790Y-75969000D01*
X108996299Y-75835491D01*
X109002683Y-75823801D01*
X108993272Y-75811691D01*
X108846003Y-75709527D01*
X108837976Y-75704799D01*
X108605350Y-75590081D01*
X108596717Y-75586593D01*
X108349681Y-75507516D01*
X108340630Y-75505343D01*
X108084625Y-75463650D01*
X108075336Y-75462838D01*
X107815996Y-75459443D01*
X107806684Y-75460013D01*
X107549696Y-75494987D01*
X107540560Y-75496928D01*
X107291567Y-75569504D01*
X107282824Y-75572772D01*
X107047286Y-75681357D01*
X107039131Y-75685877D01*
X106848290Y-75810999D01*
X106839154Y-75821739D01*
X106208491Y-75821739D01*
X106189096Y-75755684D01*
X106164574Y-75717528D01*
X106114949Y-75640309D01*
X106114947Y-75640306D01*
X106110077Y-75632729D01*
X106060859Y-75590081D01*
X106006431Y-75542918D01*
X106006428Y-75542916D01*
X105999619Y-75537016D01*
X105866670Y-75476300D01*
X105857755Y-75475018D01*
X105857754Y-75475018D01*
X105726448Y-75456139D01*
X105726441Y-75456138D01*
X105722000Y-75455500D01*
X103122000Y-75455500D01*
X103048921Y-75460727D01*
X102995884Y-75476300D01*
X102917330Y-75499365D01*
X102917328Y-75499366D01*
X102908684Y-75501904D01*
X102901105Y-75506775D01*
X102793309Y-75576051D01*
X102793306Y-75576053D01*
X102785729Y-75580923D01*
X102779828Y-75587733D01*
X102695918Y-75684569D01*
X102695916Y-75684572D01*
X102690016Y-75691381D01*
X102629300Y-75824330D01*
X102628018Y-75833245D01*
X102628018Y-75833246D01*
X102609139Y-75964552D01*
X102609138Y-75964559D01*
X102608500Y-75969000D01*
X99822000Y-75969000D01*
X99822000Y-74702000D01*
X141516500Y-74702000D01*
X141516500Y-77302000D01*
X141521727Y-77375079D01*
X141562904Y-77515316D01*
X141567775Y-77522895D01*
X141637051Y-77630691D01*
X141637053Y-77630694D01*
X141641923Y-77638271D01*
X141648733Y-77644172D01*
X141745569Y-77728082D01*
X141745572Y-77728084D01*
X141752381Y-77733984D01*
X141885330Y-77794700D01*
X141894245Y-77795982D01*
X141894246Y-77795982D01*
X142025552Y-77814861D01*
X142025559Y-77814862D01*
X142030000Y-77815500D01*
X142182823Y-77815500D01*
X142250944Y-77835502D01*
X142297437Y-77889158D01*
X142307541Y-77959432D01*
X142278047Y-78024012D01*
X142259476Y-78040253D01*
X142247154Y-78054739D01*
X142251729Y-78064519D01*
X143317188Y-79129978D01*
X143331132Y-79137592D01*
X143332965Y-79137461D01*
X143339580Y-79133210D01*
X144404299Y-78068491D01*
X144410683Y-78056801D01*
X144395604Y-78037398D01*
X144357188Y-77989763D01*
X144349571Y-77919176D01*
X144381326Y-77855677D01*
X144442370Y-77819426D01*
X144473578Y-77815500D01*
X144630000Y-77815500D01*
X144703079Y-77810273D01*
X144781165Y-77787345D01*
X144834670Y-77771635D01*
X144834672Y-77771634D01*
X144843316Y-77769096D01*
X144907135Y-77728082D01*
X144958691Y-77694949D01*
X144958694Y-77694947D01*
X144966271Y-77690077D01*
X145008778Y-77641022D01*
X145056082Y-77586431D01*
X145056084Y-77586428D01*
X145061984Y-77579619D01*
X145122700Y-77446670D01*
X145134149Y-77367041D01*
X145142861Y-77306448D01*
X145142862Y-77306441D01*
X145143500Y-77302000D01*
X145143500Y-74702000D01*
X145138273Y-74628921D01*
X145097096Y-74488684D01*
X145051393Y-74417569D01*
X145022949Y-74373309D01*
X145022947Y-74373306D01*
X145018077Y-74365729D01*
X145011267Y-74359828D01*
X144914431Y-74275918D01*
X144914428Y-74275916D01*
X144907619Y-74270016D01*
X144774670Y-74209300D01*
X144765755Y-74208018D01*
X144765754Y-74208018D01*
X144634448Y-74189139D01*
X144634441Y-74189138D01*
X144630000Y-74188500D01*
X142030000Y-74188500D01*
X141956921Y-74193727D01*
X141903884Y-74209300D01*
X141825330Y-74232365D01*
X141825328Y-74232366D01*
X141816684Y-74234904D01*
X141809105Y-74239775D01*
X141701309Y-74309051D01*
X141701306Y-74309053D01*
X141693729Y-74313923D01*
X141687828Y-74320733D01*
X141603918Y-74417569D01*
X141603916Y-74417572D01*
X141598016Y-74424381D01*
X141537300Y-74557330D01*
X141536018Y-74566245D01*
X141536018Y-74566246D01*
X141517139Y-74697552D01*
X141517138Y-74697559D01*
X141516500Y-74702000D01*
X99822000Y-74702000D01*
X99822000Y-72727096D01*
X99823937Y-72705088D01*
X99825229Y-72697805D01*
X99825229Y-72697804D01*
X99826079Y-72693013D01*
X99828037Y-72600321D01*
X99828488Y-72592008D01*
X99829604Y-72579254D01*
X99831038Y-72568358D01*
X99841609Y-72508407D01*
X99850359Y-72458783D01*
X99856043Y-72437570D01*
X99881651Y-72367212D01*
X99893662Y-72334213D01*
X99902942Y-72314310D01*
X99939433Y-72251107D01*
X99957951Y-72219034D01*
X99970546Y-72201048D01*
X100041253Y-72116783D01*
X100056783Y-72101252D01*
X100141055Y-72030540D01*
X100159046Y-72017943D01*
X100205711Y-71991001D01*
X100254308Y-71962944D01*
X100274209Y-71953664D01*
X100377572Y-71916043D01*
X100398787Y-71910358D01*
X100508335Y-71891042D01*
X100519231Y-71889608D01*
X100532031Y-71888488D01*
X100540354Y-71888036D01*
X100625254Y-71886244D01*
X100625259Y-71886244D01*
X100629736Y-71886149D01*
X100644727Y-71883678D01*
X100665219Y-71882000D01*
X147491339Y-71882000D01*
X147513013Y-71883878D01*
G37*
%TD.AperFunction*%
%TD*%
M02*
