%TF.GenerationSoftware,KiCad,Pcbnew,(5.99.0-9607-gdb88c0fa61)*%
%TF.CreationDate,2021-05-11T21:43:54-07:00*%
%TF.ProjectId,hugo_board,6875676f-5f62-46f6-9172-642e6b696361,rev?*%
%TF.SameCoordinates,Original*%
%TF.FileFunction,Legend,Bot*%
%TF.FilePolarity,Positive*%
%FSLAX46Y46*%
G04 Gerber Fmt 4.6, Leading zero omitted, Abs format (unit mm)*
G04 Created by KiCad (PCBNEW (5.99.0-9607-gdb88c0fa61)) date 2021-05-11 21:43:54*
%MOMM*%
%LPD*%
G01*
G04 APERTURE LIST*
%ADD10C,0.300000*%
%ADD11C,0.150000*%
%ADD12C,0.120000*%
G04 APERTURE END LIST*
D10*
X182814285Y-116228571D02*
X182314285Y-117728571D01*
X181814285Y-116228571D01*
X181385714Y-116371428D02*
X181314285Y-116300000D01*
X181171428Y-116228571D01*
X180814285Y-116228571D01*
X180671428Y-116300000D01*
X180600000Y-116371428D01*
X180528571Y-116514285D01*
X180528571Y-116657142D01*
X180600000Y-116871428D01*
X181457142Y-117728571D01*
X180528571Y-117728571D01*
D11*
%TO.C,GREEN1*%
X154482857Y-57827500D02*
X154578095Y-57779880D01*
X154720952Y-57779880D01*
X154863809Y-57827500D01*
X154959047Y-57922738D01*
X155006666Y-58017976D01*
X155054285Y-58208452D01*
X155054285Y-58351309D01*
X155006666Y-58541785D01*
X154959047Y-58637023D01*
X154863809Y-58732261D01*
X154720952Y-58779880D01*
X154625714Y-58779880D01*
X154482857Y-58732261D01*
X154435238Y-58684642D01*
X154435238Y-58351309D01*
X154625714Y-58351309D01*
X153435238Y-58779880D02*
X153768571Y-58303690D01*
X154006666Y-58779880D02*
X154006666Y-57779880D01*
X153625714Y-57779880D01*
X153530476Y-57827500D01*
X153482857Y-57875119D01*
X153435238Y-57970357D01*
X153435238Y-58113214D01*
X153482857Y-58208452D01*
X153530476Y-58256071D01*
X153625714Y-58303690D01*
X154006666Y-58303690D01*
X153006666Y-58256071D02*
X152673333Y-58256071D01*
X152530476Y-58779880D02*
X153006666Y-58779880D01*
X153006666Y-57779880D01*
X152530476Y-57779880D01*
X152101904Y-58256071D02*
X151768571Y-58256071D01*
X151625714Y-58779880D02*
X152101904Y-58779880D01*
X152101904Y-57779880D01*
X151625714Y-57779880D01*
X151197142Y-58779880D02*
X151197142Y-57779880D01*
X150625714Y-58779880D01*
X150625714Y-57779880D01*
X149625714Y-58779880D02*
X150197142Y-58779880D01*
X149911428Y-58779880D02*
X149911428Y-57779880D01*
X150006666Y-57922738D01*
X150101904Y-58017976D01*
X150197142Y-58065595D01*
%TO.C,BLUE2*%
X134125714Y-78256071D02*
X133982857Y-78303690D01*
X133935238Y-78351309D01*
X133887619Y-78446547D01*
X133887619Y-78589404D01*
X133935238Y-78684642D01*
X133982857Y-78732261D01*
X134078095Y-78779880D01*
X134459047Y-78779880D01*
X134459047Y-77779880D01*
X134125714Y-77779880D01*
X134030476Y-77827500D01*
X133982857Y-77875119D01*
X133935238Y-77970357D01*
X133935238Y-78065595D01*
X133982857Y-78160833D01*
X134030476Y-78208452D01*
X134125714Y-78256071D01*
X134459047Y-78256071D01*
X132982857Y-78779880D02*
X133459047Y-78779880D01*
X133459047Y-77779880D01*
X132649523Y-77779880D02*
X132649523Y-78589404D01*
X132601904Y-78684642D01*
X132554285Y-78732261D01*
X132459047Y-78779880D01*
X132268571Y-78779880D01*
X132173333Y-78732261D01*
X132125714Y-78684642D01*
X132078095Y-78589404D01*
X132078095Y-77779880D01*
X131601904Y-78256071D02*
X131268571Y-78256071D01*
X131125714Y-78779880D02*
X131601904Y-78779880D01*
X131601904Y-77779880D01*
X131125714Y-77779880D01*
X130744761Y-77875119D02*
X130697142Y-77827500D01*
X130601904Y-77779880D01*
X130363809Y-77779880D01*
X130268571Y-77827500D01*
X130220952Y-77875119D01*
X130173333Y-77970357D01*
X130173333Y-78065595D01*
X130220952Y-78208452D01*
X130792380Y-78779880D01*
X130173333Y-78779880D01*
%TO.C,BLUE3*%
X134125714Y-98256071D02*
X133982857Y-98303690D01*
X133935238Y-98351309D01*
X133887619Y-98446547D01*
X133887619Y-98589404D01*
X133935238Y-98684642D01*
X133982857Y-98732261D01*
X134078095Y-98779880D01*
X134459047Y-98779880D01*
X134459047Y-97779880D01*
X134125714Y-97779880D01*
X134030476Y-97827500D01*
X133982857Y-97875119D01*
X133935238Y-97970357D01*
X133935238Y-98065595D01*
X133982857Y-98160833D01*
X134030476Y-98208452D01*
X134125714Y-98256071D01*
X134459047Y-98256071D01*
X132982857Y-98779880D02*
X133459047Y-98779880D01*
X133459047Y-97779880D01*
X132649523Y-97779880D02*
X132649523Y-98589404D01*
X132601904Y-98684642D01*
X132554285Y-98732261D01*
X132459047Y-98779880D01*
X132268571Y-98779880D01*
X132173333Y-98732261D01*
X132125714Y-98684642D01*
X132078095Y-98589404D01*
X132078095Y-97779880D01*
X131601904Y-98256071D02*
X131268571Y-98256071D01*
X131125714Y-98779880D02*
X131601904Y-98779880D01*
X131601904Y-97779880D01*
X131125714Y-97779880D01*
X130792380Y-97779880D02*
X130173333Y-97779880D01*
X130506666Y-98160833D01*
X130363809Y-98160833D01*
X130268571Y-98208452D01*
X130220952Y-98256071D01*
X130173333Y-98351309D01*
X130173333Y-98589404D01*
X130220952Y-98684642D01*
X130268571Y-98732261D01*
X130363809Y-98779880D01*
X130649523Y-98779880D01*
X130744761Y-98732261D01*
X130792380Y-98684642D01*
%TO.C,RED2*%
X173459047Y-78779880D02*
X173792380Y-78303690D01*
X174030476Y-78779880D02*
X174030476Y-77779880D01*
X173649523Y-77779880D01*
X173554285Y-77827500D01*
X173506666Y-77875119D01*
X173459047Y-77970357D01*
X173459047Y-78113214D01*
X173506666Y-78208452D01*
X173554285Y-78256071D01*
X173649523Y-78303690D01*
X174030476Y-78303690D01*
X173030476Y-78256071D02*
X172697142Y-78256071D01*
X172554285Y-78779880D02*
X173030476Y-78779880D01*
X173030476Y-77779880D01*
X172554285Y-77779880D01*
X172125714Y-78779880D02*
X172125714Y-77779880D01*
X171887619Y-77779880D01*
X171744761Y-77827500D01*
X171649523Y-77922738D01*
X171601904Y-78017976D01*
X171554285Y-78208452D01*
X171554285Y-78351309D01*
X171601904Y-78541785D01*
X171649523Y-78637023D01*
X171744761Y-78732261D01*
X171887619Y-78779880D01*
X172125714Y-78779880D01*
X171173333Y-77875119D02*
X171125714Y-77827500D01*
X171030476Y-77779880D01*
X170792380Y-77779880D01*
X170697142Y-77827500D01*
X170649523Y-77875119D01*
X170601904Y-77970357D01*
X170601904Y-78065595D01*
X170649523Y-78208452D01*
X171220952Y-78779880D01*
X170601904Y-78779880D01*
%TO.C,GREEN2*%
X154482857Y-77827500D02*
X154578095Y-77779880D01*
X154720952Y-77779880D01*
X154863809Y-77827500D01*
X154959047Y-77922738D01*
X155006666Y-78017976D01*
X155054285Y-78208452D01*
X155054285Y-78351309D01*
X155006666Y-78541785D01*
X154959047Y-78637023D01*
X154863809Y-78732261D01*
X154720952Y-78779880D01*
X154625714Y-78779880D01*
X154482857Y-78732261D01*
X154435238Y-78684642D01*
X154435238Y-78351309D01*
X154625714Y-78351309D01*
X153435238Y-78779880D02*
X153768571Y-78303690D01*
X154006666Y-78779880D02*
X154006666Y-77779880D01*
X153625714Y-77779880D01*
X153530476Y-77827500D01*
X153482857Y-77875119D01*
X153435238Y-77970357D01*
X153435238Y-78113214D01*
X153482857Y-78208452D01*
X153530476Y-78256071D01*
X153625714Y-78303690D01*
X154006666Y-78303690D01*
X153006666Y-78256071D02*
X152673333Y-78256071D01*
X152530476Y-78779880D02*
X153006666Y-78779880D01*
X153006666Y-77779880D01*
X152530476Y-77779880D01*
X152101904Y-78256071D02*
X151768571Y-78256071D01*
X151625714Y-78779880D02*
X152101904Y-78779880D01*
X152101904Y-77779880D01*
X151625714Y-77779880D01*
X151197142Y-78779880D02*
X151197142Y-77779880D01*
X150625714Y-78779880D01*
X150625714Y-77779880D01*
X150197142Y-77875119D02*
X150149523Y-77827500D01*
X150054285Y-77779880D01*
X149816190Y-77779880D01*
X149720952Y-77827500D01*
X149673333Y-77875119D01*
X149625714Y-77970357D01*
X149625714Y-78065595D01*
X149673333Y-78208452D01*
X150244761Y-78779880D01*
X149625714Y-78779880D01*
%TO.C,GREEN3*%
X154482857Y-97827500D02*
X154578095Y-97779880D01*
X154720952Y-97779880D01*
X154863809Y-97827500D01*
X154959047Y-97922738D01*
X155006666Y-98017976D01*
X155054285Y-98208452D01*
X155054285Y-98351309D01*
X155006666Y-98541785D01*
X154959047Y-98637023D01*
X154863809Y-98732261D01*
X154720952Y-98779880D01*
X154625714Y-98779880D01*
X154482857Y-98732261D01*
X154435238Y-98684642D01*
X154435238Y-98351309D01*
X154625714Y-98351309D01*
X153435238Y-98779880D02*
X153768571Y-98303690D01*
X154006666Y-98779880D02*
X154006666Y-97779880D01*
X153625714Y-97779880D01*
X153530476Y-97827500D01*
X153482857Y-97875119D01*
X153435238Y-97970357D01*
X153435238Y-98113214D01*
X153482857Y-98208452D01*
X153530476Y-98256071D01*
X153625714Y-98303690D01*
X154006666Y-98303690D01*
X153006666Y-98256071D02*
X152673333Y-98256071D01*
X152530476Y-98779880D02*
X153006666Y-98779880D01*
X153006666Y-97779880D01*
X152530476Y-97779880D01*
X152101904Y-98256071D02*
X151768571Y-98256071D01*
X151625714Y-98779880D02*
X152101904Y-98779880D01*
X152101904Y-97779880D01*
X151625714Y-97779880D01*
X151197142Y-98779880D02*
X151197142Y-97779880D01*
X150625714Y-98779880D01*
X150625714Y-97779880D01*
X150244761Y-97779880D02*
X149625714Y-97779880D01*
X149959047Y-98160833D01*
X149816190Y-98160833D01*
X149720952Y-98208452D01*
X149673333Y-98256071D01*
X149625714Y-98351309D01*
X149625714Y-98589404D01*
X149673333Y-98684642D01*
X149720952Y-98732261D01*
X149816190Y-98779880D01*
X150101904Y-98779880D01*
X150197142Y-98732261D01*
X150244761Y-98684642D01*
%TO.C,BLUE1*%
X134125714Y-58256071D02*
X133982857Y-58303690D01*
X133935238Y-58351309D01*
X133887619Y-58446547D01*
X133887619Y-58589404D01*
X133935238Y-58684642D01*
X133982857Y-58732261D01*
X134078095Y-58779880D01*
X134459047Y-58779880D01*
X134459047Y-57779880D01*
X134125714Y-57779880D01*
X134030476Y-57827500D01*
X133982857Y-57875119D01*
X133935238Y-57970357D01*
X133935238Y-58065595D01*
X133982857Y-58160833D01*
X134030476Y-58208452D01*
X134125714Y-58256071D01*
X134459047Y-58256071D01*
X132982857Y-58779880D02*
X133459047Y-58779880D01*
X133459047Y-57779880D01*
X132649523Y-57779880D02*
X132649523Y-58589404D01*
X132601904Y-58684642D01*
X132554285Y-58732261D01*
X132459047Y-58779880D01*
X132268571Y-58779880D01*
X132173333Y-58732261D01*
X132125714Y-58684642D01*
X132078095Y-58589404D01*
X132078095Y-57779880D01*
X131601904Y-58256071D02*
X131268571Y-58256071D01*
X131125714Y-58779880D02*
X131601904Y-58779880D01*
X131601904Y-57779880D01*
X131125714Y-57779880D01*
X130173333Y-58779880D02*
X130744761Y-58779880D01*
X130459047Y-58779880D02*
X130459047Y-57779880D01*
X130554285Y-57922738D01*
X130649523Y-58017976D01*
X130744761Y-58065595D01*
%TO.C,RED3*%
X173459047Y-98779880D02*
X173792380Y-98303690D01*
X174030476Y-98779880D02*
X174030476Y-97779880D01*
X173649523Y-97779880D01*
X173554285Y-97827500D01*
X173506666Y-97875119D01*
X173459047Y-97970357D01*
X173459047Y-98113214D01*
X173506666Y-98208452D01*
X173554285Y-98256071D01*
X173649523Y-98303690D01*
X174030476Y-98303690D01*
X173030476Y-98256071D02*
X172697142Y-98256071D01*
X172554285Y-98779880D02*
X173030476Y-98779880D01*
X173030476Y-97779880D01*
X172554285Y-97779880D01*
X172125714Y-98779880D02*
X172125714Y-97779880D01*
X171887619Y-97779880D01*
X171744761Y-97827500D01*
X171649523Y-97922738D01*
X171601904Y-98017976D01*
X171554285Y-98208452D01*
X171554285Y-98351309D01*
X171601904Y-98541785D01*
X171649523Y-98637023D01*
X171744761Y-98732261D01*
X171887619Y-98779880D01*
X172125714Y-98779880D01*
X171220952Y-97779880D02*
X170601904Y-97779880D01*
X170935238Y-98160833D01*
X170792380Y-98160833D01*
X170697142Y-98208452D01*
X170649523Y-98256071D01*
X170601904Y-98351309D01*
X170601904Y-98589404D01*
X170649523Y-98684642D01*
X170697142Y-98732261D01*
X170792380Y-98779880D01*
X171078095Y-98779880D01*
X171173333Y-98732261D01*
X171220952Y-98684642D01*
%TO.C,RED1*%
X173459047Y-58779880D02*
X173792380Y-58303690D01*
X174030476Y-58779880D02*
X174030476Y-57779880D01*
X173649523Y-57779880D01*
X173554285Y-57827500D01*
X173506666Y-57875119D01*
X173459047Y-57970357D01*
X173459047Y-58113214D01*
X173506666Y-58208452D01*
X173554285Y-58256071D01*
X173649523Y-58303690D01*
X174030476Y-58303690D01*
X173030476Y-58256071D02*
X172697142Y-58256071D01*
X172554285Y-58779880D02*
X173030476Y-58779880D01*
X173030476Y-57779880D01*
X172554285Y-57779880D01*
X172125714Y-58779880D02*
X172125714Y-57779880D01*
X171887619Y-57779880D01*
X171744761Y-57827500D01*
X171649523Y-57922738D01*
X171601904Y-58017976D01*
X171554285Y-58208452D01*
X171554285Y-58351309D01*
X171601904Y-58541785D01*
X171649523Y-58637023D01*
X171744761Y-58732261D01*
X171887619Y-58779880D01*
X172125714Y-58779880D01*
X170601904Y-58779880D02*
X171173333Y-58779880D01*
X170887619Y-58779880D02*
X170887619Y-57779880D01*
X170982857Y-57922738D01*
X171078095Y-58017976D01*
X171173333Y-58065595D01*
D12*
%TO.C,GREEN1*%
X157400000Y-62511500D02*
X157400000Y-67263500D01*
X146750002Y-64882759D02*
G75*
G02*
X157400000Y-62511684I5589998J-4741D01*
G01*
X146750002Y-64892241D02*
G75*
G03*
X157400000Y-67263316I5589998J4741D01*
G01*
X157340000Y-64887500D02*
G75*
G03*
X157340000Y-64887500I-5000000J0D01*
G01*
%TO.C,BLUE2*%
X137400000Y-82511500D02*
X137400000Y-87263500D01*
X126750002Y-84882759D02*
G75*
G02*
X137400000Y-82511684I5589998J-4741D01*
G01*
X126750002Y-84892241D02*
G75*
G03*
X137400000Y-87263316I5589998J4741D01*
G01*
X137340000Y-84887500D02*
G75*
G03*
X137340000Y-84887500I-5000000J0D01*
G01*
%TO.C,BLUE3*%
X137400000Y-102511500D02*
X137400000Y-107263500D01*
X126750002Y-104892241D02*
G75*
G03*
X137400000Y-107263316I5589998J4741D01*
G01*
X126750002Y-104882759D02*
G75*
G02*
X137400000Y-102511684I5589998J-4741D01*
G01*
X137340000Y-104887500D02*
G75*
G03*
X137340000Y-104887500I-5000000J0D01*
G01*
%TO.C,RED2*%
X177400000Y-82511500D02*
X177400000Y-87263500D01*
X166750002Y-84882759D02*
G75*
G02*
X177400000Y-82511684I5589998J-4741D01*
G01*
X166750002Y-84892241D02*
G75*
G03*
X177400000Y-87263316I5589998J4741D01*
G01*
X177340000Y-84887500D02*
G75*
G03*
X177340000Y-84887500I-5000000J0D01*
G01*
%TO.C,GREEN2*%
X157400000Y-82511500D02*
X157400000Y-87263500D01*
X146750002Y-84892241D02*
G75*
G03*
X157400000Y-87263316I5589998J4741D01*
G01*
X146750002Y-84882759D02*
G75*
G02*
X157400000Y-82511684I5589998J-4741D01*
G01*
X157340000Y-84887500D02*
G75*
G03*
X157340000Y-84887500I-5000000J0D01*
G01*
%TO.C,GREEN3*%
X157400000Y-102511500D02*
X157400000Y-107263500D01*
X146750002Y-104892241D02*
G75*
G03*
X157400000Y-107263316I5589998J4741D01*
G01*
X146750002Y-104882759D02*
G75*
G02*
X157400000Y-102511684I5589998J-4741D01*
G01*
X157340000Y-104887500D02*
G75*
G03*
X157340000Y-104887500I-5000000J0D01*
G01*
%TO.C,BLUE1*%
X137400000Y-62511500D02*
X137400000Y-67263500D01*
X126750002Y-64882759D02*
G75*
G02*
X137400000Y-62511684I5589998J-4741D01*
G01*
X126750002Y-64892241D02*
G75*
G03*
X137400000Y-67263316I5589998J4741D01*
G01*
X137340000Y-64887500D02*
G75*
G03*
X137340000Y-64887500I-5000000J0D01*
G01*
%TO.C,RED3*%
X177400000Y-102511500D02*
X177400000Y-107263500D01*
X166750002Y-104892241D02*
G75*
G03*
X177400000Y-107263316I5589998J4741D01*
G01*
X166750002Y-104882759D02*
G75*
G02*
X177400000Y-102511684I5589998J-4741D01*
G01*
X177340000Y-104887500D02*
G75*
G03*
X177340000Y-104887500I-5000000J0D01*
G01*
%TO.C,RED1*%
X177400000Y-62511500D02*
X177400000Y-67263500D01*
X166750002Y-64882759D02*
G75*
G02*
X177400000Y-62511684I5589998J-4741D01*
G01*
X166750002Y-64892241D02*
G75*
G03*
X177400000Y-67263316I5589998J4741D01*
G01*
X177340000Y-64887500D02*
G75*
G03*
X177340000Y-64887500I-5000000J0D01*
G01*
%TD*%
M02*
