%TF.GenerationSoftware,KiCad,Pcbnew,(5.99.0-8961-g580ad8b18e)*%
%TF.CreationDate,2021-03-06T10:17:56-08:00*%
%TF.ProjectId,hugo_board,6875676f-5f62-46f6-9172-642e6b696361,rev?*%
%TF.SameCoordinates,Original*%
%TF.FileFunction,Soldermask,Bot*%
%TF.FilePolarity,Negative*%
%FSLAX46Y46*%
G04 Gerber Fmt 4.6, Leading zero omitted, Abs format (unit mm)*
G04 Created by KiCad (PCBNEW (5.99.0-8961-g580ad8b18e)) date 2021-03-06 10:17:56*
%MOMM*%
%LPD*%
G01*
G04 APERTURE LIST*
G04 Aperture macros list*
%AMRoundRect*
0 Rectangle with rounded corners*
0 $1 Rounding radius*
0 $2 $3 $4 $5 $6 $7 $8 $9 X,Y pos of 4 corners*
0 Add a 4 corners polygon primitive as box body*
4,1,4,$2,$3,$4,$5,$6,$7,$8,$9,$2,$3,0*
0 Add four circle primitives for the rounded corners*
1,1,$1+$1,$2,$3*
1,1,$1+$1,$4,$5*
1,1,$1+$1,$6,$7*
1,1,$1+$1,$8,$9*
0 Add four rect primitives between the rounded corners*
20,1,$1+$1,$2,$3,$4,$5,0*
20,1,$1+$1,$4,$5,$6,$7,0*
20,1,$1+$1,$6,$7,$8,$9,0*
20,1,$1+$1,$8,$9,$2,$3,0*%
G04 Aperture macros list end*
%ADD10O,1.750000X1.200000*%
%ADD11RoundRect,0.250000X-0.625000X0.350000X-0.625000X-0.350000X0.625000X-0.350000X0.625000X0.350000X0*%
%ADD12C,2.600000*%
%ADD13R,2.600000X2.600000*%
%ADD14O,1.400000X1.400000*%
%ADD15C,1.400000*%
G04 APERTURE END LIST*
D10*
%TO.C,J7*%
X106082000Y-92186000D03*
D11*
X106082000Y-90186000D03*
%TD*%
D12*
%TO.C,SW3*%
X107922000Y-77269000D03*
D13*
X104422000Y-77269000D03*
%TD*%
D12*
%TO.C,SW2*%
X143330000Y-79502000D03*
D13*
X143330000Y-76002000D03*
%TD*%
D12*
%TO.C,SW1*%
X104478000Y-105611000D03*
D13*
X107978000Y-105611000D03*
%TD*%
D12*
%TO.C,J10*%
X135326000Y-77269000D03*
D13*
X131826000Y-77269000D03*
%TD*%
D12*
%TO.C,J9*%
X126210000Y-77269000D03*
D13*
X122710000Y-77269000D03*
%TD*%
D12*
%TO.C,J8*%
X117066000Y-77269000D03*
D13*
X113566000Y-77269000D03*
%TD*%
D12*
%TO.C,J6*%
X143300000Y-106906000D03*
D13*
X143300000Y-103406000D03*
%TD*%
D12*
%TO.C,J5*%
X143305000Y-97775000D03*
D13*
X143305000Y-94275000D03*
%TD*%
D12*
%TO.C,J4*%
X143330000Y-88646000D03*
D13*
X143330000Y-85146000D03*
%TD*%
D12*
%TO.C,J3*%
X131882000Y-105611000D03*
D13*
X135382000Y-105611000D03*
%TD*%
D12*
%TO.C,J2*%
X122766000Y-105611000D03*
D13*
X126266000Y-105611000D03*
%TD*%
D12*
%TO.C,J1*%
X113622000Y-105611000D03*
D13*
X117122000Y-105611000D03*
%TD*%
D14*
%TO.C,R9*%
X126492000Y-87376000D03*
D15*
X126492000Y-94996000D03*
%TD*%
D14*
%TO.C,R8*%
X123952000Y-87376000D03*
D15*
X123952000Y-94996000D03*
%TD*%
D14*
%TO.C,R7*%
X121412000Y-87376000D03*
D15*
X121412000Y-94996000D03*
%TD*%
D14*
%TO.C,R6*%
X135636000Y-87376000D03*
D15*
X135636000Y-94996000D03*
%TD*%
D14*
%TO.C,R5*%
X133096000Y-87376000D03*
D15*
X133096000Y-94996000D03*
%TD*%
D14*
%TO.C,R4*%
X130556000Y-87376000D03*
D15*
X130556000Y-94996000D03*
%TD*%
D14*
%TO.C,R3*%
X117348000Y-87376000D03*
D15*
X117348000Y-94996000D03*
%TD*%
D14*
%TO.C,R2*%
X114808000Y-87376000D03*
D15*
X114808000Y-94996000D03*
%TD*%
D14*
%TO.C,R1*%
X112268000Y-87376000D03*
D15*
X112268000Y-94996000D03*
%TD*%
M02*
