%TF.GenerationSoftware,KiCad,Pcbnew,(5.99.0-9607-gdb88c0fa61)*%
%TF.CreationDate,2021-05-11T21:43:53-07:00*%
%TF.ProjectId,hugo_board,6875676f-5f62-46f6-9172-642e6b696361,rev?*%
%TF.SameCoordinates,Original*%
%TF.FileFunction,Legend,Top*%
%TF.FilePolarity,Positive*%
%FSLAX46Y46*%
G04 Gerber Fmt 4.6, Leading zero omitted, Abs format (unit mm)*
G04 Created by KiCad (PCBNEW (5.99.0-9607-gdb88c0fa61)) date 2021-05-11 21:43:53*
%MOMM*%
%LPD*%
G01*
G04 APERTURE LIST*
%ADD10C,0.120000*%
G04 APERTURE END LIST*
D10*
%TO.C,R7*%
X150530000Y-72807500D02*
X154370000Y-72807500D01*
X154370000Y-72807500D02*
X154370000Y-70967500D01*
X155320000Y-71887500D02*
X154370000Y-71887500D01*
X149580000Y-71887500D02*
X150530000Y-71887500D01*
X150530000Y-70967500D02*
X150530000Y-72807500D01*
X154370000Y-70967500D02*
X150530000Y-70967500D01*
%TO.C,SW1*%
X123265000Y-89578750D02*
X123265000Y-81758750D01*
X117705000Y-89578750D02*
X117705000Y-81758750D01*
X117705000Y-89578750D02*
X124825000Y-89578750D01*
X123325000Y-89818750D02*
X125065000Y-89818750D01*
X125065000Y-89818750D02*
X125065000Y-88318750D01*
X124825000Y-89578750D02*
X124825000Y-81758750D01*
X117705000Y-81758750D02*
X124825000Y-81758750D01*
X122596385Y-86811163D02*
G75*
G02*
X122720000Y-87418750I-1431385J-607587D01*
G01*
X121772742Y-88850859D02*
G75*
G02*
X120557000Y-88850750I-607742J1432109D01*
G01*
X120557258Y-85986641D02*
G75*
G02*
X121773000Y-85986750I607742J-1432109D01*
G01*
X122720492Y-87391739D02*
G75*
G02*
X122597000Y-88026750I-1555492J-27011D01*
G01*
X119732891Y-88026492D02*
G75*
G02*
X119733000Y-86810750I1432109J607742D01*
G01*
X122720000Y-83918750D02*
G75*
G03*
X122720000Y-83918750I-1555000J0D01*
G01*
%TO.C,R4*%
X170530000Y-70967500D02*
X170530000Y-72807500D01*
X174370000Y-72807500D02*
X174370000Y-70967500D01*
X174370000Y-70967500D02*
X170530000Y-70967500D01*
X170530000Y-72807500D02*
X174370000Y-72807500D01*
X169580000Y-71887500D02*
X170530000Y-71887500D01*
X175320000Y-71887500D02*
X174370000Y-71887500D01*
%TO.C,R5*%
X175320000Y-91887500D02*
X174370000Y-91887500D01*
X174370000Y-90967500D02*
X170530000Y-90967500D01*
X174370000Y-92807500D02*
X174370000Y-90967500D01*
X169580000Y-91887500D02*
X170530000Y-91887500D01*
X170530000Y-90967500D02*
X170530000Y-92807500D01*
X170530000Y-92807500D02*
X174370000Y-92807500D01*
%TO.C,SW2*%
X179845000Y-81890000D02*
X179845000Y-89710000D01*
X186965000Y-81890000D02*
X179845000Y-81890000D01*
X186965000Y-81890000D02*
X186965000Y-89710000D01*
X181345000Y-81650000D02*
X179605000Y-81650000D01*
X186965000Y-89710000D02*
X179845000Y-89710000D01*
X181405000Y-81890000D02*
X181405000Y-89710000D01*
X179605000Y-81650000D02*
X179605000Y-83150000D01*
X182897258Y-82617891D02*
G75*
G02*
X184113000Y-82618000I607742J-1432109D01*
G01*
X182073615Y-84657587D02*
G75*
G02*
X181950000Y-84050000I1431385J607587D01*
G01*
X184937109Y-83442258D02*
G75*
G02*
X184937000Y-84658000I-1432109J-607742D01*
G01*
X184112742Y-85482109D02*
G75*
G02*
X182897000Y-85482000I-607742J1432109D01*
G01*
X181949508Y-84077011D02*
G75*
G02*
X182073000Y-83442000I1555492J27011D01*
G01*
X185060000Y-87550000D02*
G75*
G03*
X185060000Y-87550000I-1555000J0D01*
G01*
%TO.C,R1*%
X135320000Y-71887500D02*
X134370000Y-71887500D01*
X130530000Y-72807500D02*
X134370000Y-72807500D01*
X130530000Y-70967500D02*
X130530000Y-72807500D01*
X129580000Y-71887500D02*
X130530000Y-71887500D01*
X134370000Y-72807500D02*
X134370000Y-70967500D01*
X134370000Y-70967500D02*
X130530000Y-70967500D01*
%TO.C,R9*%
X150530000Y-110967500D02*
X150530000Y-112807500D01*
X155320000Y-111887500D02*
X154370000Y-111887500D01*
X150530000Y-112807500D02*
X154370000Y-112807500D01*
X154370000Y-110967500D02*
X150530000Y-110967500D01*
X149580000Y-111887500D02*
X150530000Y-111887500D01*
X154370000Y-112807500D02*
X154370000Y-110967500D01*
%TO.C,R8*%
X154370000Y-90967500D02*
X150530000Y-90967500D01*
X150530000Y-92807500D02*
X154370000Y-92807500D01*
X155320000Y-91887500D02*
X154370000Y-91887500D01*
X150530000Y-90967500D02*
X150530000Y-92807500D01*
X154370000Y-92807500D02*
X154370000Y-90967500D01*
X149580000Y-91887500D02*
X150530000Y-91887500D01*
%TO.C,J1*%
X153570000Y-52730000D02*
X154570000Y-52730000D01*
X150970000Y-52730000D02*
X149970000Y-52730000D01*
X154410000Y-56690000D02*
X155330000Y-56690000D01*
X149210000Y-56690000D02*
X150130000Y-56690000D01*
X149970000Y-52730000D02*
X149970000Y-51130000D01*
X155330000Y-56690000D02*
X155330000Y-48870000D01*
X154410000Y-55090000D02*
X154410000Y-56690000D01*
X154130000Y-55090000D02*
X154130000Y-56305000D01*
X152770000Y-48870000D02*
X152770000Y-53230000D01*
X151770000Y-53230000D02*
X151770000Y-48870000D01*
X149970000Y-51130000D02*
X150970000Y-51130000D01*
X150130000Y-56690000D02*
X150130000Y-55090000D01*
X155330000Y-55090000D02*
X154410000Y-55090000D01*
X153570000Y-51130000D02*
X153570000Y-52730000D01*
X149210000Y-55090000D02*
X150130000Y-55090000D01*
X155330000Y-48870000D02*
X149210000Y-48870000D01*
X154570000Y-52730000D02*
X154570000Y-51130000D01*
X152770000Y-53230000D02*
X151770000Y-53230000D01*
X154570000Y-51130000D02*
X153570000Y-51130000D01*
X150970000Y-51130000D02*
X150970000Y-52730000D01*
X154130000Y-55090000D02*
X154410000Y-55090000D01*
X150130000Y-55090000D02*
X150410000Y-55090000D01*
X154070000Y-51130000D02*
X154070000Y-48870000D01*
X153570000Y-51130000D02*
X153570000Y-48870000D01*
X149210000Y-48870000D02*
X149210000Y-56690000D01*
%TO.C,R2*%
X134370000Y-90967500D02*
X130530000Y-90967500D01*
X130530000Y-92807500D02*
X134370000Y-92807500D01*
X129580000Y-91887500D02*
X130530000Y-91887500D01*
X134370000Y-92807500D02*
X134370000Y-90967500D01*
X130530000Y-90967500D02*
X130530000Y-92807500D01*
X135320000Y-91887500D02*
X134370000Y-91887500D01*
%TO.C,SW3*%
X156210000Y-122220000D02*
X156210000Y-115100000D01*
X148390000Y-122220000D02*
X148390000Y-115100000D01*
X156210000Y-122220000D02*
X148390000Y-122220000D01*
X156450000Y-114860000D02*
X154950000Y-114860000D01*
X156210000Y-115100000D02*
X148390000Y-115100000D01*
X156450000Y-116600000D02*
X156450000Y-114860000D01*
X156210000Y-116660000D02*
X148390000Y-116660000D01*
X154657742Y-120192109D02*
G75*
G02*
X153442000Y-120192000I-607742J1432109D01*
G01*
X152617891Y-119367742D02*
G75*
G02*
X152618000Y-118152000I1432109J607742D01*
G01*
X154022989Y-117204508D02*
G75*
G02*
X154658000Y-117328000I27011J-1555492D01*
G01*
X153442413Y-117328615D02*
G75*
G02*
X154050000Y-117205000I607587J-1431385D01*
G01*
X155482109Y-118152258D02*
G75*
G02*
X155482000Y-119368000I-1432109J-607742D01*
G01*
X152105000Y-118760000D02*
G75*
G03*
X152105000Y-118760000I-1555000J0D01*
G01*
%TO.C,R3*%
X129580000Y-111887500D02*
X130530000Y-111887500D01*
X134370000Y-110967500D02*
X130530000Y-110967500D01*
X130530000Y-110967500D02*
X130530000Y-112807500D01*
X130530000Y-112807500D02*
X134370000Y-112807500D01*
X134370000Y-112807500D02*
X134370000Y-110967500D01*
X135320000Y-111887500D02*
X134370000Y-111887500D01*
%TO.C,R6*%
X170530000Y-112807500D02*
X174370000Y-112807500D01*
X170530000Y-110967500D02*
X170530000Y-112807500D01*
X175320000Y-111887500D02*
X174370000Y-111887500D01*
X169580000Y-111887500D02*
X170530000Y-111887500D01*
X174370000Y-110967500D02*
X170530000Y-110967500D01*
X174370000Y-112807500D02*
X174370000Y-110967500D01*
%TD*%
M02*
